<svg width="40" height="40" viewBox="0 0 40 40" fill="none" xmlns="http://www.w3.org/2000/svg" xmlns:xlink="http://www.w3.org/1999/xlink">
<path d="M18.828,5.938L21.172,5.938C21.38,5.938 21.484,6.042 21.484,6.25L21.484,33.75C21.484,33.958 21.38,34.063 21.172,34.063L18.828,34.063C18.62,34.063 18.516,33.958 18.516,33.75L18.516,6.25C18.516,6.042 18.62,5.938 18.828,5.938Z" fill="#FFFFFF"/>
<path d="M6.875,18.516L33.125,18.516C33.333,18.516 33.438,18.62 33.438,18.828L33.438,21.172C33.438,21.38 33.333,21.484 33.125,21.484L6.875,21.484C6.667,21.484 6.563,21.38 6.563,21.172L6.563,18.828C6.563,18.62 6.667,18.516 6.875,18.516Z" fill="#FFFFFF"/>
</svg>
