<svg width="50" height="48" viewBox="0 0 50 48" fill="none" xmlns="http://www.w3.org/2000/svg" xmlns:xlink="http://www.w3.org/1999/xlink">
<path d="M46.672,23.169C41.961,14.838 33.699,9.798 24.556,9.798C15.413,9.798 7.137,14.838 2.468,23.169L2.076,23.797L2.44,24.439C7.151,32.769 15.413,37.81 24.556,37.81C33.699,37.81 41.975,32.836 46.672,24.439L47.036,23.797L46.672,23.169ZM24.556,35.069C16.685,35.069 9.458,30.87 5.264,23.797C9.458,16.724 16.685,12.525 24.556,12.525C32.427,12.525 39.571,16.737 43.834,23.797C39.571,30.87 32.413,35.069 24.556,35.069L24.556,35.069Z" fill="#272643"/>
<path d="M24.962,14.665C23.066,14.678 21.217,15.228 19.648,16.246C18.08,17.264 16.861,18.703 16.148,20.383C15.434,22.062 15.256,23.906 15.637,25.682C16.019,27.458 16.942,29.086 18.29,30.361C19.638,31.635 21.351,32.499 23.212,32.843C25.073,33.187 26.999,32.996 28.747,32.293C30.494,31.591 31.985,30.409 33.031,28.897C34.076,27.385 34.63,25.61 34.622,23.797C34.616,22.59 34.362,21.396 33.873,20.284C33.384,19.171 32.671,18.162 31.773,17.313C30.876,16.465 29.812,15.794 28.644,15.34C27.475,14.885 26.223,14.656 24.962,14.665L24.962,14.665ZM24.962,30.336C23.623,30.322 22.318,29.931 21.211,29.211C20.103,28.491 19.243,27.474 18.739,26.287C18.234,25.101 18.107,23.799 18.374,22.544C18.64,21.289 19.289,20.137 20.237,19.233C21.186,18.33 22.393,17.714 23.706,17.464C25.019,17.214 26.381,17.341 27.619,17.829C28.857,18.316 29.917,19.143 30.665,20.205C31.414,21.267 31.818,22.517 31.826,23.797C31.83,24.659 31.654,25.513 31.31,26.31C30.966,27.106 30.461,27.83 29.822,28.438C29.183,29.046 28.425,29.527 27.591,29.853C26.756,30.179 25.863,30.343 24.962,30.336L24.962,30.336Z" fill="#272643"/>
</svg>
