<svg width="42" height="42" viewBox="0 0 42 42" fill="none" xmlns="http://www.w3.org/2000/svg" xmlns:xlink="http://www.w3.org/1999/xlink">
<path d="M39.223,20.452C35.292,13.183 28.397,8.785 20.767,8.785C13.137,8.785 6.23,13.183 2.334,20.452L2.007,21L2.31,21.56C6.242,28.828 13.137,33.227 20.767,33.227C28.397,33.227 35.303,28.887 39.223,21.56L39.527,21L39.223,20.452ZM20.767,30.835C14.198,30.835 8.167,27.172 4.667,21C8.167,14.828 14.198,11.165 20.767,11.165C27.335,11.165 33.297,14.84 36.855,21C33.297,27.172 27.323,30.835 20.767,30.835L20.767,30.835Z" fill="#FFFFFF"/>
<path d="M21.105,13.032C19.523,13.043 17.98,13.523 16.671,14.411C15.362,15.299 14.345,16.555 13.749,18.021C13.154,19.486 13.006,21.095 13.324,22.645C13.642,24.194 14.412,25.615 15.537,26.727C16.662,27.839 18.092,28.593 19.645,28.893C21.198,29.193 22.805,29.026 24.264,28.413C25.722,27.8 26.966,26.769 27.839,25.45C28.712,24.13 29.174,22.582 29.167,21C29.162,19.947 28.95,18.905 28.542,17.935C28.134,16.964 27.539,16.083 26.79,15.343C26.041,14.603 25.153,14.017 24.178,13.621C23.202,13.224 22.158,13.024 21.105,13.032L21.105,13.032ZM21.105,26.705C19.988,26.694 18.899,26.352 17.975,25.724C17.051,25.095 16.333,24.208 15.912,23.173C15.491,22.138 15.385,21.001 15.607,19.906C15.83,18.811 16.371,17.806 17.162,17.018C17.954,16.229 18.961,15.692 20.057,15.474C21.153,15.256 22.289,15.367 23.322,15.792C24.356,16.218 25.24,16.939 25.865,17.866C26.489,18.792 26.826,19.883 26.833,21C26.837,21.752 26.69,22.497 26.403,23.192C26.116,23.887 25.694,24.519 25.161,25.049C24.628,25.58 23.995,26 23.299,26.284C22.603,26.568 21.857,26.711 21.105,26.705L21.105,26.705Z" fill="#FFFFFF"/>
</svg>
