<svg width="46" height="44" viewBox="0 0 46 44" fill="none" xmlns="http://www.w3.org/2000/svg" xmlns:xlink="http://www.w3.org/1999/xlink">
<path d="M42.634,20.83C38.409,13.36 30.999,8.839 22.799,8.839C14.6,8.839 7.177,13.36 2.99,20.83L2.639,21.394L2.965,21.97C7.19,29.44 14.6,33.961 22.799,33.961C30.999,33.961 38.421,29.5 42.634,21.97L42.96,21.394L42.634,20.83ZM22.799,31.503C15.741,31.503 9.259,27.737 5.497,21.394C9.259,15.05 15.741,11.285 22.799,11.285C29.858,11.285 36.265,15.062 40.089,21.394C36.265,27.737 29.845,31.503 22.799,31.503L22.799,31.503Z" fill="#272643"/>
<path d="M23.163,13.204C21.463,13.216 19.805,13.709 18.398,14.622C16.991,15.534 15.899,16.825 15.258,18.332C14.618,19.838 14.459,21.492 14.801,23.085C15.143,24.677 15.971,26.137 17.18,27.28C18.389,28.423 19.925,29.198 21.594,29.507C23.263,29.815 24.99,29.644 26.558,29.014C28.125,28.384 29.462,27.324 30.4,25.968C31.337,24.612 31.834,23.02 31.827,21.394C31.822,20.312 31.593,19.241 31.155,18.243C30.717,17.245 30.077,16.34 29.272,15.579C28.467,14.818 27.513,14.217 26.465,13.809C25.417,13.402 24.295,13.196 23.163,13.204L23.163,13.204ZM23.163,27.258C21.962,27.246 20.792,26.895 19.799,26.249C18.806,25.603 18.035,24.691 17.582,23.627C17.129,22.563 17.015,21.395 17.255,20.27C17.494,19.144 18.075,18.111 18.926,17.301C19.777,16.49 20.859,15.939 22.037,15.714C23.215,15.49 24.435,15.604 25.546,16.041C26.656,16.479 27.607,17.22 28.278,18.172C28.949,19.125 29.312,20.246 29.319,21.394C29.322,22.167 29.165,22.933 28.857,23.647C28.548,24.362 28.095,25.011 27.522,25.556C26.949,26.101 26.269,26.533 25.521,26.825C24.773,27.117 23.971,27.264 23.163,27.258L23.163,27.258Z" fill="#272643"/>
</svg>
