<svg width="50" height="48" viewBox="0 0 50 48" fill="none" xmlns="http://www.w3.org/2000/svg" xmlns:xlink="http://www.w3.org/1999/xlink">
<path d="M46.645,23.169C41.895,14.838 33.567,9.798 24.35,9.798C15.134,9.798 6.791,14.838 2.084,23.169L1.689,23.797L2.056,24.439C6.805,32.769 15.134,37.81 24.35,37.81C33.567,37.81 41.909,32.836 46.645,24.439L47.011,23.797L46.645,23.169ZM24.35,35.069C16.416,35.069 9.13,30.87 4.903,23.797C9.13,16.724 16.416,12.525 24.35,12.525C32.284,12.525 39.486,16.737 43.784,23.797C39.486,30.87 32.27,35.069 24.35,35.069L24.35,35.069Z" fill="#272643"/>
<path d="M24.759,14.665C22.848,14.678 20.984,15.228 19.403,16.246C17.822,17.264 16.594,18.703 15.874,20.383C15.154,22.062 14.975,23.906 15.36,25.682C15.744,27.458 16.675,29.086 18.034,30.361C19.393,31.635 21.119,32.499 22.995,32.843C24.871,33.187 26.813,32.996 28.575,32.293C30.336,31.591 31.839,30.409 32.893,28.897C33.947,27.385 34.505,25.61 34.497,23.797C34.491,22.59 34.235,21.396 33.742,20.284C33.25,19.171 32.53,18.162 31.626,17.313C30.721,16.465 29.649,15.794 28.47,15.34C27.292,14.885 26.031,14.656 24.759,14.665L24.759,14.665ZM24.759,30.336C23.409,30.322 22.094,29.931 20.978,29.211C19.862,28.491 18.995,27.474 18.486,26.287C17.977,25.101 17.849,23.799 18.118,22.544C18.387,21.289 19.04,20.137 19.997,19.233C20.953,18.33 22.169,17.714 23.493,17.464C24.817,17.214 26.189,17.341 27.437,17.829C28.685,18.316 29.754,19.143 30.508,20.205C31.263,21.267 31.67,22.517 31.678,23.797C31.682,24.659 31.506,25.513 31.159,26.31C30.812,27.106 30.302,27.83 29.658,28.438C29.015,29.046 28.25,29.527 27.409,29.853C26.568,30.179 25.667,30.343 24.759,30.336L24.759,30.336Z" fill="#272643"/>
</svg>
