<svg width="50" height="48" viewBox="0 0 50 48" fill="none" xmlns="http://www.w3.org/2000/svg" xmlns:xlink="http://www.w3.org/1999/xlink">
<path d="M46.734,23.169C42.109,14.839 33.999,9.798 25.024,9.798C16.049,9.798 7.925,14.839 3.341,23.169L2.957,23.797L3.314,24.439C7.939,32.769 16.049,37.81 25.024,37.81C33.999,37.81 42.123,32.836 46.734,24.439L47.091,23.797L46.734,23.169ZM25.024,35.069C17.298,35.069 10.203,30.87 6.086,23.797C10.203,16.724 17.298,12.526 25.024,12.526C32.75,12.526 39.763,16.737 43.948,23.797C39.763,30.87 32.736,35.069 25.024,35.069L25.024,35.069Z" fill="#272643"/>
<path d="M25.423,14.665C23.562,14.679 21.747,15.229 20.207,16.246C18.667,17.264 17.471,18.704 16.77,20.383C16.07,22.063 15.895,23.907 16.27,25.683C16.644,27.459 17.55,29.087 18.873,30.361C20.197,31.636 21.878,32.499 23.705,32.843C25.532,33.187 27.423,32.996 29.138,32.294C30.854,31.592 32.317,30.41 33.343,28.897C34.37,27.385 34.913,25.611 34.905,23.798C34.9,22.591 34.65,21.397 34.17,20.284C33.69,19.172 32.99,18.162 32.109,17.314C31.228,16.466 30.184,15.795 29.037,15.34C27.889,14.886 26.661,14.656 25.423,14.665L25.423,14.665ZM25.423,30.336C24.108,30.323 22.827,29.932 21.74,29.211C20.654,28.491 19.809,27.474 19.314,26.288C18.818,25.102 18.694,23.799 18.955,22.544C19.217,21.289 19.854,20.137 20.785,19.234C21.716,18.33 22.901,17.715 24.19,17.465C25.479,17.215 26.815,17.342 28.031,17.829C29.246,18.317 30.287,19.144 31.021,20.205C31.756,21.267 32.152,22.517 32.161,23.798C32.164,24.66 31.992,25.514 31.655,26.31C31.317,27.107 30.82,27.83 30.194,28.438C29.567,29.047 28.822,29.528 28.003,29.853C27.184,30.179 26.307,30.343 25.423,30.336L25.423,30.336Z" fill="#272643"/>
</svg>
