<svg width="52" height="48" viewBox="0 0 52 48" fill="none" xmlns="http://www.w3.org/2000/svg" xmlns:xlink="http://www.w3.org/1999/xlink">
<path d="M46.734,23.169C42.109,14.839 33.999,9.798 25.024,9.798C16.049,9.798 7.925,14.839 3.341,23.169L2.957,23.797L3.314,24.439C7.939,32.769 16.049,37.81 25.024,37.81C33.999,37.81 42.123,32.836 46.734,24.439L47.091,23.797L46.734,23.169ZM25.024,35.069C17.298,35.069 10.203,30.87 6.086,23.797C10.203,16.724 17.298,12.526 25.024,12.526C32.75,12.526 39.763,16.737 43.948,23.797C39.763,30.87 32.736,35.069 25.024,35.069L25.024,35.069Z" fill="#272643"/>
<path d="M25.424,14.665C23.563,14.679 21.748,15.229 20.208,16.246C18.668,17.264 17.472,18.704 16.771,20.383C16.071,22.063 15.896,23.907 16.271,25.683C16.645,27.459 17.551,29.087 18.874,30.361C20.198,31.636 21.879,32.499 23.706,32.843C25.533,33.187 27.424,32.996 29.139,32.294C30.854,31.592 32.318,30.41 33.344,28.897C34.371,27.385 34.914,25.611 34.906,23.798C34.901,22.591 34.651,21.397 34.171,20.284C33.691,19.172 32.991,18.162 32.11,17.314C31.229,16.466 30.185,15.795 29.038,15.34C27.89,14.886 26.662,14.656 25.424,14.665L25.424,14.665ZM25.424,30.336C24.109,30.323 22.828,29.932 21.741,29.211C20.655,28.491 19.81,27.474 19.315,26.288C18.819,25.102 18.695,23.799 18.956,22.544C19.218,21.289 19.855,20.137 20.786,19.234C21.717,18.33 22.902,17.715 24.191,17.465C25.48,17.215 26.816,17.342 28.032,17.829C29.247,18.317 30.287,19.144 31.022,20.205C31.757,21.267 32.153,22.517 32.162,23.798C32.165,24.66 31.993,25.514 31.656,26.31C31.318,27.107 30.821,27.83 30.195,28.438C29.568,29.047 28.823,29.528 28.004,29.853C27.185,30.179 26.308,30.343 25.424,30.336L25.424,30.336Z" fill="#272643"/>
</svg>
