<svg width="44" height="44" viewBox="0 0 44 44" fill="none" xmlns="http://www.w3.org/2000/svg" xmlns:xlink="http://www.w3.org/1999/xlink">
<path d="M39.701,20.74C35.744,13.424 28.804,8.998 21.125,8.998C13.445,8.998 6.494,13.424 2.572,20.74L2.243,21.292L2.548,21.855C6.506,29.171 13.445,33.598 21.125,33.598C28.804,33.598 35.756,29.23 39.701,21.855L40.006,21.292L39.701,20.74ZM21.125,31.191C14.514,31.191 8.443,27.503 4.92,21.292C8.443,15.08 14.514,11.393 21.125,11.393C27.736,11.393 33.736,15.092 37.317,21.292C33.736,27.503 27.724,31.191 21.125,31.191L21.125,31.191Z" fill="#FFFFFF"/>
<path d="M21.465,13.272C19.873,13.283 18.32,13.766 17.002,14.66C15.685,15.554 14.661,16.818 14.062,18.293C13.462,19.768 13.313,21.387 13.633,22.947C13.954,24.507 14.729,25.936 15.861,27.056C16.994,28.175 18.432,28.933 19.996,29.236C21.559,29.538 23.177,29.37 24.644,28.753C26.112,28.136 27.364,27.098 28.243,25.77C29.121,24.442 29.586,22.884 29.579,21.292C29.574,20.232 29.361,19.183 28.95,18.206C28.54,17.229 27.94,16.343 27.187,15.598C26.433,14.853 25.539,14.264 24.558,13.865C23.576,13.465 22.525,13.264 21.465,13.272L21.465,13.272ZM21.465,27.034C20.341,27.022 19.244,26.678 18.314,26.046C17.385,25.413 16.662,24.52 16.238,23.479C15.814,22.437 15.708,21.293 15.932,20.191C16.155,19.089 16.7,18.077 17.497,17.284C18.294,16.49 19.307,15.95 20.411,15.73C21.514,15.511 22.657,15.622 23.697,16.05C24.737,16.479 25.627,17.204 26.256,18.137C26.884,19.07 27.224,20.167 27.231,21.292C27.234,22.049 27.087,22.799 26.798,23.498C26.509,24.198 26.084,24.833 25.548,25.367C25.011,25.901 24.374,26.324 23.673,26.61C22.973,26.896 22.222,27.04 21.465,27.034L21.465,27.034Z" fill="#FFFFFF"/>
</svg>
