<svg width="44" height="42" viewBox="0 0 44 42" fill="none" xmlns="http://www.w3.org/2000/svg" xmlns:xlink="http://www.w3.org/1999/xlink">
<path d="M39.659,20.452C35.7,13.183 28.757,8.785 21.075,8.785C13.392,8.785 6.438,13.183 2.514,20.452L2.186,21L2.491,21.56C6.45,28.828 13.392,33.227 21.075,33.227C28.757,33.227 35.712,28.887 39.659,21.56L39.964,21L39.659,20.452ZM21.075,30.835C14.461,30.835 8.388,27.172 4.864,21C8.388,14.828 14.461,11.165 21.075,11.165C27.688,11.165 33.691,14.84 37.274,21C33.691,27.172 27.677,30.835 21.075,30.835L21.075,30.835Z" fill="#FFFFFF"/>
<path d="M21.416,13.032C19.823,13.043 18.269,13.523 16.951,14.411C15.633,15.299 14.609,16.555 14.009,18.021C13.409,19.486 13.26,21.095 13.581,22.645C13.901,24.194 14.677,25.615 15.81,26.727C16.942,27.839 18.382,28.593 19.945,28.893C21.509,29.193 23.128,29.026 24.596,28.413C26.065,27.8 27.317,26.769 28.196,25.45C29.075,24.13 29.54,22.582 29.533,21C29.528,19.947 29.314,18.905 28.904,17.935C28.493,16.964 27.893,16.083 27.139,15.343C26.385,14.603 25.492,14.017 24.509,13.621C23.527,13.224 22.476,13.024 21.416,13.032L21.416,13.032ZM21.416,26.705C20.291,26.694 19.194,26.352 18.264,25.724C17.333,25.095 16.611,24.208 16.187,23.173C15.763,22.138 15.656,21.001 15.88,19.906C16.104,18.811 16.649,17.806 17.446,17.018C18.243,16.229 19.257,15.692 20.361,15.474C21.464,15.256 22.608,15.367 23.648,15.792C24.689,16.218 25.579,16.939 26.208,17.866C26.837,18.792 27.176,19.883 27.183,21C27.187,21.752 27.039,22.497 26.75,23.192C26.461,23.887 26.036,24.519 25.5,25.049C24.963,25.58 24.326,26 23.625,26.284C22.924,26.568 22.173,26.711 21.416,26.705L21.416,26.705Z" fill="#FFFFFF"/>
</svg>
