<svg width="46" height="44" viewBox="0 0 46 44" fill="none" xmlns="http://www.w3.org/2000/svg" xmlns:xlink="http://www.w3.org/1999/xlink">
<path d="M41.501,20.83C37.353,13.359 30.079,8.838 22.03,8.838C13.981,8.838 6.695,13.359 2.585,20.83L2.24,21.393L2.56,21.969C6.708,29.44 13.981,33.961 22.03,33.961C30.079,33.961 37.365,29.5 41.501,21.969L41.821,21.393L41.501,20.83ZM22.03,31.502C15.101,31.502 8.739,27.737 5.046,21.393C8.739,15.05 15.101,11.285 22.03,11.285C28.959,11.285 35.248,15.062 39.002,21.393C35.248,27.737 28.947,31.502 22.03,31.502L22.03,31.502Z" fill="#272643"/>
<path d="M22.389,13.203C20.72,13.215 19.093,13.709 17.712,14.621C16.33,15.534 15.258,16.825 14.629,18.331C14.001,19.837 13.845,21.491 14.18,23.084C14.516,24.677 15.329,26.137 16.516,27.28C17.702,28.423 19.21,29.198 20.849,29.506C22.487,29.815 24.183,29.643 25.721,29.013C27.26,28.383 28.572,27.323 29.493,25.967C30.413,24.611 30.901,23.019 30.893,21.394C30.889,20.311 30.665,19.24 30.234,18.243C29.804,17.245 29.176,16.34 28.386,15.579C27.596,14.818 26.659,14.216 25.63,13.809C24.601,13.401 23.5,13.195 22.389,13.203L22.389,13.203ZM22.389,27.257C21.21,27.246 20.061,26.895 19.087,26.249C18.112,25.603 17.355,24.691 16.911,23.627C16.466,22.563 16.354,21.395 16.589,20.269C16.824,19.144 17.395,18.111 18.23,17.301C19.065,16.49 20.127,15.938 21.284,15.714C22.44,15.49 23.638,15.604 24.728,16.041C25.818,16.478 26.751,17.22 27.41,18.172C28.069,19.124 28.425,20.245 28.432,21.394C28.435,22.167 28.281,22.932 27.978,23.647C27.675,24.361 27.23,25.01 26.668,25.556C26.106,26.101 25.438,26.532 24.704,26.824C23.969,27.117 23.182,27.264 22.389,27.257L22.389,27.257Z" fill="#272643"/>
</svg>
