<svg width="44" height="42" viewBox="0 0 44 42" fill="none" xmlns="http://www.w3.org/2000/svg" xmlns:xlink="http://www.w3.org/1999/xlink">
<path d="M40.073,20.452C36.141,13.183 29.246,8.785 21.616,8.785C13.986,8.785 7.08,13.183 3.183,20.452L2.856,21L3.16,21.56C7.091,28.829 13.986,33.227 21.616,33.227C29.246,33.227 36.153,28.887 40.073,21.56L40.376,21L40.073,20.452ZM21.616,30.835C15.048,30.835 9.016,27.172 5.516,21C9.016,14.828 15.048,11.165 21.616,11.165C28.185,11.165 34.146,14.84 37.705,21C34.146,27.172 28.173,30.835 21.616,30.835L21.616,30.835Z" fill="#FFFFFF"/>
<path d="M21.955,13.031C20.373,13.043 18.83,13.523 17.521,14.411C16.212,15.299 15.195,16.555 14.599,18.02C14.003,19.486 13.855,21.095 14.173,22.645C14.492,24.194 15.262,25.615 16.387,26.727C17.512,27.839 18.941,28.592 20.495,28.893C22.048,29.193 23.655,29.026 25.113,28.413C26.572,27.8 27.816,26.769 28.689,25.45C29.561,24.13 30.023,22.582 30.016,21C30.012,19.947 29.799,18.905 29.392,17.934C28.984,16.964 28.388,16.083 27.639,15.343C26.89,14.602 26.003,14.017 25.027,13.621C24.052,13.224 23.008,13.024 21.955,13.031L21.955,13.031ZM21.955,26.705C20.837,26.693 19.748,26.352 18.824,25.723C17.9,25.095 17.183,24.208 16.761,23.173C16.34,22.138 16.234,21.001 16.457,19.906C16.679,18.811 17.22,17.806 18.012,17.018C18.804,16.229 19.811,15.692 20.907,15.474C22.003,15.256 23.139,15.367 24.172,15.792C25.205,16.218 26.09,16.939 26.714,17.865C27.339,18.792 27.676,19.882 27.683,21C27.686,21.752 27.54,22.497 27.253,23.192C26.966,23.887 26.544,24.518 26.011,25.049C25.478,25.58 24.845,25.999 24.149,26.284C23.452,26.568 22.707,26.711 21.955,26.705L21.955,26.705Z" fill="#FFFFFF"/>
</svg>
