<svg width="486" height="278" viewBox="0 0 486 278" fill="none" xmlns="http://www.w3.org/2000/svg" xmlns:xlink="http://www.w3.org/1999/xlink">
<path d="M50.397,32.66L51.625,33.148L51.625,33.147L50.397,32.66ZM0.477,65.738C0.717,67.037 0.718,67.037 0.718,67.037C0.719,67.037 0.72,67.037 0.72,67.036C0.722,67.036 0.725,67.036 0.727,67.035C0.733,67.034 0.741,67.033 0.752,67.031C0.773,67.026 0.804,67.021 0.843,67.013C0.923,66.997 1.039,66.974 1.19,66.943C1.492,66.881 1.932,66.788 2.495,66.66C3.619,66.405 5.231,66.012 7.195,65.459C11.12,64.355 16.465,62.612 22.141,60.051C33.432,54.956 46.311,46.501 51.625,33.148L49.169,32.171C44.245,44.546 32.163,52.63 21.054,57.642C15.529,60.135 10.314,61.837 6.479,62.916C4.563,63.454 2.995,63.837 1.909,64.084C1.366,64.207 0.944,64.297 0.659,64.355C0.517,64.384 0.409,64.405 0.338,64.419C0.302,64.426 0.276,64.431 0.259,64.435C0.25,64.436 0.244,64.437 0.24,64.438C0.238,64.438 0.237,64.439 0.236,64.439C0.236,64.439 0.236,64.439 0.236,64.439C0.236,64.439 0.236,64.439 0.477,65.738ZM51.625,33.147C56.315,21.334 68.411,13.692 79.643,8.984C85.222,6.645 90.505,5.065 94.396,4.069C96.34,3.572 97.932,3.221 99.036,2.996C99.588,2.883 100.017,2.801 100.306,2.748C100.451,2.722 100.561,2.702 100.633,2.69C100.67,2.683 100.697,2.679 100.714,2.676C100.723,2.674 100.729,2.673 100.733,2.673C100.735,2.672 100.737,2.672 100.737,2.672C100.738,2.672 100.738,2.672 100.738,2.672C100.738,2.672 100.738,2.672 100.524,1.368C100.309,0.064 100.309,0.065 100.308,0.065C100.308,0.065 100.307,0.065 100.306,0.065C100.304,0.065 100.302,0.066 100.299,0.066C100.293,0.067 100.285,0.069 100.274,0.07C100.253,0.074 100.222,0.079 100.182,0.086C100.101,0.1 99.983,0.121 99.83,0.149C99.524,0.205 99.077,0.29 98.507,0.407C97.366,0.64 95.731,1 93.741,1.509C89.763,2.527 84.35,4.146 78.621,6.547C67.238,11.319 54.271,19.323 49.169,32.172L51.625,33.147Z" fill="#2C698D"/>
<path d="M61.7,38.568L62.925,39.063L62.926,39.062L61.7,38.568ZM0.477,78.103C0.703,79.405 0.704,79.405 0.705,79.405C0.705,79.405 0.706,79.404 0.707,79.404C0.709,79.404 0.712,79.403 0.715,79.403C0.722,79.402 0.732,79.4 0.745,79.398C0.77,79.393 0.807,79.386 0.855,79.377C0.952,79.36 1.094,79.333 1.278,79.297C1.646,79.226 2.184,79.118 2.872,78.97C4.246,78.673 6.219,78.215 8.623,77.568C13.427,76.276 19.97,74.225 26.915,71.191C40.741,65.15 56.456,55.083 62.925,39.063L60.475,38.073C54.405,53.104 39.507,62.805 25.857,68.769C19.063,71.737 12.651,73.748 7.936,75.017C5.58,75.65 3.651,76.098 2.314,76.387C1.646,76.531 1.126,76.635 0.775,76.703C0.599,76.737 0.466,76.762 0.378,76.779C0.334,76.787 0.301,76.793 0.279,76.796C0.268,76.798 0.261,76.8 0.256,76.801C0.253,76.801 0.251,76.801 0.25,76.802C0.25,76.802 0.25,76.802 0.25,76.802C0.25,76.802 0.25,76.802 0.477,78.103ZM62.926,39.062C68.692,24.766 83.594,15.642 97.376,10.077C104.229,7.31 110.718,5.457 115.496,4.296C117.884,3.716 119.841,3.309 121.198,3.048C121.876,2.918 122.404,2.824 122.761,2.762C122.939,2.732 123.075,2.71 123.165,2.695C123.21,2.688 123.243,2.682 123.265,2.679C123.276,2.677 123.284,2.676 123.289,2.675C123.292,2.675 123.294,2.674 123.295,2.674C123.295,2.674 123.295,2.674 123.296,2.674C123.296,2.674 123.296,2.674 123.096,1.368C122.896,0.062 122.896,0.062 122.895,0.062C122.895,0.062 122.894,0.063 122.893,0.063C122.891,0.063 122.888,0.063 122.884,0.064C122.878,0.065 122.868,0.067 122.855,0.069C122.829,0.073 122.792,0.079 122.743,0.087C122.645,0.102 122.501,0.126 122.315,0.158C121.941,0.222 121.395,0.319 120.699,0.453C119.305,0.721 117.306,1.137 114.872,1.728C110.007,2.91 103.389,4.799 96.387,7.627C82.461,13.25 66.665,22.727 60.475,38.074L62.926,39.062Z" fill="#2C698D"/>
<path d="M72.969,44.545L74.192,45.045L74.193,45.043L72.969,44.545ZM0.477,90.503C0.695,91.806 0.695,91.806 0.696,91.806C0.697,91.806 0.698,91.806 0.699,91.806C0.701,91.805 0.704,91.805 0.708,91.804C0.716,91.803 0.728,91.801 0.742,91.798C0.772,91.793 0.816,91.786 0.872,91.776C0.986,91.755 1.153,91.725 1.37,91.685C1.805,91.604 2.44,91.48 3.252,91.311C4.877,90.972 7.208,90.448 10.05,89.706C15.732,88.222 23.467,85.862 31.676,82.354C48.03,75.366 66.568,63.696 74.192,45.045L71.746,44.045C64.529,61.7 46.82,73.009 30.638,79.924C22.58,83.367 14.975,85.689 9.383,87.15C6.588,87.879 4.299,88.393 2.713,88.724C1.92,88.89 1.302,89.009 0.885,89.087C0.676,89.126 0.518,89.155 0.412,89.174C0.36,89.183 0.32,89.19 0.294,89.194C0.281,89.196 0.272,89.198 0.266,89.199C0.263,89.199 0.261,89.2 0.26,89.2C0.259,89.2 0.259,89.2 0.258,89.2C0.258,89.2 0.258,89.2 0.477,90.503ZM74.193,45.043C81.054,28.21 98.775,17.589 115.111,11.163C123.238,7.966 130.934,5.842 136.601,4.518C139.432,3.856 141.754,3.394 143.364,3.099C144.169,2.951 144.796,2.845 145.22,2.776C145.432,2.741 145.593,2.716 145.7,2.699C145.754,2.691 145.794,2.685 145.82,2.681C145.834,2.679 145.843,2.678 145.849,2.677C145.852,2.677 145.855,2.676 145.856,2.676C145.857,2.676 145.857,2.676 145.857,2.676C145.857,2.676 145.857,2.676 145.668,1.368C145.48,0.061 145.479,0.061 145.478,0.061C145.478,0.061 145.477,0.061 145.476,0.061C145.473,0.061 145.47,0.062 145.466,0.062C145.458,0.064 145.447,0.065 145.432,0.068C145.401,0.072 145.357,0.079 145.3,0.088C145.185,0.105 145.016,0.132 144.795,0.168C144.355,0.239 143.71,0.348 142.887,0.5C141.24,0.802 138.877,1.272 135.999,1.945C130.246,3.289 122.421,5.448 114.143,8.704C97.668,15.185 79.039,26.153 71.746,44.046L74.193,45.043Z" fill="#2C698D"/>
<path d="M84.273,50.453L85.494,50.956L85.495,50.955L84.273,50.453ZM0.477,102.869C0.688,104.173 0.688,104.173 0.689,104.173C0.69,104.173 0.691,104.173 0.692,104.172C0.695,104.172 0.698,104.171 0.703,104.171C0.712,104.169 0.725,104.167 0.742,104.164C0.776,104.159 0.826,104.15 0.891,104.139C1.022,104.117 1.214,104.083 1.465,104.038C1.966,103.947 2.699,103.809 3.636,103.619C5.511,103.239 8.203,102.65 11.485,101.813C18.046,100.14 26.979,97.472 36.457,93.49C55.347,85.555 76.716,72.272 85.494,50.956L83.051,49.95C74.686,70.264 54.156,83.189 35.434,91.054C26.107,94.973 17.304,97.603 10.832,99.253C7.598,100.078 4.949,100.657 3.112,101.029C2.193,101.216 1.478,101.35 0.994,101.438C0.752,101.481 0.568,101.513 0.445,101.534C0.384,101.545 0.338,101.553 0.308,101.558C0.293,101.56 0.282,101.562 0.275,101.563C0.271,101.564 0.269,101.564 0.267,101.564C0.266,101.565 0.266,101.565 0.266,101.565C0.265,101.565 0.266,101.565 0.477,102.869ZM85.495,50.955C93.435,31.635 113.967,19.535 132.852,12.253C142.253,8.628 151.155,6.232 157.709,4.742C160.984,3.998 163.67,3.48 165.533,3.15C166.465,2.984 167.191,2.865 167.682,2.788C167.928,2.75 168.114,2.722 168.239,2.703C168.301,2.694 168.348,2.687 168.379,2.683C168.394,2.681 168.405,2.679 168.413,2.678C168.416,2.678 168.419,2.677 168.421,2.677C168.421,2.677 168.422,2.677 168.422,2.677C168.422,2.677 168.422,2.677 168.241,1.368C168.059,0.059 168.059,0.06 168.058,0.06C168.057,0.06 168.056,0.06 168.055,0.06C168.052,0.06 168.049,0.061 168.044,0.062C168.035,0.063 168.022,0.065 168.005,0.067C167.97,0.072 167.92,0.079 167.853,0.089C167.721,0.109 167.526,0.138 167.272,0.178C166.765,0.258 166.021,0.379 165.071,0.548C163.172,0.885 160.444,1.41 157.123,2.165C150.483,3.675 141.453,6.105 131.901,9.787C112.882,17.121 91.43,29.563 83.051,49.95L85.495,50.955Z" fill="#2C698D"/>
<path d="M95.576,56.395L96.797,56.901L96.797,56.9L95.576,56.395ZM0.477,115.235C0.682,116.54 0.683,116.54 0.684,116.539C0.684,116.539 0.686,116.539 0.687,116.539C0.69,116.538 0.694,116.538 0.699,116.537C0.709,116.535 0.724,116.533 0.743,116.53C0.781,116.524 0.838,116.514 0.912,116.502C1.059,116.477 1.277,116.44 1.561,116.39C2.128,116.29 2.959,116.137 4.022,115.927C6.148,115.505 9.2,114.852 12.922,113.921C20.363,112.059 30.492,109.084 41.24,104.631C62.667,95.751 86.865,80.865 96.797,56.901L94.356,55.889C84.841,78.846 61.49,93.379 40.228,102.189C29.632,106.58 19.633,109.518 12.281,111.357C8.606,112.277 5.596,112.921 3.508,113.335C2.465,113.542 1.651,113.691 1.101,113.788C0.826,113.837 0.616,113.872 0.477,113.896C0.407,113.907 0.354,113.916 0.32,113.922C0.303,113.924 0.29,113.926 0.282,113.928C0.278,113.928 0.275,113.929 0.273,113.929C0.272,113.929 0.272,113.929 0.271,113.929C0.271,113.929 0.271,113.929 0.477,115.235ZM96.797,56.9C105.818,35.075 129.153,21.487 150.578,13.346C161.248,9.291 171.352,6.622 178.79,4.967C182.507,4.139 185.556,3.566 187.672,3.2C188.729,3.017 189.554,2.886 190.112,2.801C190.391,2.758 190.604,2.727 190.746,2.707C190.816,2.697 190.87,2.689 190.905,2.684C190.922,2.682 190.935,2.68 190.944,2.679C190.948,2.679 190.951,2.678 190.953,2.678C190.954,2.678 190.954,2.678 190.955,2.678C190.955,2.678 190.955,2.678 190.779,1.368C190.603,0.059 190.602,0.059 190.601,0.059C190.601,0.059 190.6,0.059 190.598,0.059C190.595,0.06 190.591,0.06 190.586,0.061C190.576,0.062 190.561,0.064 190.542,0.067C190.503,0.073 190.446,0.081 190.371,0.091C190.221,0.113 190.001,0.145 189.714,0.189C189.139,0.276 188.297,0.41 187.221,0.596C185.069,0.969 181.979,1.55 178.216,2.387C170.692,4.062 160.46,6.764 149.64,10.876C128.084,19.067 103.819,32.993 94.355,55.89L96.797,56.9Z" fill="#2C698D"/>
<path d="M106.845,62.337L108.065,62.845L108.065,62.845L106.845,62.337ZM0.477,127.634C0.678,128.94 0.679,128.94 0.68,128.94C0.68,128.94 0.682,128.939 0.683,128.939C0.686,128.939 0.691,128.938 0.696,128.937C0.708,128.935 0.724,128.933 0.745,128.93C0.788,128.923 0.851,128.913 0.933,128.899C1.098,128.872 1.341,128.832 1.658,128.777C2.291,128.667 3.22,128.5 4.408,128.268C6.783,127.806 10.195,127.087 14.355,126.061C22.672,124.01 33.994,120.728 46.007,115.8C69.962,105.973 96.981,89.472 108.065,62.845L105.625,61.829C94.962,87.447 68.796,103.595 45.004,113.355C33.143,118.221 21.951,121.467 13.722,123.496C9.609,124.51 6.24,125.219 3.903,125.675C2.734,125.902 1.823,126.066 1.207,126.173C0.898,126.227 0.663,126.266 0.507,126.291C0.428,126.304 0.37,126.314 0.331,126.32C0.311,126.323 0.297,126.325 0.288,126.327C0.283,126.327 0.28,126.328 0.278,126.328C0.277,126.328 0.276,126.328 0.275,126.329C0.275,126.329 0.275,126.329 0.477,127.634ZM108.065,62.845C118.2,38.496 144.359,23.422 168.331,14.425C180.275,9.943 191.581,7.004 199.905,5.186C204.065,4.278 207.477,3.65 209.845,3.249C211.029,3.049 211.953,2.906 212.577,2.813C212.891,2.766 213.129,2.733 213.287,2.71C213.367,2.699 213.427,2.691 213.465,2.686C213.485,2.683 213.501,2.681 213.509,2.68C213.515,2.679 213.517,2.679 213.521,2.679C213.521,2.678 213.521,2.678 213.523,2.678C213.523,2.678 213.523,2.678 213.351,1.368C213.181,0.058 213.179,0.058 213.179,0.058C213.179,0.058 213.177,0.059 213.175,0.059C213.173,0.059 213.167,0.06 213.163,0.061C213.151,0.062 213.135,0.064 213.113,0.067C213.069,0.073 213.005,0.082 212.923,0.093C212.755,0.117 212.509,0.152 212.189,0.199C211.547,0.295 210.607,0.441 209.405,0.644C207.001,1.05 203.547,1.686 199.341,2.605C190.932,4.442 179.497,7.413 167.403,11.951C143.302,20.996 116.208,36.407 105.625,61.829L108.065,62.845Z" fill="#2C698D"/>
<path d="M118.149,68.28L119.367,68.789L119.368,68.789L118.149,68.28ZM0.477,140C0.675,141.306 0.676,141.306 0.677,141.306C0.678,141.306 0.679,141.306 0.681,141.305C0.684,141.305 0.689,141.304 0.695,141.303C0.707,141.301 0.725,141.298 0.749,141.295C0.796,141.287 0.865,141.276 0.956,141.262C1.138,141.232 1.406,141.188 1.756,141.128C2.456,141.009 3.483,140.826 4.796,140.574C7.421,140.069 11.194,139.285 15.794,138.163C24.991,135.921 37.51,132.328 50.792,126.926C77.284,116.151 107.131,98.046 119.367,68.789L116.93,67.77C105.117,96.013 76.127,113.769 49.796,124.478C36.666,129.819 24.277,133.375 15.168,135.596C10.615,136.706 6.885,137.482 4.297,137.979C3.003,138.228 1.994,138.407 1.311,138.524C0.97,138.582 0.71,138.625 0.536,138.653C0.449,138.667 0.383,138.677 0.34,138.684C0.319,138.687 0.303,138.69 0.292,138.692C0.287,138.692 0.283,138.693 0.281,138.693C0.28,138.693 0.279,138.694 0.279,138.694C0.278,138.694 0.278,138.694 0.477,140ZM119.368,68.789C130.583,41.935 159.556,25.374 186.077,15.517C199.293,10.606 211.807,7.394 221.017,5.41C225.621,4.419 229.397,3.735 232.019,3.299C233.329,3.082 234.351,2.926 235.043,2.825C235.389,2.775 235.653,2.738 235.829,2.714C235.919,2.702 235.985,2.693 236.029,2.687C236.051,2.684 236.067,2.682 236.077,2.681C236.083,2.68 236.087,2.679 236.089,2.679C236.089,2.679 236.091,2.679 236.091,2.679C236.091,2.679 236.091,2.679 235.923,1.368C235.757,0.058 235.755,0.058 235.755,0.058C235.753,0.058 235.753,0.058 235.751,0.058C235.747,0.059 235.743,0.059 235.737,0.06C235.725,0.062 235.705,0.064 235.683,0.067C235.635,0.074 235.565,0.083 235.473,0.096C235.289,0.121 235.017,0.159 234.663,0.21C233.953,0.314 232.915,0.472 231.585,0.693C228.927,1.134 225.111,1.826 220.461,2.827C211.165,4.829 198.523,8.073 185.156,13.041C158.51,22.944 128.595,39.838 116.929,67.771L119.368,68.789Z" fill="#2C698D"/>
<path d="M129.418,74.188L128.199,73.676L128.199,73.677L129.418,74.188ZM0.477,152.365C0.672,153.672 0.673,153.672 0.674,153.672C0.675,153.672 0.676,153.671 0.678,153.671C0.682,153.671 0.687,153.67 0.694,153.669C0.707,153.667 0.727,153.664 0.752,153.66C0.804,153.652 0.88,153.64 0.979,153.624C1.178,153.593 1.472,153.545 1.855,153.481C2.622,153.351 3.746,153.154 5.184,152.881C8.06,152.335 12.193,151.485 17.233,150.269C27.309,147.837 41.024,143.937 55.573,138.061C84.598,126.337 117.265,106.618 130.636,74.698L128.199,73.677C115.253,104.581 83.449,123.951 54.583,135.611C40.186,141.426 26.601,145.29 16.613,147.7C11.62,148.905 7.53,149.746 4.691,150.285C3.272,150.555 2.165,150.749 1.416,150.875C1.041,150.938 0.755,150.984 0.565,151.015C0.469,151.03 0.397,151.041 0.35,151.048C0.326,151.052 0.308,151.055 0.297,151.056C0.291,151.057 0.287,151.058 0.284,151.058C0.283,151.059 0.282,151.059 0.282,151.059C0.281,151.059 0.281,151.059 0.477,152.365ZM130.636,74.699C142.949,45.356 174.746,27.316 203.819,16.605C218.311,11.266 232.031,7.782 242.129,5.634C247.177,4.56 251.317,3.82 254.193,3.35C255.629,3.114 256.751,2.946 257.511,2.837C257.891,2.783 258.179,2.743 258.373,2.717C258.471,2.704 258.543,2.694 258.591,2.688C258.615,2.685 258.633,2.683 258.645,2.681C258.651,2.68 258.655,2.68 258.657,2.679C258.659,2.679 258.659,2.679 258.661,2.679C258.661,2.679 258.661,2.679 258.497,1.368C258.333,0.057 258.331,0.057 258.331,0.057C258.329,0.058 258.327,0.058 258.325,0.058C258.323,0.058 258.317,0.059 258.311,0.06C258.297,0.062 258.277,0.064 258.251,0.068C258.199,0.074 258.123,0.084 258.021,0.098C257.821,0.125 257.523,0.166 257.135,0.222C256.359,0.333 255.221,0.504 253.765,0.742C250.855,1.218 246.673,1.966 241.581,3.049C231.395,5.216 217.549,8.731 202.905,14.126C173.709,24.882 140.966,43.253 128.199,73.676L130.636,74.699Z" fill="#2C698D"/>
<path d="M140.721,80.164L141.939,80.677L141.939,80.676L140.721,80.164ZM0.477,164.766C0.67,166.073 0.67,166.073 0.672,166.072C0.673,166.072 0.674,166.072 0.676,166.072C0.68,166.071 0.686,166.07 0.693,166.069C0.707,166.067 0.729,166.064 0.756,166.06C0.812,166.051 0.894,166.038 1.002,166.021C1.218,165.988 1.538,165.936 1.954,165.867C2.787,165.728 4.008,165.516 5.571,165.223C8.697,164.635 13.19,163.721 18.668,162.41C29.621,159.79 44.53,155.582 60.346,149.234C91.905,136.566 127.398,115.242 141.939,80.677L139.503,79.652C125.39,113.2 90.762,134.177 59.362,146.782C43.697,153.069 28.918,157.241 18.053,159.84C12.622,161.14 8.172,162.045 5.083,162.626C3.539,162.916 2.335,163.125 1.52,163.261C1.112,163.329 0.801,163.378 0.593,163.411C0.489,163.427 0.41,163.439 0.359,163.447C0.333,163.451 0.313,163.454 0.301,163.456C0.295,163.457 0.29,163.458 0.287,163.458C0.286,163.458 0.285,163.458 0.284,163.459C0.284,163.459 0.283,163.459 0.477,164.766ZM141.939,80.676C155.334,48.792 189.937,29.258 221.549,17.688C237.311,11.919 252.231,8.165 263.215,5.853C268.705,4.698 273.207,3.903 276.333,3.398C277.897,3.146 279.117,2.966 279.943,2.849C280.357,2.79 280.671,2.748 280.883,2.72C280.987,2.706 281.067,2.696 281.119,2.689C281.147,2.686 281.165,2.683 281.179,2.682C281.185,2.681 281.189,2.68 281.193,2.68C281.195,2.68 281.195,2.68 281.195,2.679C281.197,2.679 281.197,2.679 281.035,1.368C280.873,0.057 280.873,0.057 280.871,0.057C280.871,0.057 280.869,0.057 280.867,0.058C280.863,0.058 280.857,0.059 280.849,0.06C280.835,0.062 280.813,0.064 280.785,0.068C280.729,0.075 280.645,0.086 280.537,0.1C280.317,0.129 279.995,0.173 279.573,0.232C278.731,0.352 277.493,0.534 275.913,0.79C272.749,1.301 268.205,2.102 262.669,3.268C251.601,5.597 236.553,9.383 220.641,15.207C188.906,26.822 153.353,46.686 139.503,79.652L141.939,80.676Z" fill="#2C698D"/>
<path d="M151.99,86.107L150.773,85.594L150.773,85.594L151.99,86.107ZM0.477,177.13C0.668,178.437 0.668,178.437 0.67,178.437C0.671,178.437 0.672,178.437 0.675,178.436C0.679,178.436 0.685,178.435 0.692,178.434C0.708,178.432 0.731,178.428 0.761,178.424C0.821,178.415 0.91,178.401 1.026,178.383C1.259,178.347 1.604,178.292 2.053,178.218C2.953,178.07 4.272,177.843 5.96,177.529C9.337,176.9 14.19,175.921 20.107,174.516C31.94,171.706 48.046,167.192 65.128,160.372C99.22,146.76 137.532,123.831 153.208,86.62L150.773,85.594C135.527,121.786 98.083,144.369 64.148,157.918C47.217,164.678 31.242,169.156 19.497,171.945C13.626,173.339 8.816,174.309 5.477,174.931C3.807,175.242 2.506,175.465 1.623,175.611C1.182,175.684 0.846,175.737 0.621,175.772C0.508,175.789 0.423,175.802 0.367,175.811C0.339,175.815 0.318,175.818 0.305,175.82C0.298,175.821 0.293,175.822 0.29,175.822C0.288,175.822 0.287,175.823 0.286,175.823C0.286,175.823 0.286,175.823 0.477,177.13ZM153.208,86.62C167.701,52.229 205.129,31.209 239.291,18.779C256.329,12.581 272.457,8.554 284.327,6.077C290.261,4.839 295.129,3.989 298.509,3.448C300.199,3.178 301.517,2.986 302.411,2.861C302.857,2.798 303.199,2.753 303.427,2.723C303.541,2.708 303.627,2.697 303.683,2.69C303.713,2.686 303.733,2.684 303.747,2.682C303.755,2.681 303.759,2.681 303.763,2.68C303.765,2.68 303.765,2.68 303.765,2.68C303.767,2.68 303.767,2.68 303.607,1.368C303.447,0.057 303.447,0.057 303.445,0.057C303.445,0.057 303.443,0.057 303.441,0.058C303.437,0.058 303.431,0.059 303.423,0.06C303.407,0.062 303.383,0.065 303.353,0.068C303.293,0.076 303.203,0.087 303.085,0.103C302.849,0.134 302.501,0.18 302.045,0.244C301.135,0.371 299.799,0.566 298.091,0.839C294.675,1.385 289.767,2.243 283.787,3.49C271.831,5.985 255.575,10.043 238.389,16.296C204.105,28.77 165.723,50.118 150.773,85.594L153.208,86.62Z" fill="#2C698D"/>
<path d="M163.294,92.049L164.511,92.563L164.511,92.563L163.294,92.049ZM0.477,189.53C0.666,190.838 0.667,190.838 0.668,190.837C0.669,190.837 0.671,190.837 0.673,190.837C0.678,190.836 0.684,190.835 0.693,190.834C0.709,190.831 0.734,190.828 0.766,190.823C0.83,190.813 0.925,190.799 1.051,190.78C1.301,190.741 1.671,190.683 2.154,190.604C3.119,190.446 4.537,190.204 6.35,189.868C9.977,189.198 15.191,188.152 21.548,186.651C34.261,183.649 51.563,178.824 69.915,171.527C106.544,156.962 147.684,132.42 164.511,92.563L162.076,91.535C145.68,130.371 105.411,154.569 68.938,169.072C50.738,176.309 33.566,181.099 20.941,184.079C14.63,185.569 9.46,186.606 5.87,187.27C4.075,187.602 2.675,187.841 1.726,187.996C1.252,188.074 0.89,188.131 0.648,188.168C0.527,188.187 0.436,188.201 0.375,188.21C0.345,188.214 0.323,188.218 0.308,188.22C0.3,188.221 0.295,188.222 0.291,188.222C0.29,188.222 0.289,188.222 0.288,188.223C0.287,188.223 0.287,188.223 0.477,189.53ZM164.511,92.563C180.085,55.666 220.329,33.159 257.039,19.871C275.349,13.243 292.683,8.943 305.441,6.301C311.819,4.98 317.049,4.074 320.683,3.498C322.501,3.211 323.917,3.006 324.879,2.873C325.359,2.806 325.725,2.758 325.971,2.726C326.093,2.71 326.187,2.699 326.247,2.691C326.279,2.687 326.301,2.684 326.315,2.682C326.323,2.682 326.329,2.681 326.333,2.68C326.335,2.68 326.335,2.68 326.337,2.68C326.337,2.68 326.337,2.68 326.179,1.368C326.021,0.056 326.021,0.057 326.019,0.057C326.019,0.057 326.017,0.057 326.015,0.057C326.009,0.058 326.003,0.059 325.995,0.06C325.977,0.062 325.953,0.065 325.921,0.069C325.855,0.077 325.759,0.089 325.633,0.105C325.379,0.138 325.005,0.188 324.517,0.255C323.539,0.39 322.105,0.598 320.271,0.888C316.601,1.47 311.329,2.383 304.905,3.713C292.061,6.373 274.601,10.704 256.139,17.386C219.309,30.718 178.11,53.552 162.076,91.535L164.511,92.563Z" fill="#2C698D"/>
<path d="M174.562,97.991L175.779,98.506L175.779,98.506L174.562,97.991ZM0.477,201.896C0.665,203.204 0.665,203.204 0.667,203.204C0.668,203.204 0.67,203.204 0.672,203.204C0.677,203.202 0.684,203.202 0.693,203.2C0.71,203.198 0.737,203.194 0.771,203.188C0.84,203.178 0.941,203.164 1.075,203.142C1.342,203.102 1.737,203.04 2.253,202.956C3.285,202.788 4.8,202.532 6.738,202.176C10.615,201.464 16.188,200.353 22.984,198.758C36.573,195.568 55.068,190.435 74.684,182.666C113.843,167.157 157.801,141.009 175.779,98.506L173.346,97.477C155.799,138.957 112.714,164.762 73.711,180.209C54.246,187.919 35.881,193.016 22.38,196.186C15.631,197.77 10.101,198.872 6.261,199.577C4.341,199.93 2.844,200.184 1.829,200.349C1.322,200.431 0.935,200.492 0.675,200.531C0.546,200.551 0.448,200.566 0.383,200.575C0.351,200.58 0.327,200.584 0.311,200.586C0.303,200.587 0.297,200.588 0.293,200.588C0.292,200.589 0.29,200.589 0.289,200.589C0.289,200.589 0.289,200.589 0.477,201.896ZM175.779,98.506C192.453,59.085 235.521,35.092 274.783,20.949C294.367,13.894 312.907,9.325 326.555,6.52C333.377,5.117 338.971,4.157 342.857,3.547C344.801,3.242 346.317,3.025 347.345,2.884C347.859,2.814 348.251,2.763 348.515,2.729C348.647,2.712 348.745,2.7 348.811,2.692C348.843,2.688 348.869,2.685 348.885,2.683C348.893,2.682 348.899,2.681 348.903,2.681C348.905,2.68 348.905,2.68 348.907,2.68C348.907,2.68 348.907,2.68 348.751,1.368C348.595,0.056 348.595,0.056 348.593,0.056C348.591,0.057 348.589,0.057 348.587,0.057C348.583,0.058 348.575,0.059 348.567,0.06C348.549,0.062 348.523,0.065 348.487,0.069C348.419,0.078 348.315,0.091 348.181,0.108C347.909,0.142 347.509,0.195 346.987,0.266C345.943,0.409 344.409,0.629 342.449,0.936C338.525,1.552 332.889,2.52 326.023,3.931C312.291,6.754 293.623,11.354 273.887,18.463C234.507,32.649 190.479,56.968 173.346,97.477L175.779,98.506Z" fill="#2C698D"/>
<path d="M185.866,103.899L184.649,103.384L184.649,103.384L185.866,103.899ZM0.477,214.26C0.663,215.568 0.664,215.568 0.666,215.568C0.667,215.568 0.669,215.568 0.671,215.568C0.676,215.566 0.684,215.566 0.693,215.564C0.712,215.562 0.74,215.558 0.776,215.552C0.849,215.542 0.957,215.526 1.099,215.504C1.384,215.46 1.804,215.396 2.354,215.306C3.452,215.13 5.065,214.858 7.128,214.482C11.256,213.728 17.189,212.552 24.425,210.862C38.894,207.482 58.586,202.042 79.471,193.799C121.168,177.342 167.952,149.58 187.082,104.415L184.649,103.384C165.953,147.526 120.043,174.945 78.501,191.341C57.767,199.525 38.205,204.93 23.824,208.288C16.635,209.968 10.744,211.136 6.654,211.882C4.609,212.256 3.014,212.524 1.932,212.698C1.392,212.786 0.979,212.85 0.703,212.892C0.565,212.912 0.46,212.928 0.391,212.938C0.357,212.944 0.331,212.946 0.314,212.95C0.306,212.95 0.299,212.952 0.295,212.952C0.293,212.952 0.292,212.952 0.291,212.952C0.29,212.952 0.29,212.952 0.477,214.26ZM187.082,104.415C204.837,62.504 250.721,37.034 292.531,22.036C313.389,14.553 333.135,9.713 347.669,6.743C354.935,5.258 360.893,4.241 365.033,3.597C367.103,3.274 368.717,3.045 369.813,2.896C370.361,2.822 370.779,2.767 371.059,2.732C371.199,2.714 371.305,2.701 371.375,2.693C371.411,2.688 371.437,2.685 371.453,2.683C371.463,2.682 371.469,2.681 371.473,2.681C371.475,2.681 371.477,2.681 371.477,2.68C371.477,2.68 371.479,2.68 371.323,1.368C371.169,0.056 371.167,0.056 371.167,0.056C371.165,0.056 371.163,0.057 371.161,0.057C371.155,0.058 371.149,0.058 371.139,0.06C371.119,0.062 371.091,0.065 371.055,0.07C370.981,0.079 370.871,0.092 370.727,0.111C370.439,0.147 370.015,0.202 369.459,0.278C368.347,0.428 366.715,0.66 364.627,0.986C360.451,1.636 354.451,2.66 347.139,4.154C332.521,7.141 312.647,12.012 291.639,19.549C249.711,34.589 202.867,60.384 184.649,103.384L187.082,104.415Z" fill="#2C698D"/>
<path d="M197.169,109.876L198.385,110.392L198.386,110.392L197.169,109.876ZM0.477,226.66C0.662,227.968 0.663,227.968 0.665,227.968C0.666,227.968 0.668,227.968 0.671,227.968C0.676,227.966 0.684,227.966 0.694,227.964C0.714,227.962 0.743,227.958 0.782,227.952C0.859,227.94 0.974,227.924 1.124,227.9C1.426,227.854 1.872,227.786 2.454,227.692C3.619,227.506 5.33,227.218 7.519,226.822C11.897,226.026 18.19,224.784 25.866,222.998C41.215,219.426 62.104,213.676 84.258,204.958C128.492,187.553 178.104,158.185 198.385,110.392L195.953,109.36C176.106,156.129 127.371,185.154 83.291,202.5C61.288,211.158 40.528,216.874 25.267,220.424C17.638,222.2 11.387,223.432 7.046,224.222C4.876,224.616 3.183,224.9 2.035,225.084C1.461,225.176 1.023,225.244 0.73,225.288C0.583,225.31 0.472,225.326 0.399,225.338C0.362,225.342 0.335,225.346 0.317,225.35C0.308,225.35 0.301,225.352 0.297,225.352C0.294,225.352 0.293,225.352 0.292,225.352C0.291,225.352 0.291,225.352 0.477,226.66ZM198.386,110.392C217.223,65.957 265.915,38.992 310.261,23.131C332.389,15.217 353.337,10.103 368.755,6.967C376.463,5.399 382.785,4.327 387.177,3.647C389.373,3.306 391.087,3.065 392.249,2.908C392.831,2.829 393.273,2.772 393.571,2.735C393.719,2.716 393.831,2.703 393.907,2.694C393.943,2.689 393.971,2.686 393.989,2.684C393.999,2.682 394.005,2.682 394.009,2.681C394.013,2.681 394.013,2.681 394.015,2.681C394.015,2.68 394.015,2.68 393.863,1.368C393.709,0.056 393.707,0.056 393.707,0.056C393.705,0.056 393.703,0.057 393.701,0.057C393.695,0.058 393.687,0.058 393.677,0.06C393.657,0.062 393.627,0.066 393.589,0.07C393.509,0.08 393.395,0.094 393.241,0.113C392.937,0.152 392.485,0.21 391.895,0.289C390.717,0.448 388.987,0.692 386.773,1.035C382.345,1.721 375.981,2.8 368.229,4.377C352.725,7.53 331.651,12.675 309.373,20.643C264.907,36.546 215.253,63.835 195.953,109.36L198.386,110.392Z" fill="#2C698D"/>
<path d="M208.439,115.784L209.655,116.301L209.655,116.3L208.439,115.784ZM0.477,239.028C0.661,240.336 0.662,240.336 0.664,240.336C0.665,240.336 0.667,240.334 0.67,240.334C0.676,240.334 0.684,240.332 0.694,240.33C0.715,240.328 0.746,240.324 0.787,240.318C0.869,240.306 0.99,240.288 1.149,240.264C1.467,240.216 1.939,240.144 2.554,240.046C3.786,239.848 5.593,239.548 7.907,239.128C12.535,238.292 19.188,236.984 27.302,235.104C43.528,231.344 65.61,225.286 89.029,216.092C135.792,197.738 188.221,166.756 209.655,116.301L207.223,115.267C186.225,164.698 134.673,195.339 88.063,213.634C64.796,222.766 42.843,228.79 26.705,232.53C18.638,234.4 12.028,235.698 7.437,236.528C5.142,236.944 3.352,237.242 2.137,237.436C1.53,237.534 1.067,237.604 0.756,237.65C0.601,237.674 0.484,237.692 0.406,237.702C0.367,237.708 0.338,237.712 0.319,237.716C0.31,237.716 0.303,237.718 0.298,237.718C0.296,237.718 0.294,237.718 0.293,237.718C0.292,237.72 0.292,237.72 0.477,239.028ZM209.655,116.3C229.591,69.359 281.107,40.917 328.005,24.205C351.409,15.866 373.563,10.483 389.869,7.185C398.021,5.536 404.707,4.409 409.353,3.695C411.675,3.338 413.487,3.084 414.717,2.919C415.333,2.837 415.801,2.777 416.115,2.738C416.273,2.718 416.391,2.704 416.471,2.694C416.511,2.69 416.539,2.686 416.559,2.684C416.569,2.683 416.575,2.682 416.581,2.681C416.583,2.681 416.585,2.681 416.585,2.681C416.587,2.681 416.587,2.681 416.435,1.368C416.283,0.056 416.281,0.056 416.279,0.056C416.279,0.056 416.277,0.056 416.273,0.057C416.267,0.057 416.259,0.058 416.249,0.06C416.229,0.062 416.197,0.066 416.155,0.071C416.073,0.081 415.951,0.096 415.789,0.116C415.467,0.156 414.989,0.217 414.367,0.3C413.121,0.467 411.291,0.723 408.951,1.083C404.269,1.803 397.543,2.937 389.345,4.595C372.955,7.91 350.673,13.323 327.119,21.716C280.103,38.469 227.621,67.234 207.223,115.268L209.655,116.3Z" fill="#2C698D"/>
<path d="M219.743,121.726L220.957,122.243L220.957,122.243L219.743,121.726ZM0.477,251.394C0.66,252.702 0.661,252.702 0.663,252.702C0.664,252.702 0.667,252.702 0.67,252.702C0.675,252.7 0.684,252.7 0.695,252.698C0.717,252.694 0.75,252.69 0.793,252.684C0.879,252.67 1.006,252.652 1.174,252.628C1.509,252.578 2.006,252.502 2.655,252.398C3.953,252.192 5.858,251.876 8.298,251.436C13.176,250.558 20.189,249.186 28.744,247.212C45.849,243.262 69.128,236.896 93.816,227.232C143.117,207.932 198.373,175.345 220.957,122.243L218.527,121.209C196.378,173.285 142.001,205.53 92.853,224.77C68.316,234.376 45.166,240.708 28.149,244.636C19.642,246.6 12.67,247.964 7.829,248.836C5.409,249.272 3.521,249.584 2.24,249.788C1.6,249.89 1.111,249.964 0.783,250.014C0.62,250.038 0.496,250.056 0.414,250.068C0.373,250.074 0.342,250.078 0.322,250.082C0.312,250.082 0.304,250.084 0.3,250.084C0.297,250.086 0.295,250.086 0.294,250.086C0.293,250.086 0.293,250.086 0.477,251.394ZM220.957,122.243C241.975,72.795 296.307,42.867 345.755,25.296C370.431,16.527 393.791,10.872 410.985,7.408C419.579,5.677 426.629,4.494 431.529,3.745C433.977,3.37 435.889,3.104 437.185,2.931C437.835,2.845 438.329,2.782 438.661,2.741C438.827,2.72 438.953,2.705 439.035,2.695C439.077,2.69 439.109,2.687 439.129,2.684C439.139,2.683 439.147,2.682 439.151,2.681C439.155,2.681 439.155,2.681 439.157,2.681C439.157,2.681 439.159,2.681 439.007,1.368C438.855,0.056 438.855,0.056 438.853,0.056C438.851,0.056 438.849,0.056 438.847,0.057C438.841,0.057 438.831,0.058 438.821,0.06C438.799,0.062 438.765,0.066 438.721,0.071C438.635,0.082 438.505,0.097 438.337,0.118C437.997,0.161 437.493,0.224 436.837,0.312C435.525,0.486 433.597,0.755 431.129,1.133C426.195,1.888 419.103,3.077 410.463,4.818C393.185,8.298 369.697,13.984 344.869,22.806C295.307,40.418 240.009,70.668 218.527,121.209L220.957,122.243Z" fill="#2C698D"/>
<path d="M231.011,127.669L229.795,127.151L229.795,127.152L231.011,127.669ZM0.477,263.794C0.659,265.102 0.66,265.102 0.662,265.102C0.664,265.102 0.666,265.102 0.669,265.102C0.675,265.1 0.684,265.1 0.696,265.098C0.719,265.094 0.753,265.09 0.798,265.082C0.889,265.07 1.023,265.05 1.199,265.024C1.552,264.972 2.074,264.892 2.756,264.784C4.12,264.568 6.123,264.238 8.688,263.778C13.817,262.858 21.191,261.42 30.184,259.352C48.169,255.212 72.644,248.538 98.599,238.4C150.434,218.15 208.509,183.949 232.227,128.186L229.795,127.152C206.513,181.888 149.32,215.748 97.638,235.938C71.834,246.018 47.489,252.658 29.592,256.776C20.645,258.836 13.313,260.264 8.221,261.176C5.676,261.634 3.69,261.962 2.343,262.174C1.669,262.282 1.155,262.36 0.81,262.41C0.638,262.436 0.508,262.454 0.421,262.468C0.378,262.474 0.346,262.478 0.324,262.482C0.314,262.482 0.306,262.484 0.301,262.484C0.298,262.486 0.297,262.486 0.295,262.486C0.294,262.486 0.294,262.486 0.477,263.794ZM232.227,128.186C254.343,76.231 311.501,44.816 363.499,26.387C389.451,17.189 414.017,11.26 432.099,7.632C441.137,5.818 448.553,4.579 453.705,3.794C456.281,3.402 458.291,3.123 459.655,2.943C460.337,2.852 460.857,2.787 461.207,2.744C461.381,2.722 461.513,2.706 461.601,2.696C461.645,2.691 461.677,2.687 461.699,2.684C461.709,2.683 461.717,2.682 461.723,2.682C461.725,2.681 461.727,2.681 461.729,2.681C461.729,2.681 461.729,2.681 461.579,1.368C461.429,0.056 461.427,0.056 461.427,0.056C461.425,0.056 461.423,0.056 461.419,0.057C461.413,0.057 461.405,0.058 461.393,0.06C461.369,0.063 461.335,0.067 461.289,0.072C461.197,0.083 461.061,0.099 460.883,0.121C460.527,0.165 459.997,0.232 459.307,0.323C457.927,0.506 455.901,0.787 453.307,1.182C448.119,1.972 440.663,3.218 431.579,5.041C413.413,8.687 388.719,14.645 362.615,23.897C310.503,42.366 252.377,74.102 229.795,127.151L232.227,128.186Z" fill="#2C698D"/>
<path d="M242.315,133.611L243.529,134.129L243.529,134.129L242.315,133.611ZM0.477,276.158C0.659,277.466 0.66,277.466 0.662,277.466C0.663,277.466 0.666,277.466 0.669,277.466C0.675,277.464 0.684,277.464 0.697,277.462C0.721,277.458 0.757,277.452 0.804,277.446C0.899,277.432 1.039,277.412 1.224,277.384C1.594,277.33 2.141,277.246 2.857,277.134C4.287,276.908 6.388,276.562 9.077,276.082C14.456,275.12 22.189,273.616 31.621,271.452C50.483,267.12 76.152,260.138 103.374,249.524C157.742,228.326 218.643,192.521 243.529,134.129L241.099,133.093C216.649,190.458 156.631,225.924 102.414,247.062C75.344,257.616 49.804,264.566 31.03,268.876C21.645,271.03 13.953,272.524 8.612,273.48C5.941,273.958 3.858,274.3 2.444,274.524C1.738,274.636 1.198,274.718 0.837,274.77C0.656,274.798 0.519,274.818 0.428,274.83C0.383,274.838 0.349,274.842 0.327,274.846C0.315,274.846 0.307,274.848 0.302,274.848C0.299,274.848 0.297,274.85 0.296,274.85C0.295,274.85 0.294,274.85 0.477,276.158ZM243.529,134.129C266.729,79.649 326.695,46.749 381.231,27.465C408.451,17.84 434.219,11.642 453.185,7.85C462.667,5.955 470.445,4.662 475.849,3.843C478.551,3.433 480.659,3.142 482.089,2.954C482.805,2.86 483.351,2.791 483.719,2.747C483.901,2.724 484.039,2.708 484.131,2.697C484.177,2.691 484.213,2.687 484.235,2.685C484.247,2.683 484.255,2.682 484.261,2.682C484.263,2.681 484.265,2.681 484.267,2.681C484.267,2.681 484.267,2.681 484.119,1.368C483.969,0.055 483.967,0.056 483.965,0.056C483.965,0.056 483.961,0.056 483.959,0.057C483.953,0.057 483.943,0.058 483.931,0.06C483.905,0.063 483.869,0.067 483.821,0.073C483.727,0.084 483.585,0.101 483.397,0.124C483.023,0.17 482.469,0.239 481.745,0.334C480.297,0.525 478.173,0.818 475.453,1.23C470.013,2.055 462.195,3.355 452.667,5.259C433.617,9.068 407.721,15.295 380.349,24.974C325.699,44.298 264.763,77.519 241.099,133.093L243.529,134.129Z" fill="#2C698D"/>
</svg>
