<svg width="896" height="514" viewBox="0 0 896 514" fill="none" xmlns="http://www.w3.org/2000/svg" xmlns:xlink="http://www.w3.org/1999/xlink">
<path d="M92.733,60.92L95.004,61.824L95.005,61.822L92.733,60.92ZM0.399,122.102C0.845,124.505 0.845,124.505 0.847,124.505C0.848,124.505 0.849,124.504 0.851,124.504C0.854,124.504 0.858,124.503 0.863,124.502C0.874,124.5 0.889,124.497 0.909,124.493C0.948,124.486 1.004,124.475 1.078,124.461C1.225,124.432 1.44,124.389 1.719,124.332C2.278,124.218 3.092,124.045 4.132,123.808C6.211,123.335 9.192,122.608 12.825,121.587C20.085,119.545 29.972,116.32 40.47,111.584C61.354,102.16 85.176,86.521 95.004,61.824L90.463,60.017C81.354,82.906 59.008,97.857 38.46,107.129C28.241,111.739 18.595,114.887 11.502,116.882C7.958,117.879 5.057,118.586 3.048,119.042C2.044,119.271 1.264,119.436 0.737,119.544C0.474,119.598 0.275,119.638 0.143,119.663C0.077,119.676 0.028,119.686 -0.003,119.692C-0.019,119.695 -0.031,119.697 -0.038,119.698C-0.041,119.699 -0.044,119.699 -0.045,119.699C-0.046,119.7 -0.046,119.7 -0.046,119.7C-0.046,119.7 -0.046,119.7 0.399,122.102ZM95.005,61.822C103.68,39.972 126.053,25.837 146.827,17.129C157.146,12.804 166.918,9.88 174.115,8.039C177.71,7.119 180.656,6.47 182.697,6.053C183.718,5.844 184.512,5.693 185.047,5.595C185.315,5.546 185.518,5.51 185.652,5.487C185.719,5.475 185.769,5.467 185.801,5.461C185.818,5.459 185.829,5.457 185.837,5.455C185.84,5.455 185.843,5.454 185.844,5.454C185.845,5.454 185.845,5.454 185.845,5.454C185.845,5.454 185.845,5.454 185.449,3.043C185.052,0.631 185.051,0.631 185.05,0.632C185.049,0.632 185.048,0.632 185.046,0.632C185.043,0.633 185.039,0.633 185.034,0.634C185.023,0.636 185.007,0.639 184.988,0.642C184.948,0.649 184.891,0.659 184.816,0.671C184.667,0.697 184.449,0.736 184.166,0.788C183.6,0.892 182.773,1.049 181.718,1.264C179.609,1.696 176.585,2.362 172.903,3.304C165.545,5.187 155.534,8.18 144.938,12.622C123.882,21.448 99.898,36.252 90.462,60.019L95.005,61.822Z" fill="#2C698D"/>
<path d="M113.64,71.848L115.906,72.763L115.907,72.762L113.64,71.848ZM0.399,144.974C0.819,147.381 0.82,147.381 0.821,147.381C0.822,147.38 0.824,147.38 0.826,147.38C0.829,147.379 0.834,147.378 0.841,147.377C0.854,147.375 0.872,147.372 0.895,147.367C0.942,147.359 1.011,147.347 1.1,147.33C1.279,147.297 1.541,147.248 1.881,147.182C2.563,147.05 3.558,146.85 4.83,146.576C7.372,146.027 11.02,145.18 15.466,143.984C24.354,141.593 36.455,137.8 49.3,132.188C74.874,121.014 103.939,102.395 115.906,72.763L111.374,70.933C100.147,98.735 72.591,116.678 47.344,127.709C34.778,133.199 22.918,136.918 14.197,139.264C9.839,140.437 6.271,141.265 3.798,141.798C2.562,142.065 1.6,142.258 0.951,142.384C0.627,142.447 0.38,142.493 0.217,142.523C0.135,142.538 0.074,142.549 0.034,142.557C0.014,142.56 0,142.563 -0.009,142.564C-0.014,142.565 -0.017,142.566 -0.019,142.566C-0.02,142.566 -0.02,142.566 -0.02,142.566C-0.02,142.566 -0.02,142.566 0.399,144.974ZM115.907,72.762C126.572,46.319 154.135,29.445 179.628,19.151C192.301,14.033 204.303,10.605 213.141,8.458C217.559,7.385 221.179,6.633 223.687,6.15C224.943,5.909 225.919,5.735 226.579,5.622C226.909,5.565 227.159,5.524 227.327,5.497C227.409,5.483 227.471,5.473 227.513,5.467C227.533,5.464 227.547,5.461 227.557,5.46C227.561,5.459 227.565,5.459 227.567,5.459C227.567,5.458 227.567,5.458 227.569,5.458C227.569,5.458 227.567,5.458 227.199,3.043C226.829,0.627 226.829,0.627 226.827,0.627C226.827,0.627 226.825,0.628 226.823,0.628C226.819,0.629 226.813,0.629 226.807,0.63C226.795,0.632 226.777,0.635 226.753,0.639C226.705,0.646 226.635,0.657 226.545,0.672C226.365,0.701 226.099,0.745 225.753,0.804C225.063,0.923 224.053,1.103 222.765,1.351C220.187,1.846 216.489,2.615 211.987,3.709C202.989,5.895 190.749,9.389 177.798,14.619C152.04,25.02 122.823,42.548 111.374,70.934L115.907,72.762Z" fill="#2C698D"/>
<path d="M134.484,82.903L136.746,83.827L136.747,83.825L134.484,82.903ZM0.399,167.909C0.803,170.319 0.804,170.319 0.805,170.319C0.807,170.319 0.808,170.318 0.81,170.318C0.815,170.317 0.82,170.316 0.828,170.315C0.843,170.313 0.864,170.309 0.891,170.304C0.946,170.295 1.027,170.281 1.132,170.262C1.342,170.225 1.651,170.169 2.052,170.094C2.856,169.944 4.032,169.716 5.534,169.403C8.538,168.776 12.85,167.808 18.107,166.435C28.615,163.69 42.923,159.324 58.107,152.836C88.355,139.911 122.643,118.326 136.746,83.827L132.222,81.978C118.872,114.633 86.118,135.552 56.187,148.341C41.282,154.71 27.215,159.005 16.872,161.706C11.703,163.056 7.47,164.007 4.536,164.619C3.069,164.925 1.927,165.146 1.155,165.29C0.769,165.362 0.476,165.415 0.281,165.449C0.183,165.467 0.11,165.479 0.062,165.488C0.039,165.492 0.021,165.495 0.01,165.497C0.004,165.497 0,165.498 -0.002,165.499C-0.003,165.499 -0.004,165.499 -0.004,165.499C-0.004,165.499 -0.004,165.499 0.399,167.909ZM136.747,83.825C149.438,52.689 182.214,33.046 212.429,21.16C227.461,15.247 241.697,11.318 252.177,8.868C257.415,7.643 261.709,6.79 264.687,6.243C266.175,5.97 267.335,5.773 268.119,5.646C268.511,5.582 268.809,5.535 269.009,5.505C269.107,5.49 269.181,5.479 269.231,5.471C269.255,5.468 269.273,5.465 269.283,5.463C269.289,5.463 269.293,5.462 269.297,5.462C269.297,5.461 269.297,5.461 269.299,5.461C269.299,5.461 269.299,5.461 268.949,3.043C268.601,0.624 268.599,0.624 268.597,0.624C268.597,0.624 268.595,0.625 268.593,0.625C268.589,0.626 268.583,0.627 268.575,0.628C268.561,0.63 268.539,0.633 268.511,0.637C268.455,0.645 268.375,0.658 268.267,0.674C268.055,0.707 267.741,0.756 267.335,0.822C266.519,0.954 265.327,1.157 263.805,1.436C260.759,1.995 256.387,2.864 251.065,4.109C240.423,6.596 225.951,10.589 210.639,16.612C180.168,28.599 145.711,48.885 132.221,81.98L136.747,83.825Z" fill="#2C698D"/>
<path d="M155.391,93.83L157.65,94.761L157.651,94.759L155.391,93.83ZM0.399,190.781C0.79,193.193 0.791,193.193 0.793,193.193C0.794,193.193 0.796,193.192 0.798,193.192C0.803,193.191 0.809,193.19 0.818,193.189C0.834,193.186 0.859,193.182 0.89,193.177C0.953,193.166 1.045,193.151 1.166,193.13C1.408,193.089 1.764,193.026 2.227,192.943C3.154,192.775 4.51,192.52 6.244,192.168C9.712,191.465 14.691,190.376 20.761,188.829C32.897,185.734 49.418,180.799 66.95,173.434C101.89,158.756 141.414,134.189 157.65,94.761L153.131,92.9C137.658,130.474 99.686,154.381 65.057,168.928C47.805,176.176 31.524,181.04 19.554,184.093C13.571,185.618 8.671,186.689 5.273,187.378C3.574,187.723 2.251,187.971 1.356,188.133C0.909,188.214 0.568,188.274 0.342,188.313C0.228,188.332 0.143,188.346 0.088,188.355C0.06,188.36 0.039,188.364 0.026,188.366C0.02,188.367 0.015,188.368 0.012,188.368C0.011,188.368 0.01,188.368 0.009,188.368C0.009,188.369 0.009,188.368 0.399,190.781ZM157.651,94.759C172.338,59.024 210.313,36.644 245.243,23.175C262.631,16.471 279.097,12.039 291.219,9.283C297.277,7.906 302.245,6.949 305.691,6.337C307.415,6.032 308.757,5.812 309.665,5.669C310.121,5.598 310.467,5.546 310.697,5.512C310.811,5.495 310.899,5.483 310.955,5.475C310.983,5.471 311.005,5.468 311.017,5.466C311.025,5.465 311.029,5.464 311.033,5.464C311.033,5.463 311.035,5.463 311.035,5.463C311.035,5.463 311.035,5.463 310.699,3.043C310.365,0.622 310.363,0.622 310.361,0.622C310.361,0.623 310.359,0.623 310.355,0.623C310.351,0.624 310.345,0.625 310.337,0.626C310.319,0.628 310.295,0.632 310.263,0.636C310.199,0.645 310.105,0.659 309.983,0.677C309.739,0.713 309.377,0.767 308.909,0.841C307.969,0.989 306.595,1.213 304.837,1.525C301.323,2.149 296.279,3.121 290.135,4.517C277.855,7.309 261.151,11.803 243.485,18.615C208.307,32.179 168.629,55.193 153.131,92.901L157.651,94.759Z" fill="#2C698D"/>
<path d="M176.298,104.821L178.555,105.757L178.556,105.755L176.298,104.821ZM0.399,213.653C0.78,216.067 0.781,216.067 0.783,216.067C0.784,216.067 0.786,216.065 0.789,216.065C0.794,216.065 0.801,216.063 0.811,216.061C0.829,216.059 0.857,216.055 0.892,216.049C0.963,216.037 1.067,216.021 1.204,215.997C1.477,215.951 1.88,215.883 2.405,215.791C3.454,215.605 4.992,215.323 6.957,214.933C10.889,214.155 16.535,212.945 23.419,211.223C37.181,207.779 55.917,202.277 75.796,194.039C115.428,177.616 160.186,150.081 178.555,105.757L174.04,103.886C156.443,146.347 113.251,173.228 73.925,189.524C54.326,197.646 35.831,203.079 22.232,206.481C15.436,208.183 9.869,209.373 6.007,210.139C4.076,210.521 2.572,210.797 1.554,210.977C1.045,211.067 0.658,211.133 0.4,211.177C0.271,211.199 0.174,211.215 0.11,211.225C0.078,211.229 0.054,211.233 0.039,211.235C0.032,211.237 0.026,211.237 0.023,211.239C0.021,211.239 0.02,211.239 0.019,211.239C0.019,211.239 0.019,211.239 0.399,213.653ZM178.556,105.755C195.241,65.387 238.403,40.256 278.031,25.197C297.767,17.697 316.453,12.76 330.211,9.699C337.087,8.168 342.725,7.108 346.639,6.431C348.595,6.093 350.121,5.85 351.153,5.693C351.669,5.614 352.063,5.556 352.325,5.519C352.457,5.5 352.555,5.486 352.619,5.477C352.651,5.473 352.675,5.469 352.691,5.467C352.699,5.466 352.705,5.466 352.709,5.465C352.709,5.465 352.711,5.465 352.711,5.465C352.713,5.465 352.713,5.465 352.387,3.043C352.061,0.621 352.061,0.621 352.059,0.621C352.057,0.621 352.055,0.622 352.053,0.622C352.047,0.623 352.039,0.624 352.031,0.625C352.011,0.627 351.985,0.631 351.949,0.636C351.877,0.646 351.771,0.661 351.633,0.681C351.355,0.72 350.947,0.78 350.417,0.861C349.353,1.023 347.797,1.271 345.807,1.615C341.825,2.304 336.111,3.379 329.149,4.928C315.233,8.025 296.309,13.023 276.295,20.628C236.425,35.779 191.543,61.537 174.039,103.888L178.556,105.755Z" fill="#2C698D"/>
<path d="M197.141,115.812L199.397,116.751L199.397,116.751L197.141,115.812ZM0.399,236.587C0.772,239.003 0.773,239.003 0.775,239.003C0.776,239.003 0.779,239.001 0.782,239.001C0.787,239.001 0.795,238.999 0.806,238.997C0.827,238.995 0.857,238.989 0.896,238.983C0.975,238.971 1.092,238.953 1.244,238.927C1.549,238.877 1.998,238.803 2.584,238.701C3.756,238.497 5.474,238.189 7.67,237.761C12.063,236.905 18.374,235.575 26.069,233.679C41.453,229.885 62.395,223.813 84.613,214.699C128.922,196.521 178.896,166.002 199.397,116.751L194.885,114.873C175.162,162.255 126.764,192.124 82.758,210.177C60.82,219.177 40.118,225.181 24.899,228.933C17.291,230.809 11.06,232.121 6.736,232.963C4.574,233.385 2.89,233.687 1.75,233.885C1.179,233.985 0.745,234.057 0.455,234.105C0.31,234.127 0.201,234.145 0.13,234.157C0.094,234.163 0.067,234.167 0.05,234.169C0.041,234.171 0.035,234.171 0.031,234.173C0.029,234.173 0.028,234.173 0.027,234.173C0.027,234.173 0.027,234.173 0.399,236.587ZM199.397,116.751C218.143,71.716 266.527,43.834 310.867,27.193C332.957,18.903 353.871,13.467 369.267,10.105C376.961,8.424 383.271,7.262 387.651,6.522C389.841,6.152 391.549,5.887 392.705,5.715C393.283,5.629 393.723,5.566 394.017,5.525C394.165,5.505 394.275,5.49 394.349,5.48C394.385,5.475 394.413,5.471 394.429,5.469C394.439,5.468 394.445,5.467 394.449,5.466C394.451,5.466 394.451,5.466 394.453,5.466C394.453,5.466 394.453,5.466 394.137,3.043C393.821,0.619 393.819,0.62 393.817,0.62C393.817,0.62 393.813,0.62 393.811,0.621C393.805,0.621 393.797,0.623 393.787,0.624C393.765,0.627 393.735,0.631 393.695,0.636C393.615,0.647 393.497,0.663 393.343,0.685C393.035,0.728 392.579,0.792 391.987,0.881C390.799,1.057 389.061,1.327 386.837,1.703C382.389,2.455 376.003,3.63 368.223,5.33C352.669,8.727 331.519,14.223 309.149,22.618C264.571,39.347 214.457,67.85 194.885,114.873L199.397,116.751Z" fill="#2C698D"/>
<path d="M218.049,126.804L220.303,127.747L220.303,127.745L218.049,126.804ZM0.399,259.459C0.766,261.875 0.768,261.875 0.77,261.875C0.771,261.875 0.774,261.875 0.777,261.873C0.783,261.873 0.792,261.871 0.803,261.869C0.826,261.867 0.859,261.861 0.903,261.855C0.99,261.841 1.118,261.821 1.286,261.793C1.623,261.739 2.119,261.657 2.767,261.547C4.061,261.325 5.96,260.989 8.388,260.521C13.245,259.587 20.222,258.137 28.73,256.063C45.742,251.915 68.898,245.269 93.463,235.277C142.464,215.347 197.669,181.86 220.303,127.747L215.793,125.861C193.944,178.1 140.325,210.941 91.622,230.751C67.336,240.629 44.42,247.207 27.573,251.313C19.152,253.367 12.253,254.801 7.466,255.721C5.072,256.183 3.207,256.513 1.943,256.729C1.312,256.837 0.83,256.917 0.509,256.969C0.348,256.995 0.227,257.013 0.147,257.025C0.107,257.033 0.078,257.037 0.059,257.039C0.049,257.041 0.042,257.043 0.038,257.043C0.036,257.043 0.034,257.043 0.033,257.043C0.032,257.043 0.032,257.043 0.399,259.459ZM220.303,127.745C241.047,78.075 294.637,47.444 343.689,29.213C368.135,20.128 391.279,14.188 408.317,10.519C416.831,8.685 423.815,7.42 428.663,6.615C431.087,6.212 432.977,5.924 434.259,5.737C434.899,5.644 435.387,5.576 435.713,5.531C435.877,5.509 435.999,5.493 436.081,5.482C436.121,5.477 436.151,5.473 436.171,5.47C436.181,5.469 436.187,5.468 436.191,5.467C436.193,5.467 436.195,5.467 436.197,5.467C436.197,5.467 436.197,5.467 435.887,3.043C435.577,0.619 435.577,0.619 435.575,0.619C435.573,0.619 435.571,0.62 435.567,0.62C435.561,0.621 435.553,0.622 435.541,0.623C435.517,0.626 435.483,0.631 435.439,0.637C435.351,0.648 435.223,0.666 435.051,0.689C434.711,0.735 434.209,0.805 433.553,0.901C432.243,1.092 430.321,1.385 427.863,1.794C422.947,2.61 415.887,3.889 407.287,5.741C390.091,9.444 366.711,15.444 341.987,24.632C292.701,42.949 237.371,74.198 215.793,125.862L220.303,127.745Z" fill="#2C698D"/>
<path d="M238.891,137.731L236.637,136.786L236.637,136.787L238.891,137.731ZM0.399,282.331C0.761,284.749 0.762,284.747 0.764,284.747C0.766,284.747 0.769,284.747 0.772,284.747C0.779,284.745 0.789,284.743 0.801,284.743C0.826,284.739 0.862,284.733 0.909,284.725C1.005,284.711 1.145,284.689 1.329,284.659C1.697,284.601 2.24,284.513 2.949,284.393C4.367,284.155 6.446,283.789 9.106,283.285C14.426,282.275 22.071,280.703 31.392,278.453C50.029,273.955 75.398,266.741 102.307,255.873C155.993,234.187 216.413,197.716 241.145,138.676L236.637,136.787C212.693,193.948 153.867,229.775 100.477,251.341C73.847,262.097 48.719,269.245 30.245,273.703C21.011,275.931 13.446,277.487 8.195,278.483C5.57,278.981 3.523,279.341 2.137,279.575C1.444,279.691 0.915,279.777 0.562,279.833C0.385,279.861 0.253,279.881 0.165,279.895C0.121,279.901 0.088,279.907 0.067,279.911C0.056,279.911 0.049,279.913 0.044,279.913C0.041,279.913 0.04,279.915 0.039,279.915C0.038,279.915 0.038,279.915 0.399,282.331ZM241.145,138.677C263.919,84.403 322.731,51.037 376.505,31.225C403.311,21.349 428.687,14.906 447.365,10.932C456.703,8.946 464.359,7.578 469.677,6.707C472.335,6.272 474.409,5.961 475.813,5.76C476.517,5.659 477.051,5.585 477.411,5.537C477.589,5.513 477.725,5.495 477.813,5.484C477.857,5.478 477.891,5.474 477.913,5.471C477.923,5.47 477.931,5.469 477.937,5.468C477.939,5.468 477.941,5.468 477.941,5.467C477.943,5.467 477.943,5.467 477.639,3.043C477.333,0.618 477.333,0.618 477.331,0.618C477.329,0.619 477.325,0.619 477.323,0.619C477.315,0.62 477.307,0.621 477.293,0.623C477.269,0.626 477.233,0.631 477.185,0.637C477.087,0.65 476.947,0.668 476.759,0.693C476.387,0.743 475.837,0.819 475.119,0.922C473.685,1.128 471.579,1.444 468.887,1.884C463.503,2.766 455.771,4.148 446.349,6.152C427.511,10.159 401.899,16.661 374.815,26.639C320.813,46.535 260.251,80.513 236.637,136.786L241.145,138.677Z" fill="#2C698D"/>
<path d="M259.799,148.786L262.051,149.733L262.051,149.732L259.799,148.786ZM0.399,305.267C0.757,307.685 0.758,307.685 0.76,307.683C0.762,307.683 0.765,307.683 0.769,307.683C0.776,307.681 0.786,307.679 0.8,307.677C0.826,307.673 0.866,307.667 0.917,307.661C1.02,307.645 1.172,307.621 1.372,307.589C1.772,307.527 2.362,307.433 3.132,307.305C4.672,307.047 6.932,306.655 9.823,306.113C15.605,305.025 23.914,303.335 34.046,300.911C54.306,296.063 81.883,288.281 111.135,276.539C169.507,253.107 235.155,213.667 262.051,149.733L257.545,147.838C231.443,209.891 167.393,248.689 109.314,272.003C80.342,283.633 53.006,291.349 32.909,296.157C22.863,298.561 14.633,300.235 8.92,301.309C6.064,301.845 3.838,302.231 2.329,302.483C1.574,302.609 0.999,302.701 0.614,302.761C0.422,302.791 0.277,302.813 0.181,302.829C0.133,302.835 0.098,302.841 0.075,302.845C0.063,302.847 0.054,302.847 0.049,302.849C0.046,302.849 0.045,302.849 0.043,302.849C0.042,302.849 0.042,302.849 0.399,305.267ZM262.051,149.732C286.827,90.759 350.829,54.629 409.299,33.228C438.451,22.558 466.049,15.614 486.365,11.338C496.519,9.201 504.847,7.732 510.631,6.798C513.521,6.331 515.777,5.997 517.307,5.781C518.071,5.673 518.653,5.594 519.043,5.543C519.239,5.517 519.385,5.498 519.483,5.486C519.531,5.48 519.567,5.475 519.591,5.472C519.603,5.471 519.611,5.469 519.617,5.469C519.621,5.468 519.621,5.468 519.623,5.468C519.625,5.468 519.625,5.468 519.325,3.043C519.027,0.617 519.025,0.617 519.023,0.618C519.021,0.618 519.017,0.618 519.015,0.619C519.007,0.62 518.997,0.621 518.983,0.623C518.955,0.626 518.917,0.631 518.865,0.638C518.759,0.651 518.607,0.671 518.403,0.698C517.999,0.751 517.401,0.832 516.623,0.942C515.063,1.162 512.777,1.5 509.851,1.973C504.001,2.918 495.597,4.401 485.357,6.556C464.885,10.865 437.049,17.866 407.619,28.638C348.923,50.122 283.163,86.863 257.545,147.839L262.051,149.732Z" fill="#2C698D"/>
<path d="M280.643,159.777L278.391,158.828L278.391,158.828L280.643,159.777ZM0.399,328.137C0.753,330.555 0.754,330.555 0.757,330.555C0.759,330.553 0.762,330.553 0.766,330.553C0.773,330.551 0.784,330.549 0.799,330.547C0.828,330.543 0.87,330.537 0.925,330.529C1.036,330.513 1.2,330.487 1.416,330.453C1.847,330.387 2.485,330.285 3.316,330.149C4.979,329.875 7.42,329.455 10.543,328.873C16.788,327.711 25.763,325.899 36.709,323.301C58.595,318.105 88.384,309.755 119.98,297.139C183.037,271.963 253.901,229.553 282.895,160.726L278.391,158.828C250.191,225.771 180.934,267.541 118.168,292.601C86.852,305.105 57.303,313.389 35.58,318.545C24.721,321.123 15.824,322.919 9.648,324.069C6.56,324.643 4.153,325.057 2.521,325.327C1.705,325.461 1.082,325.559 0.666,325.625C0.458,325.657 0.301,325.681 0.197,325.697C0.145,325.703 0.107,325.709 0.081,325.713C0.069,325.715 0.06,325.717 0.054,325.717C0.051,325.717 0.049,325.719 0.047,325.719C0.046,325.719 0.046,325.719 0.399,328.137ZM282.893,160.726C309.701,97.117 378.927,58.237 442.117,35.247C473.629,23.782 503.459,16.334 525.415,11.752C536.391,9.462 545.393,7.889 551.645,6.89C554.771,6.39 557.209,6.034 558.863,5.803C559.689,5.688 560.319,5.604 560.741,5.549C560.953,5.521 561.111,5.501 561.217,5.488C561.269,5.481 561.309,5.476 561.335,5.473C561.347,5.471 561.357,5.47 561.363,5.469C561.367,5.469 561.369,5.469 561.369,5.469C561.371,5.468 561.371,5.468 561.075,3.043C560.781,0.617 560.779,0.617 560.777,0.617C560.775,0.618 560.771,0.618 560.767,0.618C560.759,0.619 560.749,0.621 560.733,0.623C560.705,0.626 560.663,0.631 560.607,0.639C560.493,0.653 560.327,0.674 560.109,0.702C559.673,0.759 559.029,0.845 558.187,0.963C556.503,1.198 554.033,1.559 550.873,2.064C544.555,3.074 535.477,4.66 524.417,6.968C502.303,11.582 472.235,19.088 440.445,30.654C377.033,53.725 306.043,93.212 278.391,158.828L282.893,160.726Z" fill="#2C698D"/>
<path d="M301.549,170.768L303.801,171.718L303.801,171.718L301.549,170.768ZM0.399,351.073C0.75,353.491 0.752,353.491 0.754,353.489C0.756,353.489 0.76,353.489 0.764,353.489C0.772,353.487 0.784,353.485 0.799,353.483C0.83,353.479 0.875,353.473 0.935,353.463C1.054,353.445 1.23,353.419 1.461,353.383C1.924,353.311 2.608,353.205 3.501,353.057C5.288,352.765 7.909,352.317 11.263,351.697C17.972,350.457 27.615,348.523 39.374,345.747C62.888,340.195 94.89,331.269 128.833,317.773C196.584,290.833 272.677,245.439 303.801,171.718L299.297,169.817C268.971,241.649 194.489,286.407 127.028,313.231C93.364,326.617 61.602,335.477 38.251,340.989C26.578,343.745 17.015,345.663 10.375,346.891C7.055,347.505 4.466,347.947 2.711,348.235C1.834,348.379 1.165,348.483 0.717,348.553C0.493,348.587 0.324,348.613 0.212,348.629C0.156,348.637 0.114,348.643 0.087,348.647C0.074,348.649 0.064,348.651 0.057,348.653C0.054,348.653 0.052,348.653 0.05,348.653C0.049,348.653 0.049,348.653 0.399,351.073ZM303.801,171.718C332.607,103.473 407.043,61.844 474.943,37.265C508.809,25.006 540.869,17.054 564.469,12.166C576.265,9.723 585.941,8.047 592.661,6.982C596.021,6.45 598.641,6.071 600.419,5.825C601.309,5.702 601.987,5.613 602.441,5.554C602.667,5.525 602.839,5.503 602.951,5.489C603.009,5.482 603.051,5.477 603.079,5.474C603.093,5.472 603.103,5.471 603.109,5.47C603.113,5.469 603.115,5.469 603.117,5.469C603.117,5.469 603.117,5.469 602.825,3.043C602.533,0.616 602.533,0.617 602.529,0.617C602.527,0.617 602.525,0.618 602.521,0.618C602.511,0.619 602.501,0.621 602.485,0.622C602.453,0.626 602.407,0.632 602.347,0.639C602.227,0.654 602.049,0.677 601.815,0.707C601.347,0.768 600.653,0.859 599.749,0.984C597.943,1.234 595.289,1.618 591.895,2.155C585.109,3.23 575.357,4.919 563.477,7.38C539.721,12.3 507.425,20.31 473.279,32.67C405.157,57.329 328.953,99.562 299.297,169.818L303.801,171.718Z" fill="#2C698D"/>
<path d="M322.393,181.759L324.643,182.711L324.643,182.711L322.393,181.759ZM0.399,373.945C0.747,376.365 0.749,376.365 0.751,376.363C0.754,376.363 0.757,376.363 0.762,376.363C0.77,376.361 0.783,376.359 0.799,376.357C0.832,376.353 0.88,376.345 0.944,376.335C1.071,376.317 1.259,376.289 1.506,376.251C2,376.175 2.731,376.061 3.686,375.905C5.595,375.595 8.396,375.121 11.982,374.463C19.152,373.145 29.459,371.091 42.029,368.139C67.164,362.239 101.373,352.747 137.656,338.377C210.083,309.689 291.389,261.325 324.643,182.711L320.141,180.807C287.687,257.531 207.997,305.259 135.856,333.833C99.853,348.091 65.884,357.519 40.912,363.381C28.429,366.313 18.2,368.351 11.098,369.655C7.548,370.307 4.779,370.777 2.901,371.081C1.963,371.235 1.247,371.347 0.767,371.419C0.527,371.457 0.347,371.483 0.227,371.501C0.167,371.509 0.122,371.517 0.093,371.521C0.078,371.523 0.068,371.525 0.061,371.525C0.057,371.527 0.055,371.527 0.053,371.527C0.052,371.527 0.052,371.527 0.399,373.945ZM324.643,182.711C355.483,109.798 435.141,65.42 507.761,39.26C543.987,26.211 578.279,17.759 603.519,12.571C616.137,9.977 626.485,8.2 633.675,7.072C637.269,6.508 640.073,6.107 641.975,5.847C642.927,5.717 643.651,5.622 644.137,5.56C644.381,5.529 644.565,5.506 644.685,5.491C644.747,5.483 644.791,5.478 644.821,5.474C644.837,5.473 644.847,5.471 644.855,5.47C644.857,5.47 644.861,5.47 644.863,5.469C644.863,5.469 644.863,5.469 644.575,3.043C644.287,0.616 644.285,0.616 644.283,0.617C644.281,0.617 644.277,0.617 644.273,0.618C644.263,0.619 644.251,0.62 644.235,0.622C644.201,0.626 644.153,0.632 644.087,0.64C643.959,0.656 643.769,0.68 643.519,0.712C643.019,0.775 642.279,0.872 641.313,1.004C639.381,1.269 636.545,1.675 632.917,2.244C625.663,3.382 615.237,5.172 602.535,7.783C577.137,13.004 542.609,21.512 506.105,34.662C433.265,60.901 351.833,105.881 320.141,180.807L324.643,182.711Z" fill="#2C698D"/>
<path d="M343.299,192.687L341.049,191.733L341.049,191.733L343.299,192.687ZM0.399,396.815C0.745,399.233 0.746,399.233 0.749,399.233C0.751,399.233 0.755,399.233 0.76,399.231C0.769,399.231 0.782,399.229 0.8,399.225C0.835,399.221 0.886,399.213 0.953,399.203C1.088,399.183 1.288,399.153 1.551,399.113C2.077,399.033 2.855,398.913 3.871,398.749C5.903,398.421 8.885,397.919 12.703,397.223C20.337,395.829 31.311,393.655 44.695,390.529C71.457,384.277 107.88,374.215 146.51,358.969C223.633,328.527 310.165,277.179 345.549,193.64L341.049,191.733C306.467,273.379 221.551,324.095 144.715,354.421C106.366,369.559 70.182,379.557 43.583,385.769C30.286,388.875 19.39,391.033 11.825,392.415C8.042,393.105 5.093,393.601 3.092,393.925C2.092,394.085 1.329,394.205 0.818,394.281C0.562,394.321 0.37,394.349 0.242,394.367C0.178,394.377 0.13,394.385 0.099,394.389C0.083,394.391 0.071,394.393 0.064,394.393C0.06,394.395 0.058,394.395 0.056,394.395C0.055,394.395 0.054,394.395 0.399,396.815ZM345.549,193.64C378.389,116.122 463.257,69.011 540.587,41.27C579.169,27.43 615.691,18.477 642.573,12.983C656.011,10.237 667.033,8.357 674.691,7.164C678.519,6.568 681.507,6.144 683.533,5.868C684.545,5.731 685.319,5.631 685.837,5.565C686.097,5.532 686.291,5.508 686.421,5.493C686.487,5.485 686.535,5.479 686.567,5.475C686.583,5.473 686.593,5.472 686.601,5.471C686.605,5.47 686.607,5.47 686.609,5.47C686.611,5.47 686.611,5.47 686.325,3.043C686.039,0.616 686.037,0.616 686.035,0.616C686.033,0.617 686.029,0.617 686.025,0.618C686.015,0.619 686.001,0.62 685.983,0.622C685.949,0.627 685.897,0.633 685.829,0.641C685.691,0.658 685.489,0.683 685.223,0.717C684.691,0.784 683.903,0.886 682.875,1.025C680.819,1.305 677.801,1.734 673.939,2.335C666.215,3.538 655.117,5.432 641.595,8.195C614.555,13.72 577.797,22.73 538.937,36.67C461.389,64.488 374.743,112.2 341.049,191.733L345.549,193.64Z" fill="#2C698D"/>
<path d="M364.207,203.741L366.457,204.697L366.457,204.695L364.207,203.741ZM0.399,419.749C0.743,422.169 0.745,422.169 0.747,422.169C0.75,422.169 0.754,422.167 0.759,422.167C0.768,422.165 0.782,422.163 0.801,422.161C0.838,422.155 0.892,422.147 0.964,422.137C1.107,422.117 1.319,422.085 1.597,422.043C2.155,421.959 2.98,421.831 4.057,421.659C6.212,421.313 9.376,420.783 13.424,420.047C21.522,418.575 33.163,416.279 47.36,412.975C75.75,406.369 114.387,395.733 155.364,379.609C237.181,347.415 328.943,293.097 366.457,204.697L361.957,202.787C325.247,289.293 235.105,342.979 153.575,375.061C112.878,391.075 74.48,401.647 46.253,408.215C32.142,411.497 20.579,413.779 12.55,415.237C8.536,415.967 5.406,416.491 3.282,416.833C2.22,417.003 1.41,417.129 0.867,417.211C0.596,417.251 0.391,417.281 0.256,417.301C0.188,417.311 0.137,417.319 0.103,417.323C0.087,417.327 0.075,417.327 0.067,417.329C0.063,417.329 0.06,417.329 0.058,417.331C0.056,417.331 0.056,417.331 0.399,419.749ZM366.457,204.695C401.297,122.508 491.357,72.633 573.385,43.296C614.313,28.658 653.057,19.198 681.575,13.398C695.831,10.498 707.525,8.515 715.649,7.257C719.711,6.628 722.879,6.18 725.029,5.89C726.105,5.745 726.925,5.64 727.475,5.571C727.751,5.536 727.957,5.511 728.095,5.494C728.165,5.486 728.215,5.48 728.249,5.475C728.267,5.473 728.279,5.472 728.287,5.471C728.291,5.471 728.293,5.47 728.295,5.47C728.297,5.47 728.297,5.47 728.013,3.043C727.729,0.615 727.729,0.616 727.725,0.616C727.723,0.616 727.719,0.617 727.715,0.617C727.705,0.618 727.691,0.62 727.671,0.622C727.635,0.627 727.579,0.633 727.507,0.642C727.363,0.66 727.147,0.686 726.865,0.721C726.301,0.792 725.467,0.9 724.377,1.047C722.197,1.341 718.995,1.793 714.901,2.427C706.711,3.695 694.941,5.692 680.601,8.608C651.927,14.441 612.945,23.957 571.739,38.694C489.495,68.109 397.653,118.583 361.957,202.787L366.457,204.695Z" fill="#2C698D"/>
<path d="M385.049,214.669L387.299,215.625L387.299,215.625L385.049,214.669ZM0.399,442.623C0.741,445.043 0.743,445.043 0.746,445.043C0.748,445.043 0.752,445.041 0.757,445.041C0.768,445.039 0.782,445.037 0.802,445.035C0.841,445.029 0.898,445.021 0.974,445.009C1.125,444.987 1.349,444.955 1.643,444.911C2.232,444.823 3.104,444.689 4.243,444.507C6.52,444.143 9.864,443.585 14.143,442.811C22.703,441.263 35.008,438.845 50.016,435.367C80.027,428.411 120.871,417.205 164.187,400.203C250.681,366.253 347.655,308.949 387.299,215.625L382.801,213.713C343.963,305.143 248.611,361.815 162.402,395.653C119.365,412.547 78.761,423.687 48.913,430.605C33.991,434.065 21.764,436.465 13.273,438.001C9.028,438.769 5.717,439.321 3.471,439.681C2.348,439.859 1.491,439.991 0.917,440.077C0.63,440.121 0.413,440.153 0.27,440.173C0.198,440.183 0.144,440.191 0.108,440.197C0.091,440.199 0.078,440.201 0.069,440.203C0.065,440.203 0.062,440.203 0.06,440.203C0.058,440.203 0.058,440.203 0.399,442.623ZM387.299,215.625C424.173,128.8 519.459,76.192 606.205,45.283C649.491,29.858 690.469,19.901 720.629,13.801C735.705,10.752 748.073,8.667 756.665,7.346C760.961,6.686 764.313,6.216 766.587,5.911C767.725,5.759 768.593,5.649 769.175,5.576C769.465,5.54 769.685,5.513 769.831,5.496C769.905,5.487 769.959,5.48 769.995,5.476C770.013,5.474 770.025,5.472 770.035,5.471C770.039,5.471 770.041,5.471 770.043,5.47C770.045,5.47 770.045,5.47 769.765,3.043C769.483,0.615 769.481,0.615 769.479,0.616C769.475,0.616 769.471,0.617 769.467,0.617C769.457,0.618 769.441,0.62 769.421,0.622C769.383,0.627 769.325,0.634 769.247,0.643C769.095,0.661 768.869,0.689 768.571,0.726C767.975,0.8 767.091,0.913 765.939,1.067C763.635,1.375 760.251,1.85 755.923,2.516C747.263,3.847 734.821,5.944 719.659,9.011C689.343,15.143 648.129,25.155 604.563,40.679C517.603,71.665 420.531,124.87 382.801,213.715L387.299,215.625Z" fill="#2C698D"/>
<path d="M405.957,225.661L408.205,226.617L408.205,226.617L405.957,225.661ZM0.399,465.497C0.739,467.917 0.741,467.917 0.744,467.917C0.747,467.917 0.751,467.915 0.756,467.915C0.767,467.913 0.783,467.911 0.803,467.909C0.844,467.903 0.904,467.893 0.984,467.883C1.143,467.859 1.379,467.825 1.689,467.779C2.31,467.685 3.229,467.545 4.429,467.355C6.829,466.973 10.354,466.389 14.865,465.575C23.888,463.951 36.861,461.413 52.683,457.761C84.321,450.455 127.379,438.681 173.042,420.805C264.231,385.109 366.433,324.833 408.205,226.617L403.709,224.703C362.743,321.023 262.165,380.667 171.261,416.255C125.877,434.021 83.059,445.731 51.583,452.999C35.848,456.631 22.954,459.153 13.999,460.765C9.522,461.571 6.03,462.151 3.661,462.527C2.477,462.715 1.573,462.853 0.967,462.945C0.664,462.989 0.435,463.023 0.283,463.045C0.208,463.057 0.151,463.065 0.113,463.069C0.095,463.073 0.081,463.075 0.072,463.075C0.067,463.077 0.064,463.077 0.062,463.077C0.06,463.077 0.06,463.077 0.399,465.497ZM408.205,226.617C447.081,135.155 547.575,79.799 639.031,47.3C684.675,31.082 727.881,20.621 759.683,14.215C775.581,11.012 788.621,8.825 797.683,7.438C802.213,6.745 805.747,6.252 808.145,5.933C809.345,5.774 810.261,5.658 810.875,5.582C811.181,5.543 811.413,5.515 811.567,5.497C811.645,5.488 811.701,5.481 811.739,5.477C811.759,5.474 811.773,5.473 811.781,5.472C811.787,5.471 811.789,5.471 811.791,5.471C811.793,5.47 811.795,5.47 811.515,3.043C811.235,0.615 811.233,0.615 811.229,0.616C811.227,0.616 811.223,0.616 811.217,0.617C811.207,0.618 811.191,0.62 811.171,0.623C811.129,0.627 811.067,0.635 810.987,0.644C810.827,0.663 810.589,0.692 810.273,0.731C809.645,0.809 808.715,0.927 807.501,1.088C805.073,1.412 801.507,1.909 796.943,2.607C787.817,4.003 774.699,6.204 758.717,9.423C726.759,15.861 683.317,26.377 637.395,42.695C545.725,75.269 443.441,131.222 403.707,224.705L408.205,226.617Z" fill="#2C698D"/>
<path d="M426.801,236.651L424.551,235.695L424.551,235.695L426.801,236.651ZM0.399,488.433C0.737,490.853 0.739,490.853 0.743,490.853C0.745,490.851 0.75,490.851 0.755,490.851C0.767,490.849 0.783,490.847 0.805,490.843C0.847,490.837 0.911,490.829 0.994,490.817C1.161,490.793 1.409,490.757 1.735,490.707C2.388,490.611 3.354,490.463 4.615,490.265C7.138,489.865 10.844,489.253 15.587,488.403C25.074,486.701 38.713,484.043 55.348,480.215C88.613,472.559 133.883,460.215 181.89,441.461C277.765,404.009 385.179,340.749 429.049,237.609L424.551,235.695C381.489,336.937 275.703,399.567 180.111,436.909C132.384,455.553 87.354,467.833 54.252,475.451C37.703,479.261 24.142,481.903 14.724,483.591C10.016,484.437 6.343,485.043 3.851,485.437C2.605,485.635 1.654,485.779 1.016,485.873C0.698,485.921 0.457,485.955 0.297,485.979C0.217,485.991 0.157,485.999 0.118,486.005C0.098,486.007 0.084,486.009 0.074,486.011C0.07,486.011 0.066,486.011 0.064,486.013C0.062,486.013 0.061,486.013 0.399,488.433ZM429.049,237.609C469.955,141.51 575.677,83.406 671.851,49.318C719.853,32.305 765.293,21.34 798.737,14.628C815.455,11.273 829.171,8.982 838.699,7.53C843.463,6.805 847.181,6.289 849.705,5.955C850.967,5.788 851.929,5.666 852.575,5.587C852.899,5.547 853.141,5.518 853.303,5.499C853.385,5.489 853.445,5.482 853.485,5.477C853.505,5.475 853.521,5.473 853.529,5.472C853.535,5.471 853.539,5.471 853.541,5.471C853.543,5.471 853.543,5.47 853.265,3.043C852.987,0.615 852.985,0.615 852.981,0.615C852.979,0.616 852.975,0.616 852.969,0.617C852.957,0.618 852.941,0.62 852.919,0.623C852.875,0.628 852.811,0.635 852.727,0.645C852.559,0.665 852.307,0.696 851.977,0.736C851.317,0.817 850.339,0.941 849.063,1.11C846.511,1.448 842.761,1.968 837.963,2.699C828.369,4.16 814.579,6.464 797.775,9.836C764.175,16.579 718.499,27.6 670.219,44.712C573.831,78.874 466.319,137.573 424.551,235.695L429.049,237.609Z" fill="#2C698D"/>
<path d="M447.707,247.643L449.955,248.601L449.955,248.599L447.707,247.643ZM0.399,511.301C0.736,513.721 0.738,513.721 0.742,513.721C0.745,513.721 0.749,513.721 0.755,513.719C0.767,513.717 0.784,513.715 0.806,513.713C0.851,513.705 0.918,513.697 1.005,513.683C1.18,513.659 1.44,513.621 1.782,513.571C2.466,513.469 3.479,513.315 4.801,513.107C7.447,512.689 11.333,512.049 16.307,511.159C26.255,509.381 40.559,506.601 58.006,502.595C92.893,494.585 140.371,481.669 190.721,462.039C291.281,422.831 403.923,356.603 449.955,248.601L445.459,246.685C400.237,352.787 289.225,418.387 188.946,457.485C138.875,477.005 91.637,489.859 56.912,497.831C39.552,501.817 25.327,504.581 15.447,506.349C10.507,507.233 6.654,507.867 4.039,508.279C2.732,508.485 1.734,508.637 1.065,508.735C0.731,508.785 0.478,508.821 0.31,508.845C0.226,508.857 0.164,508.867 0.122,508.873C0.101,508.875 0.086,508.877 0.076,508.879C0.071,508.879 0.068,508.881 0.065,508.881C0.063,508.881 0.063,508.881 0.399,511.301ZM449.955,248.599C492.863,147.833 603.779,86.98 704.649,51.312C754.999,33.509 802.661,22.045 837.739,15.032C855.277,11.527 869.661,9.135 879.657,7.62C884.655,6.862 888.555,6.324 891.201,5.976C892.525,5.802 893.535,5.675 894.213,5.592C894.553,5.551 894.809,5.52 894.979,5.5C895.063,5.49 895.127,5.483 895.169,5.478C895.191,5.475 895.205,5.473 895.215,5.472C895.221,5.472 895.225,5.471 895.227,5.471C895.229,5.471 895.229,5.471 894.953,3.043C894.677,0.615 894.675,0.615 894.671,0.615C894.669,0.616 894.663,0.616 894.659,0.617C894.647,0.618 894.629,0.62 894.607,0.623C894.561,0.628 894.493,0.636 894.405,0.646C894.229,0.667 893.965,0.699 893.619,0.741C892.927,0.826 891.903,0.954 890.565,1.13C887.887,1.483 883.955,2.025 878.925,2.788C868.863,4.312 854.403,6.717 836.781,10.24C801.545,17.284 753.647,28.802 703.021,46.704C601.937,82.447 489.229,143.893 445.459,246.685L449.955,248.599Z" fill="#2C698D"/>
</svg>
