<svg width="896" height="514" viewBox="0 0 896 514" fill="none" xmlns="http://www.w3.org/2000/svg" xmlns:xlink="http://www.w3.org/1999/xlink">
<path d="M92.732,60.92L95.003,61.824L95.004,61.822L92.732,60.92ZM0.398,122.102C0.844,124.505 0.845,124.505 0.846,124.505C0.847,124.505 0.848,124.504 0.85,124.504C0.853,124.503 0.857,124.503 0.862,124.502C0.873,124.5 0.888,124.497 0.908,124.493C0.947,124.486 1.003,124.475 1.077,124.46C1.224,124.432 1.439,124.389 1.718,124.332C2.277,124.217 3.091,124.044 4.131,123.808C6.21,123.335 9.191,122.608 12.824,121.587C20.084,119.545 29.971,116.32 40.469,111.583C61.353,102.16 85.175,86.521 95.003,61.824L90.462,60.017C81.353,82.906 59.007,97.857 38.459,107.128C28.24,111.739 18.594,114.887 11.501,116.882C7.957,117.879 5.056,118.586 3.047,119.042C2.043,119.271 1.263,119.436 0.736,119.544C0.473,119.598 0.274,119.638 0.142,119.663C0.076,119.676 0.027,119.685 -0.004,119.691C-0.02,119.694 -0.032,119.697 -0.039,119.698C-0.042,119.699 -0.045,119.699 -0.046,119.699C-0.047,119.699 -0.047,119.699 -0.047,119.7C-0.047,119.699 -0.047,119.699 0.398,122.102ZM95.004,61.822C103.679,39.972 126.052,25.837 146.826,17.129C157.145,12.803 166.917,9.88 174.114,8.039C177.709,7.118 180.655,6.47 182.696,6.053C183.717,5.844 184.511,5.693 185.046,5.595C185.314,5.546 185.517,5.51 185.651,5.487C185.718,5.475 185.768,5.467 185.8,5.461C185.817,5.458 185.828,5.456 185.836,5.455C185.839,5.455 185.842,5.454 185.843,5.454C185.844,5.454 185.844,5.454 185.844,5.454C185.844,5.454 185.844,5.454 185.448,3.042C185.051,0.631 185.05,0.631 185.049,0.631C185.048,0.632 185.047,0.632 185.045,0.632C185.042,0.633 185.038,0.633 185.033,0.634C185.022,0.636 185.006,0.639 184.987,0.642C184.947,0.649 184.89,0.658 184.815,0.671C184.666,0.697 184.448,0.736 184.165,0.788C183.599,0.891 182.772,1.049 181.717,1.264C179.608,1.696 176.584,2.362 172.902,3.304C165.544,5.187 155.533,8.18 144.937,12.622C123.881,21.448 99.897,36.252 90.461,60.018L95.004,61.822Z" fill="#2C698D"/>
<path d="M113.639,71.848L115.905,72.763L115.906,72.762L113.639,71.848ZM0.398,144.973C0.818,147.381 0.819,147.381 0.82,147.38C0.821,147.38 0.823,147.38 0.825,147.38C0.828,147.379 0.833,147.378 0.84,147.377C0.853,147.375 0.871,147.372 0.894,147.367C0.941,147.359 1.01,147.346 1.099,147.33C1.278,147.297 1.54,147.248 1.88,147.182C2.562,147.05 3.557,146.85 4.829,146.576C7.371,146.027 11.019,145.18 15.465,143.984C24.353,141.593 36.454,137.8 49.299,132.187C74.873,121.014 103.938,102.394 115.905,72.763L111.373,70.933C100.146,98.735 72.59,116.678 47.343,127.709C34.777,133.199 22.917,136.918 14.196,139.264C9.838,140.437 6.27,141.265 3.797,141.798C2.561,142.065 1.6,142.258 0.95,142.384C0.626,142.447 0.379,142.493 0.216,142.523C0.134,142.538 0.073,142.549 0.033,142.556C0.013,142.56 -0.001,142.562 -0.01,142.564C-0.015,142.565 -0.018,142.565 -0.02,142.566C-0.021,142.566 -0.021,142.566 -0.021,142.566C-0.021,142.566 -0.021,142.566 0.398,144.973ZM115.906,72.762C126.571,46.319 154.134,29.445 179.627,19.15C192.3,14.033 204.302,10.605 213.14,8.458C217.558,7.385 221.178,6.633 223.686,6.15C224.942,5.909 225.918,5.735 226.578,5.621C226.908,5.565 227.158,5.524 227.326,5.497C227.408,5.483 227.47,5.473 227.512,5.467C227.532,5.464 227.546,5.461 227.556,5.46C227.56,5.459 227.564,5.459 227.566,5.458C227.566,5.458 227.566,5.458 227.568,5.458C227.568,5.458 227.566,5.458 227.198,3.042C226.828,0.627 226.828,0.627 226.826,0.627C226.826,0.627 226.824,0.628 226.822,0.628C226.818,0.628 226.812,0.629 226.806,0.63C226.794,0.632 226.776,0.635 226.752,0.639C226.704,0.646 226.634,0.657 226.544,0.672C226.364,0.701 226.098,0.745 225.752,0.804C225.062,0.923 224.052,1.102 222.764,1.35C220.186,1.846 216.488,2.615 211.986,3.708C202.988,5.895 190.748,9.389 177.797,14.619C152.039,25.02 122.822,42.548 111.373,70.934L115.906,72.762Z" fill="#2C698D"/>
<path d="M134.483,82.903L136.745,83.827L136.746,83.825L134.483,82.903ZM0.398,167.909C0.802,170.319 0.803,170.319 0.805,170.319C0.806,170.318 0.807,170.318 0.81,170.318C0.814,170.317 0.819,170.316 0.827,170.315C0.842,170.312 0.863,170.309 0.89,170.304C0.945,170.295 1.026,170.281 1.131,170.262C1.341,170.225 1.65,170.169 2.051,170.094C2.855,169.944 4.031,169.716 5.533,169.403C8.537,168.776 12.85,167.807 18.106,166.435C28.614,163.69 42.922,159.324 58.106,152.836C88.354,139.911 122.642,118.326 136.745,83.827L132.221,81.978C118.871,114.633 86.117,135.551 56.186,148.341C41.281,154.71 27.214,159.004 16.871,161.706C11.702,163.056 7.469,164.006 4.535,164.618C3.068,164.924 1.926,165.146 1.154,165.29C0.768,165.362 0.475,165.415 0.28,165.449C0.182,165.466 0.109,165.479 0.061,165.487C0.038,165.491 0.02,165.494 0.009,165.496C0.003,165.497 -0.001,165.498 -0.003,165.498C-0.004,165.499 -0.005,165.499 -0.005,165.499C-0.005,165.499 -0.005,165.499 0.398,167.909ZM136.746,83.825C149.437,52.689 182.213,33.045 212.428,21.16C227.46,15.247 241.696,11.318 252.176,8.868C257.414,7.643 261.708,6.79 264.686,6.243C266.174,5.97 267.334,5.773 268.118,5.646C268.51,5.582 268.808,5.535 269.008,5.505C269.106,5.49 269.18,5.478 269.23,5.471C269.254,5.468 269.272,5.465 269.282,5.463C269.288,5.462 269.292,5.462 269.296,5.461C269.296,5.461 269.296,5.461 269.298,5.461C269.298,5.461 269.298,5.461 268.948,3.042C268.6,0.624 268.598,0.624 268.596,0.624C268.596,0.624 268.594,0.625 268.592,0.625C268.588,0.626 268.582,0.626 268.574,0.627C268.56,0.63 268.538,0.633 268.51,0.637C268.454,0.645 268.374,0.657 268.266,0.674C268.054,0.706 267.74,0.755 267.334,0.822C266.518,0.954 265.326,1.156 263.804,1.436C260.758,1.995 256.386,2.864 251.064,4.109C240.422,6.596 225.95,10.589 210.638,16.612C180.167,28.598 145.71,48.885 132.22,81.98L136.746,83.825Z" fill="#2C698D"/>
<path d="M155.39,93.83L157.649,94.761L157.65,94.759L155.39,93.83ZM0.398,190.781C0.789,193.193 0.79,193.193 0.792,193.192C0.793,193.192 0.795,193.192 0.797,193.192C0.802,193.191 0.808,193.19 0.817,193.188C0.833,193.186 0.858,193.182 0.889,193.176C0.952,193.166 1.045,193.15 1.165,193.13C1.407,193.088 1.763,193.026 2.226,192.942C3.153,192.775 4.509,192.52 6.243,192.168C9.711,191.465 14.69,190.376 20.76,188.828C32.896,185.734 49.417,180.799 66.949,173.434C101.889,158.756 141.413,134.188 157.649,94.761L153.13,92.9C137.657,130.473 99.685,154.381 65.056,168.928C47.804,176.175 31.523,181.04 19.553,184.092C13.57,185.618 8.67,186.689 5.272,187.378C3.573,187.722 2.25,187.971 1.355,188.133C0.908,188.214 0.567,188.274 0.341,188.312C0.227,188.332 0.142,188.346 0.087,188.355C0.059,188.36 0.038,188.363 0.025,188.365C0.019,188.367 0.014,188.367 0.011,188.368C0.01,188.368 0.009,188.368 0.008,188.368C0.008,188.368 0.008,188.368 0.398,190.781ZM157.65,94.759C172.337,59.024 210.312,36.644 245.242,23.175C262.63,16.471 279.096,12.039 291.218,9.283C297.276,7.906 302.244,6.949 305.69,6.337C307.414,6.031 308.756,5.812 309.664,5.669C310.12,5.598 310.466,5.546 310.696,5.512C310.81,5.495 310.898,5.483 310.954,5.474C310.982,5.47 311.004,5.467 311.016,5.466C311.024,5.465 311.028,5.464 311.032,5.463C311.032,5.463 311.034,5.463 311.034,5.463C311.034,5.463 311.034,5.463 310.698,3.042C310.364,0.622 310.362,0.622 310.36,0.622C310.36,0.622 310.358,0.623 310.354,0.623C310.35,0.624 310.344,0.625 310.336,0.626C310.318,0.628 310.294,0.632 310.262,0.636C310.198,0.645 310.104,0.659 309.982,0.677C309.738,0.713 309.376,0.767 308.908,0.841C307.968,0.988 306.594,1.213 304.836,1.525C301.322,2.149 296.278,3.121 290.134,4.517C277.854,7.309 261.15,11.803 243.484,18.615C208.306,32.179 168.628,55.193 153.13,92.901L157.65,94.759Z" fill="#2C698D"/>
<path d="M176.297,104.821L178.554,105.757L178.555,105.755L176.297,104.821ZM0.398,213.652C0.779,216.066 0.78,216.066 0.782,216.066C0.783,216.066 0.785,216.064 0.788,216.064C0.793,216.064 0.8,216.062 0.81,216.06C0.828,216.058 0.856,216.054 0.891,216.048C0.962,216.036 1.066,216.02 1.203,215.996C1.476,215.95 1.879,215.882 2.404,215.79C3.453,215.604 4.991,215.322 6.956,214.932C10.888,214.154 16.534,212.944 23.418,211.222C37.18,207.778 55.916,202.277 75.795,194.039C115.427,177.616 160.185,150.081 178.554,105.757L174.039,103.886C156.442,146.347 113.25,173.228 73.924,189.524C54.325,197.646 35.83,203.078 22.231,206.48C15.435,208.182 9.868,209.372 6.006,210.138C4.075,210.52 2.571,210.796 1.553,210.976C1.045,211.066 0.657,211.132 0.399,211.176C0.27,211.198 0.173,211.214 0.109,211.224C0.077,211.228 0.053,211.232 0.038,211.234C0.031,211.236 0.025,211.236 0.022,211.238C0.02,211.238 0.019,211.238 0.018,211.238C0.018,211.238 0.018,211.238 0.398,213.652ZM178.555,105.755C195.24,65.387 238.402,40.255 278.03,25.196C297.766,17.697 316.452,12.76 330.21,9.698C337.086,8.168 342.724,7.108 346.638,6.431C348.594,6.093 350.12,5.85 351.152,5.693C351.668,5.614 352.062,5.556 352.324,5.519C352.456,5.5 352.554,5.486 352.618,5.477C352.65,5.473 352.674,5.469 352.69,5.467C352.698,5.466 352.704,5.465 352.708,5.465C352.708,5.465 352.71,5.465 352.71,5.464C352.712,5.464 352.712,5.464 352.386,3.042C352.06,0.621 352.06,0.621 352.058,0.621C352.056,0.621 352.054,0.621 352.052,0.622C352.046,0.622 352.038,0.623 352.03,0.625C352.01,0.627 351.984,0.631 351.948,0.636C351.876,0.646 351.77,0.661 351.632,0.681C351.354,0.72 350.946,0.78 350.416,0.861C349.352,1.023 347.796,1.271 345.806,1.615C341.824,2.304 336.11,3.379 329.148,4.928C315.232,8.025 296.308,13.023 276.294,20.628C236.424,35.778 191.542,61.537 174.038,103.888L178.555,105.755Z" fill="#2C698D"/>
<path d="M197.14,115.812L199.396,116.751L199.396,116.751L197.14,115.812ZM0.398,236.586C0.771,239.002 0.772,239.002 0.774,239.002C0.776,239.002 0.778,239 0.781,239C0.786,239 0.794,238.998 0.805,238.996C0.826,238.994 0.856,238.988 0.895,238.982C0.974,238.97 1.091,238.952 1.243,238.926C1.548,238.876 1.997,238.802 2.583,238.7C3.755,238.496 5.473,238.188 7.67,237.76C12.062,236.904 18.373,235.574 26.068,233.678C41.452,229.884 62.394,223.812 84.612,214.698C128.921,196.521 178.895,166.002 199.396,116.751L194.884,114.873C175.161,162.255 126.763,192.124 82.757,210.176C60.819,219.176 40.117,225.18 24.898,228.932C17.29,230.808 11.059,232.12 6.735,232.962C4.573,233.384 2.889,233.686 1.749,233.884C1.178,233.984 0.744,234.056 0.454,234.104C0.309,234.126 0.2,234.144 0.129,234.156C0.093,234.162 0.066,234.166 0.049,234.168C0.04,234.17 0.034,234.17 0.03,234.172C0.028,234.172 0.027,234.172 0.026,234.172C0.026,234.172 0.026,234.172 0.398,236.586ZM199.396,116.751C218.142,71.716 266.526,43.834 310.866,27.193C332.956,18.903 353.87,13.467 369.266,10.104C376.96,8.424 383.27,7.262 387.65,6.522C389.84,6.152 391.548,5.887 392.704,5.715C393.282,5.629 393.722,5.566 394.016,5.525C394.164,5.505 394.274,5.489 394.348,5.48C394.384,5.475 394.412,5.471 394.428,5.469C394.438,5.468 394.444,5.467 394.448,5.466C394.45,5.466 394.45,5.466 394.452,5.466C394.452,5.466 394.452,5.466 394.136,3.042C393.82,0.619 393.818,0.619 393.816,0.62C393.816,0.62 393.812,0.62 393.81,0.621C393.804,0.621 393.796,0.622 393.786,0.624C393.764,0.627 393.734,0.631 393.694,0.636C393.614,0.647 393.496,0.663 393.342,0.684C393.034,0.727 392.578,0.792 391.986,0.88C390.798,1.057 389.06,1.327 386.836,1.703C382.388,2.454 376.002,3.63 368.222,5.33C352.668,8.727 331.518,14.223 309.148,22.618C264.57,39.347 214.456,67.85 194.884,114.873L199.396,116.751Z" fill="#2C698D"/>
<path d="M218.048,126.803L220.302,127.746L220.302,127.745L218.048,126.803ZM0.398,259.458C0.765,261.874 0.767,261.874 0.769,261.874C0.77,261.874 0.773,261.874 0.776,261.872C0.782,261.872 0.791,261.87 0.802,261.868C0.825,261.866 0.858,261.86 0.902,261.854C0.989,261.84 1.117,261.82 1.285,261.792C1.622,261.738 2.118,261.656 2.766,261.546C4.061,261.324 5.959,260.988 8.387,260.52C13.244,259.586 20.221,258.136 28.729,256.062C45.741,251.914 68.897,245.268 93.462,235.276C142.463,215.346 197.668,181.86 220.302,127.746L215.792,125.861C193.943,178.1 140.324,210.94 91.621,230.75C67.335,240.628 44.419,247.206 27.572,251.312C19.151,253.366 12.252,254.8 7.465,255.72C5.071,256.182 3.206,256.512 1.942,256.728C1.311,256.836 0.829,256.916 0.508,256.968C0.347,256.994 0.226,257.012 0.146,257.024C0.107,257.032 0.077,257.036 0.058,257.038C0.048,257.04 0.041,257.042 0.037,257.042C0.035,257.042 0.033,257.042 0.032,257.042C0.031,257.042 0.031,257.042 0.398,259.458ZM220.302,127.745C241.046,78.075 294.636,47.443 343.688,29.213C368.134,20.128 391.278,14.188 408.316,10.519C416.83,8.685 423.814,7.42 428.662,6.615C431.086,6.212 432.976,5.924 434.258,5.737C434.898,5.644 435.386,5.576 435.712,5.531C435.876,5.509 435.998,5.492 436.08,5.482C436.12,5.476 436.15,5.473 436.17,5.47C436.18,5.469 436.186,5.468 436.19,5.467C436.192,5.467 436.194,5.467 436.196,5.467C436.196,5.466 436.196,5.466 435.886,3.042C435.576,0.618 435.576,0.619 435.574,0.619C435.572,0.619 435.57,0.619 435.566,0.62C435.56,0.621 435.552,0.622 435.54,0.623C435.516,0.626 435.482,0.631 435.438,0.636C435.35,0.648 435.222,0.665 435.05,0.689C434.71,0.735 434.208,0.805 433.552,0.901C432.242,1.092 430.32,1.385 427.862,1.793C422.946,2.61 415.886,3.889 407.286,5.741C390.09,9.444 366.71,15.444 341.986,24.632C292.7,42.949 237.37,74.197 215.792,125.862L220.302,127.745Z" fill="#2C698D"/>
<path d="M238.89,137.731L236.636,136.786L236.636,136.787L238.89,137.731ZM0.398,282.33C0.76,284.748 0.761,284.746 0.764,284.746C0.765,284.746 0.768,284.746 0.771,284.746C0.778,284.744 0.788,284.742 0.8,284.742C0.825,284.738 0.861,284.732 0.909,284.724C1.004,284.71 1.144,284.688 1.328,284.658C1.696,284.6 2.239,284.512 2.948,284.392C4.366,284.154 6.445,283.788 9.105,283.284C14.425,282.274 22.07,280.702 31.391,278.452C50.028,273.954 75.397,266.74 102.306,255.872C155.992,234.186 216.412,197.715 241.144,138.675L236.636,136.787C212.692,193.947 153.866,229.774 100.476,251.34C73.846,262.096 48.718,269.244 30.244,273.702C21.01,275.93 13.445,277.486 8.194,278.482C5.569,278.98 3.522,279.34 2.136,279.574C1.443,279.69 0.914,279.776 0.561,279.832C0.385,279.86 0.252,279.88 0.164,279.894C0.12,279.9 0.087,279.906 0.066,279.91C0.056,279.91 0.048,279.912 0.043,279.912C0.04,279.912 0.039,279.914 0.038,279.914C0.037,279.914 0.037,279.914 0.398,282.33ZM241.144,138.677C263.918,84.403 322.73,51.037 376.504,31.225C403.31,21.349 428.686,14.906 447.364,10.932C456.702,8.946 464.358,7.578 469.676,6.707C472.334,6.272 474.408,5.961 475.812,5.76C476.516,5.659 477.05,5.585 477.41,5.537C477.588,5.513 477.724,5.495 477.812,5.484C477.856,5.478 477.89,5.474 477.912,5.471C477.922,5.47 477.93,5.469 477.936,5.468C477.938,5.468 477.94,5.467 477.94,5.467C477.942,5.467 477.942,5.467 477.638,3.042C477.332,0.618 477.332,0.618 477.33,0.618C477.328,0.618 477.324,0.619 477.322,0.619C477.314,0.62 477.306,0.621 477.292,0.623C477.268,0.626 477.232,0.631 477.184,0.637C477.086,0.65 476.946,0.668 476.758,0.693C476.386,0.743 475.836,0.819 475.118,0.922C473.684,1.128 471.578,1.443 468.886,1.884C463.502,2.766 455.77,4.147 446.348,6.152C427.51,10.159 401.898,16.661 374.814,26.639C320.812,46.535 260.25,80.513 236.636,136.786L241.144,138.677Z" fill="#2C698D"/>
<path d="M259.798,148.785L262.05,149.733L262.05,149.732L259.798,148.785ZM0.398,305.266C0.756,307.684 0.757,307.684 0.759,307.682C0.761,307.682 0.764,307.682 0.768,307.682C0.775,307.68 0.785,307.678 0.799,307.676C0.825,307.672 0.865,307.666 0.916,307.66C1.019,307.644 1.171,307.62 1.371,307.588C1.771,307.526 2.361,307.432 3.131,307.304C4.671,307.046 6.931,306.654 9.822,306.112C15.604,305.024 23.913,303.334 34.045,300.91C54.305,296.062 81.882,288.28 111.134,276.538C169.506,253.106 235.154,213.666 262.05,149.733L257.544,147.838C231.442,209.89 167.392,248.688 109.313,272.002C80.341,283.632 53.005,291.348 32.908,296.156C22.862,298.56 14.632,300.234 8.919,301.308C6.063,301.844 3.837,302.23 2.328,302.482C1.573,302.608 0.998,302.7 0.613,302.76C0.421,302.79 0.276,302.812 0.18,302.828C0.132,302.834 0.097,302.84 0.074,302.844C0.062,302.846 0.053,302.846 0.048,302.848C0.045,302.848 0.044,302.848 0.042,302.848C0.041,302.848 0.041,302.848 0.398,305.266ZM262.05,149.732C286.826,90.759 350.828,54.628 409.298,33.228C438.45,22.558 466.048,15.614 486.364,11.338C496.518,9.201 504.846,7.732 510.63,6.798C513.52,6.33 515.776,5.997 517.306,5.781C518.07,5.673 518.652,5.594 519.042,5.543C519.238,5.517 519.384,5.498 519.482,5.486C519.53,5.479 519.566,5.475 519.59,5.472C519.602,5.47 519.61,5.469 519.616,5.469C519.62,5.468 519.62,5.468 519.622,5.468C519.624,5.468 519.624,5.468 519.324,3.042C519.026,0.617 519.024,0.617 519.022,0.618C519.02,0.618 519.016,0.618 519.014,0.619C519.006,0.62 518.996,0.621 518.982,0.623C518.954,0.626 518.916,0.631 518.864,0.638C518.758,0.651 518.606,0.671 518.402,0.697C517.998,0.751 517.4,0.832 516.622,0.942C515.062,1.162 512.776,1.5 509.85,1.973C504,2.918 495.596,4.401 485.356,6.556C464.884,10.865 437.048,17.866 407.618,28.638C348.922,50.122 283.162,86.862 257.544,147.839L262.05,149.732Z" fill="#2C698D"/>
<path d="M280.642,159.777L278.39,158.828L278.39,158.828L280.642,159.777ZM0.398,328.136C0.752,330.554 0.753,330.554 0.756,330.554C0.758,330.552 0.761,330.552 0.765,330.552C0.772,330.55 0.783,330.548 0.798,330.546C0.827,330.542 0.869,330.536 0.924,330.528C1.035,330.512 1.199,330.486 1.415,330.452C1.846,330.386 2.484,330.284 3.315,330.148C4.978,329.874 7.419,329.454 10.542,328.872C16.787,327.71 25.762,325.898 36.708,323.3C58.594,318.104 88.383,309.754 119.979,297.138C183.036,271.962 253.9,229.552 282.894,160.725L278.39,158.828C250.19,225.77 180.933,267.54 118.167,292.6C86.851,305.104 57.302,313.388 35.579,318.544C24.72,321.122 15.823,322.918 9.647,324.068C6.559,324.642 4.152,325.056 2.52,325.326C1.704,325.46 1.081,325.558 0.665,325.624C0.457,325.656 0.3,325.68 0.196,325.696C0.144,325.702 0.106,325.708 0.08,325.712C0.068,325.714 0.059,325.716 0.053,325.716C0.05,325.716 0.048,325.718 0.046,325.718C0.045,325.718 0.045,325.718 0.398,328.136ZM282.892,160.726C309.7,97.117 378.926,58.236 442.116,35.247C473.628,23.782 503.458,16.334 525.414,11.752C536.39,9.462 545.392,7.889 551.644,6.89C554.77,6.39 557.208,6.034 558.862,5.803C559.688,5.688 560.318,5.604 560.74,5.549C560.952,5.521 561.11,5.501 561.216,5.487C561.268,5.481 561.308,5.476 561.334,5.473C561.346,5.471 561.356,5.47 561.362,5.469C561.366,5.469 561.368,5.469 561.368,5.468C561.37,5.468 561.37,5.468 561.074,3.042C560.78,0.617 560.778,0.617 560.776,0.617C560.774,0.617 560.77,0.618 560.766,0.618C560.758,0.619 560.748,0.621 560.732,0.622C560.704,0.626 560.662,0.631 560.606,0.638C560.492,0.653 560.326,0.674 560.108,0.702C559.672,0.759 559.028,0.845 558.186,0.963C556.502,1.198 554.032,1.559 550.872,2.064C544.554,3.074 535.476,4.66 524.416,6.968C502.302,11.582 472.234,19.088 440.444,30.654C377.032,53.725 306.042,93.212 278.39,158.828L282.892,160.726Z" fill="#2C698D"/>
<path d="M301.548,170.768L303.8,171.718L303.8,171.718L301.548,170.768ZM0.398,351.072C0.749,353.49 0.751,353.49 0.753,353.488C0.755,353.488 0.759,353.488 0.763,353.488C0.771,353.486 0.783,353.484 0.798,353.482C0.829,353.478 0.874,353.472 0.934,353.462C1.053,353.444 1.229,353.418 1.46,353.382C1.923,353.31 2.607,353.204 3.5,353.056C5.287,352.764 7.908,352.316 11.263,351.696C17.971,350.456 27.614,348.522 39.373,345.746C62.887,340.194 94.889,331.268 128.832,317.772C196.583,290.832 272.676,245.438 303.8,171.718L299.296,169.817C268.97,241.648 194.488,286.406 127.027,313.23C93.363,326.616 61.601,335.476 38.25,340.988C26.577,343.744 17.014,345.662 10.374,346.89C7.054,347.504 4.465,347.946 2.71,348.234C1.833,348.378 1.164,348.482 0.716,348.552C0.492,348.586 0.323,348.612 0.211,348.628C0.155,348.636 0.113,348.642 0.086,348.646C0.073,348.648 0.063,348.65 0.056,348.652C0.053,348.652 0.051,348.652 0.049,348.652C0.048,348.652 0.048,348.652 0.398,351.072ZM303.8,171.718C332.606,103.473 407.042,61.844 474.942,37.265C508.808,25.006 540.868,17.053 564.468,12.166C576.264,9.723 585.94,8.047 592.66,6.982C596.02,6.45 598.64,6.071 600.418,5.825C601.308,5.702 601.986,5.613 602.44,5.554C602.666,5.525 602.838,5.503 602.95,5.489C603.008,5.482 603.05,5.477 603.078,5.473C603.092,5.472 603.102,5.471 603.108,5.47C603.112,5.469 603.114,5.469 603.116,5.469C603.116,5.469 603.116,5.469 602.824,3.042C602.532,0.616 602.532,0.616 602.528,0.617C602.526,0.617 602.524,0.617 602.52,0.618C602.51,0.619 602.5,0.62 602.484,0.622C602.452,0.626 602.406,0.632 602.346,0.639C602.226,0.654 602.048,0.677 601.814,0.707C601.346,0.767 600.652,0.859 599.748,0.984C597.942,1.234 595.288,1.618 591.894,2.155C585.108,3.23 575.356,4.919 563.476,7.38C539.72,12.3 507.424,20.31 473.278,32.67C405.156,57.328 328.952,99.562 299.296,169.817L303.8,171.718Z" fill="#2C698D"/>
<path d="M322.392,181.759L324.642,182.711L324.642,182.711L322.392,181.759ZM0.398,373.944C0.746,376.364 0.748,376.364 0.75,376.362C0.753,376.362 0.756,376.362 0.761,376.362C0.769,376.36 0.782,376.358 0.798,376.356C0.831,376.352 0.879,376.344 0.943,376.334C1.07,376.316 1.258,376.288 1.505,376.25C1.999,376.174 2.731,376.06 3.685,375.904C5.594,375.594 8.395,375.12 11.981,374.462C19.151,373.144 29.458,371.09 42.028,368.138C67.163,362.238 101.372,352.746 137.655,338.376C210.082,309.688 291.388,261.324 324.642,182.711L320.14,180.807C287.686,257.53 207.996,305.258 135.855,333.832C99.852,348.09 65.883,357.518 40.911,363.38C28.428,366.312 18.199,368.35 11.097,369.654C7.547,370.306 4.778,370.776 2.9,371.08C1.962,371.234 1.246,371.346 0.766,371.418C0.526,371.456 0.346,371.482 0.226,371.5C0.166,371.508 0.121,371.516 0.092,371.52C0.077,371.522 0.067,371.524 0.06,371.524C0.056,371.526 0.054,371.526 0.052,371.526C0.051,371.526 0.051,371.526 0.398,373.944ZM324.642,182.711C355.482,109.797 435.14,65.419 507.76,39.26C543.986,26.21 578.278,17.759 603.518,12.571C616.136,9.977 626.484,8.2 633.674,7.072C637.268,6.508 640.072,6.107 641.974,5.847C642.926,5.716 643.65,5.622 644.136,5.56C644.38,5.529 644.564,5.506 644.684,5.491C644.746,5.483 644.79,5.478 644.82,5.474C644.836,5.472 644.846,5.471 644.854,5.47C644.856,5.47 644.86,5.47 644.862,5.469C644.862,5.469 644.862,5.469 644.574,3.042C644.286,0.616 644.284,0.616 644.282,0.616C644.28,0.617 644.276,0.617 644.272,0.618C644.262,0.619 644.25,0.62 644.234,0.622C644.2,0.626 644.152,0.632 644.086,0.64C643.958,0.656 643.768,0.68 643.518,0.712C643.018,0.775 642.278,0.872 641.312,1.004C639.38,1.268 636.544,1.675 632.916,2.244C625.662,3.382 615.236,5.172 602.534,7.783C577.136,13.004 542.608,21.512 506.104,34.662C433.264,60.9 351.832,105.881 320.14,180.807L324.642,182.711Z" fill="#2C698D"/>
<path d="M343.298,192.686L341.048,191.733L341.048,191.733L343.298,192.686ZM0.398,396.814C0.744,399.232 0.745,399.232 0.748,399.232C0.75,399.232 0.754,399.232 0.759,399.23C0.768,399.23 0.781,399.228 0.799,399.224C0.834,399.22 0.885,399.212 0.952,399.202C1.087,399.182 1.287,399.152 1.55,399.112C2.076,399.032 2.854,398.912 3.87,398.748C5.902,398.42 8.884,397.918 12.702,397.222C20.336,395.828 31.31,393.654 44.694,390.528C71.456,384.276 107.879,374.214 146.509,358.968C223.632,328.526 310.164,277.178 345.548,193.639L341.048,191.733C306.466,273.378 221.55,324.094 144.714,354.42C106.365,369.558 70.181,379.556 43.582,385.768C30.285,388.874 19.389,391.032 11.824,392.414C8.041,393.104 5.092,393.6 3.091,393.924C2.091,394.084 1.328,394.204 0.817,394.28C0.561,394.32 0.369,394.348 0.241,394.366C0.177,394.376 0.129,394.384 0.098,394.388C0.082,394.39 0.071,394.392 0.063,394.392C0.059,394.394 0.057,394.394 0.055,394.394C0.054,394.394 0.053,394.394 0.398,396.814ZM345.548,193.64C378.388,116.122 463.256,69.011 540.586,41.27C579.168,27.43 615.69,18.477 642.572,12.983C656.01,10.237 667.032,8.357 674.69,7.164C678.518,6.568 681.506,6.143 683.532,5.868C684.544,5.731 685.318,5.631 685.836,5.565C686.096,5.532 686.29,5.508 686.42,5.492C686.486,5.484 686.534,5.479 686.566,5.475C686.582,5.473 686.592,5.471 686.6,5.471C686.604,5.47 686.606,5.47 686.608,5.47C686.61,5.469 686.61,5.469 686.324,3.042C686.038,0.616 686.036,0.616 686.034,0.616C686.032,0.616 686.028,0.617 686.024,0.617C686.014,0.618 686,0.62 685.982,0.622C685.948,0.626 685.896,0.633 685.828,0.641C685.69,0.658 685.488,0.683 685.222,0.716C684.69,0.784 683.902,0.886 682.874,1.025C680.818,1.304 677.8,1.734 673.938,2.335C666.214,3.538 655.116,5.431 641.594,8.195C614.554,13.72 577.796,22.73 538.936,36.67C461.388,64.488 374.742,112.199 341.048,191.733L345.548,193.64Z" fill="#2C698D"/>
<path d="M364.206,203.74L366.456,204.696L366.456,204.694L364.206,203.74ZM0.398,419.748C0.742,422.168 0.744,422.168 0.746,422.168C0.749,422.168 0.753,422.166 0.758,422.166C0.767,422.164 0.781,422.162 0.8,422.16C0.837,422.154 0.891,422.146 0.963,422.136C1.106,422.116 1.318,422.084 1.596,422.042C2.154,421.958 2.979,421.83 4.056,421.658C6.211,421.312 9.375,420.782 13.423,420.046C21.521,418.574 33.162,416.278 47.359,412.974C75.749,406.368 114.386,395.732 155.363,379.608C237.18,347.414 328.942,293.096 366.456,204.696L361.956,202.786C325.246,289.292 235.104,342.978 153.574,375.06C112.877,391.074 74.479,401.646 46.252,408.214C32.141,411.496 20.578,413.778 12.549,415.236C8.535,415.966 5.405,416.49 3.281,416.832C2.219,417.002 1.409,417.128 0.866,417.21C0.595,417.25 0.39,417.28 0.255,417.3C0.187,417.31 0.136,417.318 0.103,417.322C0.086,417.326 0.074,417.326 0.066,417.328C0.062,417.328 0.059,417.328 0.057,417.33C0.055,417.33 0.055,417.33 0.398,419.748ZM366.456,204.694C401.296,122.508 491.356,72.633 573.384,43.296C614.312,28.658 653.056,19.198 681.574,13.398C695.83,10.498 707.524,8.515 715.648,7.257C719.71,6.628 722.878,6.18 725.028,5.89C726.104,5.745 726.924,5.64 727.474,5.571C727.75,5.536 727.956,5.511 728.094,5.494C728.164,5.486 728.214,5.479 728.248,5.475C728.266,5.473 728.278,5.472 728.286,5.471C728.29,5.47 728.292,5.47 728.294,5.47C728.296,5.47 728.296,5.47 728.012,3.042C727.728,0.615 727.728,0.616 727.724,0.616C727.722,0.616 727.718,0.617 727.714,0.617C727.704,0.618 727.69,0.62 727.67,0.622C727.634,0.627 727.578,0.633 727.506,0.642C727.362,0.66 727.146,0.686 726.864,0.721C726.3,0.792 725.466,0.9 724.376,1.047C722.196,1.341 718.994,1.793 714.9,2.427C706.71,3.695 694.94,5.692 680.6,8.608C651.926,14.44 612.944,23.956 571.738,38.694C489.494,68.109 397.652,118.583 361.956,202.787L366.456,204.694Z" fill="#2C698D"/>
<path d="M385.048,214.668L387.298,215.624L387.298,215.624L385.048,214.668ZM0.398,442.622C0.74,445.042 0.742,445.042 0.745,445.042C0.747,445.042 0.751,445.04 0.756,445.04C0.767,445.038 0.782,445.036 0.801,445.034C0.84,445.028 0.897,445.02 0.973,445.008C1.124,444.986 1.348,444.954 1.642,444.91C2.231,444.822 3.103,444.688 4.242,444.506C6.519,444.142 9.863,443.584 14.142,442.81C22.702,441.262 35.007,438.844 50.015,435.366C80.026,428.41 120.87,417.204 164.186,400.202C250.68,366.252 347.654,308.948 387.298,215.624L382.8,213.712C343.962,305.142 248.61,361.814 162.401,395.652C119.364,412.546 78.76,423.686 48.912,430.604C33.99,434.064 21.763,436.464 13.272,438C9.027,438.768 5.716,439.32 3.47,439.68C2.347,439.858 1.49,439.99 0.916,440.076C0.629,440.12 0.412,440.152 0.269,440.172C0.197,440.182 0.143,440.19 0.108,440.196C0.09,440.198 0.077,440.2 0.068,440.202C0.064,440.202 0.061,440.202 0.059,440.202C0.058,440.202 0.057,440.202 0.398,442.622ZM387.298,215.624C424.172,128.8 519.458,76.192 606.204,45.282C649.49,29.858 690.468,19.901 720.628,13.801C735.704,10.752 748.072,8.667 756.664,7.346C760.96,6.685 764.312,6.216 766.586,5.911C767.724,5.759 768.592,5.648 769.174,5.576C769.464,5.54 769.684,5.513 769.83,5.495C769.904,5.487 769.958,5.48 769.994,5.476C770.012,5.474 770.024,5.472 770.034,5.471C770.038,5.471 770.04,5.47 770.042,5.47C770.044,5.47 770.044,5.47 769.764,3.042C769.482,0.615 769.48,0.615 769.478,0.616C769.474,0.616 769.47,0.616 769.466,0.617C769.456,0.618 769.44,0.62 769.42,0.622C769.382,0.627 769.324,0.634 769.246,0.643C769.094,0.661 768.868,0.689 768.57,0.726C767.974,0.8 767.09,0.913 765.938,1.067C763.634,1.375 760.25,1.85 755.922,2.515C747.262,3.847 734.82,5.944 719.658,9.011C689.342,15.143 648.128,25.155 604.562,40.678C517.602,71.665 420.53,124.87 382.8,213.714L387.298,215.624Z" fill="#2C698D"/>
<path d="M405.956,225.66L408.204,226.616L408.204,226.616L405.956,225.66ZM0.398,465.496C0.738,467.916 0.74,467.916 0.743,467.916C0.746,467.916 0.75,467.914 0.755,467.914C0.766,467.912 0.782,467.91 0.802,467.908C0.843,467.902 0.903,467.892 0.983,467.882C1.142,467.858 1.378,467.824 1.688,467.778C2.309,467.684 3.228,467.544 4.428,467.354C6.828,466.972 10.353,466.388 14.864,465.574C23.887,463.95 36.86,461.412 52.682,457.76C84.32,450.454 127.378,438.68 173.041,420.804C264.23,385.108 366.432,324.832 408.204,226.616L403.708,224.702C362.742,321.022 262.164,380.666 171.26,416.254C125.876,434.02 83.058,445.73 51.582,452.998C35.847,456.63 22.953,459.152 13.998,460.764C9.521,461.57 6.029,462.15 3.66,462.526C2.476,462.714 1.572,462.852 0.966,462.944C0.663,462.988 0.434,463.022 0.283,463.044C0.207,463.056 0.15,463.064 0.112,463.068C0.094,463.072 0.08,463.074 0.071,463.074C0.066,463.076 0.063,463.076 0.061,463.076C0.059,463.076 0.059,463.076 0.398,465.496ZM408.204,226.616C447.08,135.155 547.574,79.799 639.03,47.3C684.674,31.081 727.88,20.62 759.682,14.214C775.58,11.012 788.62,8.824 797.682,7.438C802.212,6.745 805.746,6.252 808.144,5.933C809.344,5.774 810.26,5.657 810.874,5.581C811.18,5.543 811.412,5.515 811.566,5.497C811.644,5.488 811.7,5.481 811.738,5.476C811.758,5.474 811.772,5.473 811.78,5.472C811.786,5.471 811.788,5.471 811.79,5.47C811.792,5.47 811.794,5.47 811.514,3.042C811.234,0.615 811.232,0.615 811.228,0.615C811.226,0.616 811.222,0.616 811.216,0.617C811.206,0.618 811.19,0.62 811.17,0.622C811.128,0.627 811.066,0.634 810.986,0.644C810.826,0.663 810.588,0.692 810.272,0.731C809.644,0.809 808.714,0.927 807.5,1.088C805.072,1.411 801.506,1.909 796.942,2.607C787.816,4.003 774.698,6.204 758.716,9.423C726.758,15.861 683.316,26.377 637.394,42.695C545.724,75.269 443.44,131.222 403.706,224.704L408.204,226.616Z" fill="#2C698D"/>
<path d="M426.8,236.65L424.55,235.694L424.55,235.694L426.8,236.65ZM0.398,488.432C0.736,490.852 0.738,490.852 0.742,490.852C0.744,490.85 0.749,490.85 0.755,490.85C0.766,490.848 0.782,490.846 0.804,490.842C0.846,490.836 0.91,490.828 0.993,490.816C1.16,490.792 1.408,490.756 1.734,490.706C2.387,490.61 3.353,490.462 4.614,490.264C7.137,489.864 10.843,489.252 15.586,488.402C25.073,486.7 38.712,484.042 55.347,480.214C88.612,472.558 133.882,460.214 181.889,441.46C277.764,404.008 385.178,340.748 429.048,237.608L424.55,235.694C381.488,336.936 275.702,399.566 180.11,436.908C132.383,455.552 87.353,467.832 54.251,475.45C37.702,479.26 24.141,481.902 14.723,483.59C10.015,484.436 6.342,485.042 3.85,485.436C2.604,485.634 1.653,485.778 1.015,485.872C0.697,485.92 0.456,485.954 0.296,485.978C0.216,485.99 0.156,485.998 0.117,486.004C0.097,486.006 0.083,486.008 0.073,486.01C0.069,486.01 0.065,486.01 0.063,486.012C0.061,486.012 0.061,486.012 0.398,488.432ZM429.048,237.608C469.954,141.51 575.676,83.405 671.85,49.318C719.852,32.305 765.292,21.34 798.736,14.628C815.454,11.272 829.17,8.982 838.698,7.53C843.462,6.805 847.18,6.289 849.704,5.955C850.966,5.788 851.928,5.666 852.574,5.587C852.898,5.547 853.14,5.518 853.302,5.498C853.384,5.489 853.444,5.482 853.484,5.477C853.504,5.475 853.52,5.473 853.528,5.472C853.534,5.471 853.538,5.471 853.54,5.471C853.542,5.47 853.542,5.47 853.264,3.042C852.986,0.615 852.984,0.615 852.98,0.615C852.978,0.616 852.974,0.616 852.968,0.617C852.956,0.618 852.94,0.62 852.918,0.623C852.874,0.628 852.81,0.635 852.726,0.645C852.558,0.665 852.306,0.695 851.976,0.736C851.316,0.817 850.338,0.941 849.062,1.11C846.51,1.448 842.76,1.968 837.962,2.699C828.368,4.16 814.578,6.464 797.774,9.836C764.174,16.579 718.498,27.6 670.218,44.711C573.83,78.874 466.318,137.573 424.55,235.694L429.048,237.608Z" fill="#2C698D"/>
<path d="M447.706,247.642L449.954,248.6L449.954,248.598L447.706,247.642ZM0.398,511.3C0.735,513.72 0.737,513.72 0.741,513.72C0.744,513.72 0.748,513.72 0.754,513.718C0.766,513.716 0.783,513.714 0.805,513.712C0.85,513.704 0.917,513.696 1.004,513.682C1.179,513.658 1.439,513.62 1.781,513.57C2.465,513.468 3.478,513.314 4.8,513.106C7.446,512.688 11.332,512.048 16.306,511.158C26.254,509.38 40.558,506.6 58.005,502.594C92.892,494.584 140.37,481.668 190.72,462.038C291.28,422.83 403.922,356.602 449.954,248.6L445.458,246.684C400.236,352.786 289.224,418.386 188.945,457.484C138.874,477.004 91.636,489.858 56.911,497.83C39.551,501.816 25.326,504.58 15.446,506.348C10.506,507.232 6.653,507.866 4.038,508.278C2.731,508.484 1.733,508.636 1.064,508.734C0.73,508.784 0.477,508.82 0.309,508.844C0.225,508.856 0.163,508.866 0.121,508.872C0.101,508.874 0.085,508.876 0.075,508.878C0.07,508.878 0.067,508.88 0.064,508.88C0.062,508.88 0.062,508.88 0.398,511.3ZM449.954,248.598C492.862,147.833 603.778,86.98 704.648,51.312C754.998,33.508 802.66,22.045 837.738,15.032C855.276,11.526 869.66,9.135 879.656,7.62C884.654,6.862 888.554,6.324 891.2,5.976C892.524,5.802 893.534,5.675 894.212,5.592C894.552,5.551 894.808,5.52 894.978,5.5C895.062,5.49 895.126,5.482 895.168,5.478C895.19,5.475 895.204,5.473 895.214,5.472C895.22,5.472 895.224,5.471 895.226,5.471C895.228,5.471 895.228,5.471 894.952,3.042C894.676,0.614 894.674,0.615 894.67,0.615C894.668,0.615 894.662,0.616 894.658,0.617C894.646,0.618 894.628,0.62 894.606,0.623C894.56,0.628 894.492,0.636 894.404,0.646C894.228,0.667 893.964,0.698 893.618,0.741C892.926,0.826 891.902,0.954 890.564,1.13C887.886,1.483 883.954,2.025 878.924,2.787C868.862,4.312 854.402,6.717 836.78,10.24C801.544,17.283 753.646,28.802 703.02,46.704C601.936,82.447 489.228,143.893 445.458,246.684L449.954,248.598Z" fill="#2C698D"/>
</svg>
