<svg width="54" height="58" viewBox="0 0 54 58" fill="none" xmlns="http://www.w3.org/2000/svg" xmlns:xlink="http://www.w3.org/1999/xlink">
<path d="M7.3,14.585C8.711,13.532 10.839,13.734 12.107,14.85L10.653,12.597C9.483,10.817 9.902,8.892 11.572,7.642C13.242,6.398 17.974,9.744 17.974,9.744C16.794,7.947 17.015,5.669 18.7,4.408C20.385,3.152 22.709,3.586 23.89,5.387L39.538,28.966L37.544,49.589L20.9,43.115L6.382,20.156C5.191,18.347 5.603,15.853 7.3,14.585Z" fill="#EF9645"/>
<path d="M4.047,27.702C4.047,27.702 2.347,25.059 4.826,23.247C7.303,21.436 9.001,24.077 9.001,24.077L16.887,36.344C17.159,35.86 17.456,35.383 17.788,34.912L6.843,17.889C6.843,17.889 5.145,15.248 7.623,13.436C10.099,11.624 11.798,14.266 11.798,14.266L22.092,30.279C22.475,29.946 22.867,29.611 23.271,29.283L11.337,10.716C11.337,10.716 9.638,8.075 12.116,6.263C14.592,4.451 16.291,7.093 16.291,7.093L28.225,25.656C28.664,25.37 29.098,25.121 29.533,24.859L18.378,7.508C18.378,7.508 16.68,4.866 19.156,3.055C21.633,1.243 23.331,3.884 23.331,3.884L35.126,22.232L36.919,25.022C29.488,30.459 28.781,40.686 33.026,47.291C33.875,48.612 35.114,47.707 35.114,47.707C30.018,39.78 31.574,30.872 39.006,25.437L36.815,13.74C36.815,13.74 35.997,10.659 38.885,9.784C41.774,8.911 42.594,11.993 42.594,11.993L45.125,20.008C46.128,23.186 47.195,26.353 48.609,29.349C52.599,37.806 50.215,48.317 42.692,53.823C34.485,59.825 23.265,57.594 17.636,48.841L4.047,27.702Z" fill="#FFDC5D"/>
<path d="M18.022,51.258C12.015,51.258 5.945,44.784 5.945,38.376C5.945,37.491 5.337,36.775 4.506,36.775C3.676,36.775 2.941,37.491 2.941,38.376C2.941,47.987 9.012,54.462 18.022,54.462C18.853,54.462 19.524,53.679 19.524,52.793C19.524,51.907 18.853,51.258 18.022,51.258Z" fill="#5DADEC"/>
<path d="M10.512,54.395C6.007,54.395 3.003,51.191 3.003,46.386C3.003,45.5 2.332,44.784 1.502,44.784C0.671,44.784 0,45.5 0,46.386C0,52.793 4.505,57.598 10.512,57.598C11.343,57.598 12.014,56.882 12.014,55.997C12.014,55.111 11.343,54.395 10.512,54.395ZM36.042,3.136C35.213,3.136 34.54,3.854 34.54,4.738C34.54,5.622 35.213,6.34 36.042,6.34C42.049,6.34 48.056,12.089 48.056,19.155C48.056,20.039 48.729,20.756 49.558,20.756C50.387,20.756 51.06,20.039 51.06,19.155C51.06,10.322 45.053,3.136 36.042,3.136Z" fill="#5DADEC"/>
<path d="M43.551,0C42.722,0 42.049,0.65 42.049,1.535C42.049,2.419 42.722,3.204 43.551,3.204C48.056,3.204 50.996,6.768 50.996,11.145C50.996,12.03 51.731,12.747 52.561,12.747C53.392,12.747 54,12.03 54,11.145C54,4.999 49.558,0 43.551,0Z" fill="#5DADEC"/>
</svg>
