<svg width="54" height="54" viewBox="0 0 54 54" fill="none" xmlns="http://www.w3.org/2000/svg" xmlns:xlink="http://www.w3.org/1999/xlink">
<path d="M7.3,13.673C8.711,12.687 10.839,12.876 12.107,13.923L10.653,11.81C9.483,10.141 9.902,8.336 11.572,7.165C13.242,5.998 17.974,9.135 17.974,9.135C16.794,7.45 17.015,5.315 18.7,4.133C20.385,2.955 22.709,3.362 23.89,5.05L39.538,27.156L37.544,46.491L20.9,40.421L6.382,18.897C5.191,17.201 5.603,14.863 7.3,13.673Z" fill="#EF9645"/>
<path d="M4.047,25.971C4.047,25.971 2.347,23.493 4.826,21.795C7.303,20.096 9.001,22.573 9.001,22.573L16.887,34.073C17.159,33.62 17.456,33.172 17.788,32.731L6.843,16.772C6.843,16.772 5.145,14.295 7.623,12.597C10.099,10.898 11.798,13.375 11.798,13.375L22.092,28.388C22.475,28.075 22.867,27.761 23.271,27.454L11.337,10.047C11.337,10.047 9.638,7.57 12.116,5.872C14.592,4.173 16.291,6.65 16.291,6.65L28.225,24.054C28.664,23.785 29.098,23.552 29.533,23.306L18.378,7.039C18.378,7.039 16.68,4.562 19.156,2.864C21.633,1.165 23.331,3.642 23.331,3.642L35.126,20.843L36.919,23.459C29.488,28.556 28.781,38.144 33.026,44.336C33.875,45.575 35.114,44.727 35.114,44.727C30.018,37.294 31.574,28.943 39.006,23.848L36.815,12.882C36.815,12.882 35.997,9.993 38.885,9.173C41.774,8.354 42.594,11.244 42.594,11.244L45.125,18.758C46.128,21.738 47.195,24.707 48.609,27.515C52.599,35.444 50.215,45.299 42.692,50.46C34.485,56.087 23.265,53.995 17.636,45.79L4.047,25.971Z" fill="#FFDC5D"/>
<path d="M18.021,48.056C12.014,48.056 5.944,41.986 5.944,35.979C5.944,35.149 5.336,34.477 4.505,34.477C3.675,34.477 2.94,35.149 2.94,35.979C2.94,44.989 9.011,51.06 18.021,51.06C18.851,51.06 19.523,50.325 19.523,49.495C19.523,48.664 18.851,48.056 18.021,48.056Z" fill="#5DADEC"/>
<path d="M10.512,50.996C6.007,50.996 3.004,47.993 3.004,43.488C3.004,42.657 2.332,41.986 1.502,41.986C0.671,41.986 0,42.657 0,43.488C0,49.495 4.505,54 10.512,54C11.343,54 12.014,53.329 12.014,52.498C12.014,51.668 11.343,50.996 10.512,50.996ZM36.042,2.94C35.213,2.94 34.54,3.613 34.54,4.442C34.54,5.271 35.213,5.944 36.042,5.944C42.049,5.944 48.056,11.334 48.056,17.958C48.056,18.787 48.729,19.46 49.558,19.46C50.387,19.46 51.06,18.787 51.06,17.958C51.06,9.677 45.053,2.94 36.042,2.94Z" fill="#5DADEC"/>
<path d="M43.551,0C42.722,0 42.049,0.61 42.049,1.439C42.049,2.268 42.722,3.003 43.551,3.003C48.056,3.003 50.996,6.345 50.996,10.449C50.996,11.278 51.731,11.951 52.561,11.951C53.392,11.951 54,11.278 54,10.449C54,4.687 49.558,0 43.551,0Z" fill="#5DADEC"/>
</svg>
