<svg width="34" height="24" viewBox="0 0 34 24" fill="none" xmlns="http://www.w3.org/2000/svg" xmlns:xlink="http://www.w3.org/1999/xlink">
<path d="M32.061,16.061C32.646,15.475 32.646,14.525 32.061,13.939C31.475,13.354 30.525,13.354 29.939,13.939L32.061,16.061ZM24,22L22.939,23.061C23.525,23.646 24.475,23.646 25.061,23.061L24,22ZM18.061,13.939C17.475,13.354 16.525,13.354 15.939,13.939C15.354,14.525 15.354,15.475 15.939,16.061L18.061,13.939ZM29.939,13.939L22.939,20.939L25.061,23.061L32.061,16.061L29.939,13.939ZM25.061,20.939L18.061,13.939L15.939,16.061L22.939,23.061L25.061,20.939Z" fill="#272643"/>
<path d="M22.5,22C22.5,22.828 23.172,23.5 24,23.5C24.828,23.5 25.5,22.828 25.5,22L22.5,22ZM24,10L25.5,10L24,10ZM16,2L16,0.5L16,2ZM2,0.5C1.172,0.5 0.5,1.172 0.5,2C0.5,2.828 1.172,3.5 2,3.5L2,0.5ZM25.5,22L25.5,10L22.5,10L22.5,22L25.5,22ZM25.5,10C25.5,7.48 24.499,5.064 22.718,3.282L20.596,5.404C21.815,6.623 22.5,8.276 22.5,10L25.5,10ZM22.718,3.282C20.936,1.501 18.52,0.5 16,0.5L16,3.5C17.724,3.5 19.377,4.185 20.596,5.404L22.718,3.282ZM16,0.5L2,0.5L2,3.5L16,3.5L16,0.5Z" fill="#272643"/>
</svg>
