<svg width="144" height="130" viewBox="0 0 144 130" fill="none" xmlns="http://www.w3.org/2000/svg" xmlns:xlink="http://www.w3.org/1999/xlink">
<path d="M144,64.134C144,54.594 132.054,45.552 113.736,39.948C117.966,21.282 116.088,6.426 107.808,1.668C105.802,0.544 103.531,-0.021 101.232,0.03L101.232,6.57C102.582,6.57 103.668,6.84 104.58,7.338C108.57,9.63 110.304,18.342 108.954,29.556C108.63,32.316 108.102,35.22 107.454,38.184C101.32,36.706 95.094,35.637 88.818,34.986C85.079,29.828 81,24.925 76.608,20.31C86.178,11.418 95.16,6.546 101.268,6.546L101.268,0C93.192,0 82.626,5.754 71.94,15.732C61.26,5.82 50.688,0.12 42.618,0.12L42.618,6.66C48.696,6.66 57.708,11.508 67.278,20.34C63.168,24.66 59.058,29.556 55.152,34.986C48.863,35.63 42.626,36.709 36.486,38.214C35.837,35.405 35.326,32.565 34.956,29.706C33.576,18.486 35.28,9.774 39.246,7.458C40.122,6.93 41.268,6.69 42.618,6.69L42.618,0.15C40.158,0.15 37.92,0.678 35.988,1.788C27.738,6.546 25.89,21.366 30.144,39.978C11.886,45.618 0,54.624 0,64.134C0,73.674 11.946,82.716 30.264,88.314C26.034,106.986 27.912,121.842 36.192,126.594C38.1,127.71 40.332,128.238 42.792,128.238C50.868,128.238 61.434,122.484 72.12,112.506C82.8,122.424 93.366,128.118 101.442,128.118C103.759,128.167 106.047,127.6 108.072,126.474C116.322,121.722 118.17,106.902 113.916,88.29C132.114,82.686 144,73.644 144,64.134ZM105.78,44.556C104.64,48.479 103.318,52.347 101.82,56.148C99.367,51.377 96.674,46.733 93.75,42.234C97.92,42.852 101.94,43.614 105.786,44.556L105.78,44.556ZM92.34,75.816C90.142,79.653 87.782,83.394 85.266,87.03C76.46,87.806 67.602,87.816 58.794,87.06C53.742,79.843 49.323,72.203 45.588,64.224C49.317,56.227 53.717,48.559 58.74,41.304C67.544,40.526 76.4,40.514 85.206,41.268C87.642,44.76 90.024,48.492 92.31,52.428C94.542,56.268 96.57,60.168 98.418,64.104C96.549,68.088 94.522,71.995 92.34,75.816L92.34,75.816ZM101.82,72C103.404,75.93 104.76,79.866 105.87,83.682C102.03,84.624 97.974,85.416 93.78,86.028C96.691,81.489 99.375,76.807 101.82,72L101.82,72ZM72.06,103.32C69.33,100.5 66.6,97.362 63.9,93.924C66.54,94.044 69.24,94.134 71.97,94.134C74.73,94.134 77.46,94.074 80.13,93.924C77.49,97.362 74.76,100.5 72.06,103.32ZM50.22,86.028C46.174,85.442 42.158,84.669 38.184,83.712C39.27,79.926 40.62,76.02 42.144,72.12C43.35,74.46 44.616,76.812 45.996,79.164C47.376,81.51 48.78,83.802 50.22,86.028ZM71.91,24.948C74.64,27.768 77.37,30.906 80.07,34.344C77.43,34.224 74.73,34.134 72,34.134C69.24,34.134 66.51,34.194 63.84,34.344C66.48,30.906 69.21,27.768 71.91,24.948ZM50.19,42.24C47.279,46.77 44.596,51.441 42.15,56.238C40.609,52.413 39.258,48.514 38.1,44.556C41.94,43.644 45.996,42.852 50.19,42.24ZM23.628,78.984C13.236,74.556 6.516,68.742 6.516,64.134C6.516,59.526 13.236,53.682 23.628,49.284C26.148,48.198 28.908,47.226 31.758,46.32C33.432,52.068 35.634,58.056 38.358,64.194C35.786,69.967 33.611,75.909 31.848,81.978C29.061,81.115 26.317,80.116 23.628,78.984L23.628,78.984ZM39.42,120.924C35.43,118.644 33.696,109.92 35.046,98.712C35.37,95.952 35.898,93.042 36.546,90.078C42.294,91.488 48.576,92.574 55.182,93.282C58.921,98.44 63,103.343 67.392,107.958C57.822,116.85 48.84,121.722 42.732,121.722C41.58,121.735 40.442,121.463 39.42,120.93L39.42,120.924ZM109.044,98.562C110.424,109.776 108.72,118.494 104.754,120.81C103.878,121.338 102.732,121.572 101.382,121.572C95.304,121.572 86.292,116.73 76.722,107.892C81.096,103.296 85.147,98.405 88.848,93.252C95.137,92.608 101.374,91.529 107.514,90.024C108.192,92.988 108.714,95.832 109.044,98.562L109.044,98.562ZM120.342,78.984C117.822,80.07 115.062,81.042 112.212,81.948C110.418,75.848 108.213,69.876 105.612,64.074C108.312,57.972 110.478,52.014 112.122,46.29C114.918,47.156 117.671,48.155 120.372,49.284C130.764,53.712 137.484,59.526 137.484,64.134C137.454,68.742 130.734,74.586 120.342,78.984L120.342,78.984Z" fill="#E3F6F5"/>
<path d="M71.97,77.55C75.528,77.55 78.94,76.137 81.456,73.621C83.972,71.105 85.386,67.692 85.386,64.134C85.386,60.576 83.972,57.163 81.456,54.647C78.94,52.131 75.528,50.718 71.97,50.718C68.412,50.718 64.999,52.131 62.483,54.647C59.967,57.163 58.554,60.576 58.554,64.134C58.554,67.692 59.967,71.105 62.483,73.621C64.999,76.137 68.412,77.55 71.97,77.55L71.97,77.55Z" fill="#E3F6F5"/>
</svg>
