<svg width="146" height="130" viewBox="0 0 146 130" fill="none" xmlns="http://www.w3.org/2000/svg" xmlns:xlink="http://www.w3.org/1999/xlink">
<path d="M144.162,64.134C144.162,54.594 132.216,45.552 113.898,39.948C118.128,21.282 116.25,6.426 107.97,1.668C105.964,0.544 103.693,-0.021 101.394,0.03L101.394,6.57C102.744,6.57 103.83,6.84 104.742,7.338C108.732,9.63 110.466,18.342 109.116,29.556C108.792,32.316 108.264,35.22 107.616,38.184C101.482,36.706 95.256,35.637 88.98,34.986C85.241,29.828 81.162,24.925 76.77,20.31C86.34,11.418 95.322,6.546 101.43,6.546L101.43,0C93.354,0 82.788,5.754 72.102,15.732C61.422,5.82 50.85,0.12 42.78,0.12L42.78,6.66C48.858,6.66 57.87,11.508 67.44,20.34C63.33,24.66 59.22,29.556 55.314,34.986C49.025,35.63 42.788,36.709 36.648,38.214C35.999,35.405 35.489,32.565 35.118,29.706C33.738,18.486 35.442,9.774 39.408,7.458C40.284,6.93 41.43,6.69 42.78,6.69L42.78,0.15C40.32,0.15 38.082,0.678 36.15,1.788C27.9,6.546 26.052,21.366 30.306,39.978C12.048,45.618 0.162,54.624 0.162,64.134C0.162,73.674 12.108,82.716 30.426,88.314C26.196,106.986 28.074,121.842 36.354,126.594C38.262,127.71 40.494,128.238 42.954,128.238C51.03,128.238 61.596,122.484 72.282,112.506C82.962,122.424 93.528,128.118 101.604,128.118C103.921,128.167 106.209,127.6 108.234,126.474C116.484,121.722 118.332,106.902 114.078,88.29C132.276,82.686 144.162,73.644 144.162,64.134ZM105.942,44.556C104.802,48.479 103.481,52.347 101.982,56.148C99.529,51.377 96.836,46.733 93.912,42.234C98.082,42.852 102.102,43.614 105.948,44.556L105.942,44.556ZM92.502,75.816C90.305,79.653 87.944,83.394 85.428,87.03C76.622,87.806 67.764,87.816 58.956,87.06C53.904,79.843 49.485,72.203 45.75,64.224C49.48,56.227 53.879,48.559 58.902,41.304C67.707,40.526 76.562,40.514 85.368,41.268C87.804,44.76 90.186,48.492 92.472,52.428C94.704,56.268 96.732,60.168 98.58,64.104C96.712,68.088 94.684,71.995 92.502,75.816L92.502,75.816ZM101.982,72C103.566,75.93 104.922,79.866 106.032,83.682C102.192,84.624 98.136,85.416 93.942,86.028C96.854,81.489 99.537,76.807 101.982,72L101.982,72ZM72.222,103.32C69.492,100.5 66.762,97.362 64.062,93.924C66.702,94.044 69.402,94.134 72.132,94.134C74.892,94.134 77.622,94.074 80.292,93.924C77.652,97.362 74.922,100.5 72.222,103.32ZM50.382,86.028C46.337,85.442 42.32,84.669 38.346,83.712C39.432,79.926 40.782,76.02 42.306,72.12C43.512,74.46 44.778,76.812 46.158,79.164C47.538,81.51 48.942,83.802 50.382,86.028ZM72.072,24.948C74.802,27.768 77.532,30.906 80.232,34.344C77.592,34.224 74.892,34.134 72.162,34.134C69.402,34.134 66.672,34.194 64.002,34.344C66.642,30.906 69.372,27.768 72.072,24.948ZM50.352,42.24C47.441,46.77 44.758,51.441 42.312,56.238C40.771,52.413 39.42,48.514 38.262,44.556C42.102,43.644 46.158,42.852 50.352,42.24ZM23.79,78.984C13.398,74.556 6.678,68.742 6.678,64.134C6.678,59.526 13.398,53.682 23.79,49.284C26.31,48.198 29.07,47.226 31.92,46.32C33.594,52.068 35.796,58.056 38.52,64.194C35.948,69.967 33.773,75.909 32.01,81.978C29.223,81.115 26.48,80.116 23.79,78.984L23.79,78.984ZM39.582,120.924C35.592,118.644 33.858,109.92 35.208,98.712C35.532,95.952 36.06,93.042 36.708,90.078C42.456,91.488 48.738,92.574 55.344,93.282C59.083,98.44 63.162,103.343 67.554,107.958C57.984,116.85 49.002,121.722 42.894,121.722C41.742,121.735 40.604,121.463 39.582,120.93L39.582,120.924ZM109.206,98.562C110.586,109.776 108.882,118.494 104.916,120.81C104.04,121.338 102.894,121.572 101.544,121.572C95.466,121.572 86.454,116.73 76.884,107.892C81.258,103.296 85.309,98.405 89.01,93.252C95.299,92.608 101.536,91.529 107.676,90.024C108.354,92.988 108.876,95.832 109.206,98.562L109.206,98.562ZM120.504,78.984C117.984,80.07 115.224,81.042 112.374,81.948C110.58,75.848 108.375,69.876 105.774,64.074C108.474,57.972 110.64,52.014 112.284,46.29C115.08,47.156 117.834,48.155 120.534,49.284C130.926,53.712 137.646,59.526 137.646,64.134C137.616,68.742 130.896,74.586 120.504,78.984L120.504,78.984Z" fill="#000000"/>
<path d="M72.132,77.55C75.69,77.55 79.102,76.137 81.618,73.621C84.134,71.105 85.548,67.692 85.548,64.134C85.548,60.576 84.134,57.163 81.618,54.647C79.102,52.131 75.69,50.718 72.132,50.718C68.574,50.718 65.161,52.131 62.645,54.647C60.129,57.163 58.716,60.576 58.716,64.134C58.716,67.692 60.129,71.105 62.645,73.621C65.161,76.137 68.574,77.55 72.132,77.55L72.132,77.55Z" fill="#000000"/>
</svg>
