<svg width="118" height="134" viewBox="0 0 118 134" fill="none" xmlns="http://www.w3.org/2000/svg" xmlns:xlink="http://www.w3.org/1999/xlink">
<path d="M107.136,119.612L117.703,0L0.162,0L0.3,1.552L10.713,119.629L10.801,120.611L58.488,134L59.239,134L107.037,120.6L107.125,119.617L107.136,119.612ZM59.035,26.124L93.189,26.124L92.161,38.184L58.466,53.326L59.029,56.051L90.648,56.051L87.008,98.211L58.913,106.083L30.83,98.222L29.063,78.033L40.624,78.033L41.552,88.267L41.64,89.261L58.681,93.839L59.416,93.839L76.269,89.104L76.352,88.116L77.943,69.211L78.07,67.67L28.096,67.67L27.047,55.537L61.896,40.457L61.344,37.721L25.55,37.721L24.528,26.108L58.996,26.108L59.035,26.124Z" fill="#000000"/>
</svg>
