<svg width="42" height="42" viewBox="0 0 42 42" fill="none" xmlns="http://www.w3.org/2000/svg" xmlns:xlink="http://www.w3.org/1999/xlink">
<path d="M21,0.52C9.399,0.52 0,9.927 0,21.52C0,30.803 6.016,38.672 14.355,41.448C15.409,41.646 15.789,40.996 15.789,40.434C15.789,39.936 15.778,38.617 15.77,36.866C9.925,38.131 8.694,34.042 8.694,34.042C7.737,31.622 6.356,30.973 6.356,30.973C4.456,29.674 6.507,29.702 6.507,29.702C8.613,29.845 9.72,31.861 9.72,31.861C11.593,35.074 14.634,34.145 15.838,33.604C16.022,32.251 16.569,31.32 17.165,30.802C12.503,30.276 7.601,28.471 7.601,20.424C7.601,18.126 8.414,16.254 9.76,14.784C9.527,14.258 8.816,12.118 9.945,9.226C9.945,9.226 11.702,8.665 15.72,11.379C17.431,10.914 19.196,10.675 20.97,10.669C22.755,10.681 24.538,10.915 26.22,11.379C30.214,8.665 31.97,9.226 31.97,9.226C33.097,12.118 32.386,14.256 32.181,14.784C33.513,16.254 34.327,18.127 34.327,20.424C34.327,28.489 29.418,30.268 24.751,30.781C25.481,31.41 26.165,32.702 26.165,34.665C26.165,37.473 26.138,39.736 26.138,40.42C26.138,40.966 26.506,41.622 27.587,41.411C35.987,38.664 41.997,30.789 41.997,21.519C41.997,9.925 32.599,0.519 20.997,0.519L21,0.52Z" fill="#F2F4F3"/>
</svg>
