<svg width="284" height="52" viewBox="0 0 284 52" fill="none" xmlns="http://www.w3.org/2000/svg" xmlns:xlink="http://www.w3.org/1999/xlink">
<path d="M64.834,40.852C60.289,35.519 53.083,24.082 49.626,18.516C46.169,12.95 32.667,25.417 32.667,25.417C22.347,33.019 12.105,43.224 7.044,48.553C5.415,50.432 2.567,50.635 0.688,49.007C-1.19,47.378 -1.394,44.53 0.235,42.651C5.818,35.591 18.063,20.979 29.874,11.874C36.848,6.499 43.944,3.322 49.626,3.099C52.695,2.99 55.747,4.212 58.712,6.65C63.167,10.314 67.706,18.323 72.757,25.765C74.545,28.401 76.378,30.975 78.471,33.017C80.07,34.576 81.716,35.929 83.754,36.27C88.461,37.074 92.323,34.766 95.994,31.616C102.541,26 108.422,17.852 114.677,11.497C120.601,5.477 126.93,0.968 134.075,-0.079C140.818,-1.195 145.627,1.209 149.605,5.553C153.197,9.475 155.916,15.658 159.128,21.842C162.037,27.443 165.337,33.319 172.403,34.771C178.008,36.009 182.635,34.272 186.869,31.438C194.385,26.407 200.823,18.286 207.741,11.8C213.987,5.944 220.631,1.321 228.099,-0.301C231.669,-1.077 235.981,0.129 240.365,4.134C244.709,8.101 250.097,15.916 258.395,19.708C262.755,21.7 268.025,22.344 274.517,20.223C278.217,18.99 282.221,20.992 283.455,24.692C284.687,28.392 282.685,32.397 278.985,33.63C268.359,37.242 259.697,36.019 252.493,32.835C243.891,29.032 237.501,22.039 232.529,17.023C226.909,11.351 219.127,21.465 214.679,26.018C208.421,32.424 202.237,39.388 195.281,44.026C187.655,49.112 179.178,51.677 169.115,49.365C163.966,48.115 159.839,45.763 156.475,42.63C149.523,36.154 146.116,26.132 142.202,18.516C140.616,15.432 139.465,12.36 136.061,12.833C129.471,13.916 124.543,20.173 119.367,26.492C112.949,34.327 106.555,42.661 99.124,47.236C93.823,50.5 88.008,52.007 81.471,51.111C75.116,50.211 69.527,46.36 64.834,40.852Z" fill="#2C698D"/>
</svg>
