<svg width="38" height="36" viewBox="0 0 38 36" fill="none" xmlns="http://www.w3.org/2000/svg" xmlns:xlink="http://www.w3.org/1999/xlink">
<path d="M24.195,2.117C24.243,1.961 24.26,1.796 24.245,1.632C24.229,1.469 24.182,1.31 24.105,1.165C24.028,1.02 23.924,0.891 23.797,0.787C23.671,0.682 23.525,0.603 23.368,0.555C23.211,0.507 23.046,0.49 22.882,0.505C22.719,0.521 22.56,0.568 22.415,0.645C22.27,0.722 22.141,0.827 22.037,0.953C21.932,1.08 21.853,1.226 21.805,1.382L11.805,33.883C11.708,34.199 11.74,34.542 11.895,34.835C12.051,35.128 12.316,35.348 12.633,35.445C12.95,35.543 13.292,35.51 13.585,35.355C13.878,35.2 14.098,34.934 14.195,34.618L24.195,2.117L24.195,2.117ZM10.135,8.365C10.252,8.481 10.344,8.619 10.407,8.771C10.47,8.923 10.503,9.086 10.503,9.25C10.503,9.414 10.47,9.577 10.407,9.729C10.344,9.881 10.252,10.019 10.135,10.135L2.268,18L10.135,25.865C10.37,26.1 10.502,26.418 10.502,26.75C10.502,27.082 10.37,27.4 10.135,27.635C9.901,27.87 9.582,28.002 9.25,28.002C8.918,28.002 8.6,27.87 8.365,27.635L-0.385,18.885C-0.501,18.769 -0.593,18.631 -0.656,18.479C-0.72,18.327 -0.752,18.164 -0.752,18C-0.752,17.836 -0.72,17.673 -0.656,17.521C-0.593,17.369 -0.501,17.231 -0.385,17.115L8.365,8.365C8.481,8.249 8.619,8.156 8.771,8.093C8.923,8.03 9.086,7.998 9.25,7.998C9.415,7.998 9.578,8.03 9.729,8.093C9.881,8.156 10.019,8.249 10.135,8.365L10.135,8.365ZM25.865,8.365C25.749,8.481 25.656,8.619 25.593,8.771C25.53,8.923 25.498,9.086 25.498,9.25C25.498,9.414 25.53,9.577 25.593,9.729C25.656,9.881 25.749,10.019 25.865,10.135L33.733,18L25.865,25.865C25.749,25.981 25.657,26.119 25.594,26.271C25.531,26.423 25.499,26.586 25.499,26.75C25.499,26.914 25.531,27.077 25.594,27.229C25.657,27.381 25.749,27.519 25.865,27.635C25.981,27.751 26.119,27.843 26.271,27.906C26.423,27.969 26.586,28.002 26.75,28.002C26.915,28.002 27.077,27.969 27.229,27.906C27.381,27.843 27.519,27.751 27.635,27.635L36.385,18.885C36.502,18.769 36.594,18.631 36.657,18.479C36.72,18.327 36.752,18.164 36.752,18C36.752,17.836 36.72,17.673 36.657,17.521C36.594,17.369 36.502,17.231 36.385,17.115L27.635,8.365C27.519,8.249 27.381,8.156 27.229,8.093C27.077,8.03 26.915,7.998 26.75,7.998C26.586,7.998 26.423,8.03 26.271,8.093C26.119,8.156 25.981,8.249 25.865,8.365L25.865,8.365Z" fill="#FFFFFF"/>
</svg>
