<svg width="42" height="40" viewBox="0 0 42 40" fill="none" xmlns="http://www.w3.org/2000/svg" xmlns:xlink="http://www.w3.org/1999/xlink">
<path d="M9.003,39.461L0.631,39.461L0.631,12.499L9.003,12.499L9.003,39.461ZM4.812,8.821C2.135,8.821 -0.037,6.603 -0.037,3.926C-0.037,2.64 0.474,1.406 1.383,0.497C2.293,-0.412 3.526,-0.923 4.812,-0.923C6.098,-0.923 7.331,-0.412 8.241,0.497C9.15,1.406 9.661,2.64 9.661,3.926C9.661,6.603 7.489,8.821 4.812,8.821ZM40.339,39.461L31.985,39.461L31.985,26.336C31.985,23.208 31.921,19.197 27.632,19.197C23.279,19.197 22.611,22.595 22.611,26.111L22.611,39.461L14.248,39.461L14.248,12.499L22.277,12.499L22.277,16.177L22.394,16.177C23.511,14.058 26.242,11.822 30.315,11.822C38.788,11.822 40.346,17.403 40.346,24.65L40.346,39.461L40.339,39.461Z" fill="#000000"/>
</svg>
