<svg width="32" height="32" viewBox="0 0 32 32" fill="none" xmlns="http://www.w3.org/2000/svg" xmlns:xlink="http://www.w3.org/1999/xlink">
<path d="M2,16C2,19.713 3.475,23.274 6.1,25.899C8.726,28.525 12.287,30 16,30C19.713,30 23.274,28.525 25.899,25.899C28.525,23.274 30,19.713 30,16C30,12.287 28.525,8.726 25.899,6.101C23.274,3.475 19.713,2 16,2C12.287,2 8.726,3.475 6.1,6.101C3.475,8.726 2,12.287 2,16L2,16ZM32,16C32,20.243 30.314,24.313 27.314,27.314C24.313,30.314 20.243,32 16,32C11.757,32 7.687,30.314 4.686,27.314C1.686,24.313 0,20.243 0,16C0,11.757 1.686,7.687 4.686,4.686C7.687,1.686 11.757,0 16,0C20.243,0 24.313,1.686 27.314,4.686C30.314,7.687 32,11.757 32,16L32,16ZM17,9C17,8.735 16.895,8.48 16.707,8.293C16.52,8.105 16.265,8 16,8C15.735,8 15.48,8.105 15.293,8.293C15.105,8.48 15,8.735 15,9L15,20.586L10.708,16.292C10.52,16.104 10.266,15.999 10,15.999C9.734,15.999 9.48,16.104 9.292,16.292C9.104,16.48 8.999,16.734 8.999,17C8.999,17.266 9.104,17.52 9.292,17.708L15.292,23.708C15.385,23.801 15.495,23.875 15.617,23.925C15.738,23.976 15.868,24.002 16,24.002C16.132,24.002 16.262,23.976 16.383,23.925C16.505,23.875 16.615,23.801 16.708,23.708L22.708,17.708C22.896,17.52 23.001,17.266 23.001,17C23.001,16.734 22.896,16.48 22.708,16.292C22.52,16.104 22.266,15.999 22,15.999C21.734,15.999 21.48,16.104 21.292,16.292L17,20.586L17,9Z" clip-rule="evenodd" fill-rule="evenodd" fill="#D3FF56"/>
</svg>
