<svg width="100" height="118" viewBox="0 0 100 118" fill="none" xmlns="http://www.w3.org/2000/svg" xmlns:xlink="http://www.w3.org/1999/xlink">
<path d="M49.716,70.306C47.702,71.232 45.495,72.438 41.077,74.862C39.402,75.804 37.652,76.747 36.023,77.634C35.91,77.521 35.792,77.379 35.679,77.262C26.94,67.924 10.776,61.328 11.463,48.787C11.718,44.218 13.289,32.225 42.505,17.661C66.55,5.81 85.682,9.093 88.986,16.375C93.735,26.756 78.731,46.073 53.899,48.875C51.151,49.432 48.312,49.365 45.594,48.678C42.875,47.99 40.345,46.701 38.192,44.905C36.877,43.477 36.68,43.393 36.194,43.678C35.395,44.097 35.91,45.391 36.194,46.132C37.142,47.847 38.423,49.354 39.963,50.566C41.503,51.777 43.27,52.667 45.16,53.184C54.932,55.296 65.12,54.287 74.288,50.298C89.338,44.474 101.088,28.28 97.646,14.705C94.191,0.94 71.344,-3.599 49.728,4.081C36.191,8.643 23.684,15.824 12.92,25.215C1.011,36.354 -0.873,46.035 -0.103,50.089C2.669,64.481 22.51,73.849 30.466,80.788C30.047,81.018 29.695,81.206 29.381,81.386C25.412,83.359 10.278,91.269 6.505,99.635C2.221,109.116 7.192,115.912 10.475,116.825C15.422,118.01 20.616,117.621 25.332,115.711C30.047,113.801 34.048,110.466 36.776,106.172C39.093,102.611 40.516,98.544 40.923,94.315C41.331,90.087 40.711,85.822 39.117,81.885C40.058,81.134 41.061,80.466 42.115,79.887C44.142,78.69 46.073,77.509 47.785,76.596C53.649,73.849 60.049,72.435 66.524,72.454C80.117,74.054 82.801,82.534 82.286,86.106C82.045,87.373 81.536,88.574 80.792,89.628C80.048,90.682 79.087,91.564 77.973,92.215C77.031,92.814 76.717,93.015 76.801,93.442C76.914,94.07 77.37,94.041 78.17,93.928C80.212,93.282 82.011,92.034 83.331,90.348C84.651,88.661 85.43,86.614 85.565,84.477C85.984,76.102 77.998,66.914 63.861,66.998C59.628,67.005 55.437,67.84 51.525,69.456C50.897,69.716 50.287,69.995 49.695,70.294L49.716,70.306ZM29.511,103.132C24.997,108.044 18.716,109.899 16.002,108.329C13.071,106.654 14.231,99.388 19.771,94.192C23.052,91.235 26.599,88.587 30.365,86.282C31.023,85.863 31.994,85.31 33.163,84.607L33.477,84.435L34.163,84.016C35.151,87.329 35.241,90.845 34.424,94.204C33.606,97.563 31.911,100.644 29.511,103.132L29.511,103.132Z" fill="#000000"/>
</svg>
