<svg width="56" height="56" viewBox="0 0 56 56" fill="none" xmlns="http://www.w3.org/2000/svg" xmlns:xlink="http://www.w3.org/1999/xlink">
<path d="M12.536,56L0.926,56L0.926,18.612L12.536,18.612L12.536,56ZM6.724,13.512C3.012,13.512 0,10.436 0,6.724C0,4.941 0.708,3.23 1.969,1.969C3.23,0.708 4.941,0 6.724,0C8.507,0 10.218,0.708 11.479,1.969C12.74,3.23 13.448,4.941 13.448,6.724C13.448,10.436 10.436,13.512 6.724,13.512ZM55.988,56L44.404,56L44.404,37.8C44.404,33.462 44.316,27.9 38.368,27.9C32.332,27.9 31.406,32.612 31.406,37.488L31.406,56L19.808,56L19.808,18.612L30.942,18.612L30.942,23.712L31.104,23.712C32.654,20.774 36.44,17.674 42.088,17.674C53.838,17.674 55.998,25.412 55.998,35.462L55.998,56L55.988,56Z" fill="#000000"/>
</svg>
