<svg width="48" height="28" viewBox="0 0 48 28" fill="none" xmlns="http://www.w3.org/2000/svg" xmlns:xlink="http://www.w3.org/1999/xlink">
<path d="M23.361,20.78C22.443,22.222 21.563,23.633 19.59,25.004C18.535,25.744 16.106,27.189 12.653,27.189C6.066,27.189 0.75,22.4 0.75,13.981C0.75,6.623 5.751,0.811 12.794,0.811C15.647,0.811 18.182,1.797 20.049,3.277C21.775,4.65 22.584,6.024 23.289,7.257L18.36,9.72C18.007,8.911 17.582,8.065 16.493,7.151C15.294,6.199 14.098,5.918 13.075,5.918C9.06,5.918 6.947,9.651 6.947,13.806C6.947,19.266 9.731,21.976 13.075,21.976C16.315,21.976 17.62,19.722 18.463,18.28L23.361,20.78L23.361,20.78ZM40.629,1.585L47.25,1.585L38.622,26.449L32.284,26.449L23.762,1.585L30.383,1.585L35.525,19.266L40.629,1.585Z" fill="#FFFEB8"/>
</svg>
