<svg width="106" height="144" viewBox="0 0 106 144" fill="none" xmlns="http://www.w3.org/2000/svg" xmlns:xlink="http://www.w3.org/1999/xlink">
<path d="M33.276,111.353C33.276,111.353 27.768,114.561 37.186,115.637C48.598,116.951 54.435,116.766 66.999,114.372C66.999,114.372 70.297,116.46 74.919,118.265C46.726,130.338 11.122,117.54 33.271,111.353L33.276,111.353ZM29.824,95.603C29.824,95.603 23.637,100.17 33.06,101.129C45.277,102.393 54.88,102.515 71.544,99.306C71.544,99.306 73.843,101.628 77.479,102.911C43.401,112.869 5.43,103.685 29.829,95.603L29.824,95.603ZM58.863,68.864C65.797,76.856 57.031,84.051 57.031,84.051C57.031,84.051 74.658,74.93 66.571,63.545C59.007,52.902 53.193,47.633 84.594,29.417C84.594,29.417 35.305,41.724 58.858,68.868L58.863,68.864ZM96.132,123.026C96.132,123.026 100.213,126.374 91.654,128.979C75.387,133.898 23.943,135.374 9.646,129.164C4.516,126.936 14.146,123.822 17.17,123.188C20.334,122.486 22.138,122.63 22.138,122.63C16.419,118.598 -14.798,130.527 6.276,133.947C63.768,143.276 111.058,129.753 96.132,123.026L96.132,123.026ZM35.922,79.268C35.922,79.268 9.745,85.478 26.638,87.728C33.789,88.686 48.018,88.479 61.284,87.354C72.106,86.436 82.987,84.492 82.987,84.492C82.987,84.492 79.167,86.13 76.399,88.034C49.818,95.018 -1.527,91.76 13.26,84.614C25.752,78.588 35.922,79.268 35.922,79.268L35.922,79.268ZM82.866,105.516C109.866,91.454 97.374,77.976 88.68,79.808C86.542,80.226 85.584,80.631 85.584,80.631C85.584,80.631 86.358,79.385 87.883,78.849C105.132,72.779 118.398,96.728 82.326,106.223C82.326,106.2 82.753,105.849 82.866,105.521L82.866,105.516ZM66.576,0C66.576,0 81.534,14.954 52.374,37.967C29.01,56.435 47.05,66.96 52.374,78.984C38.734,66.677 28.726,55.854 35.431,45.774C45.295,30.938 72.601,23.765 66.576,0ZM38.568,143.555C64.492,145.193 104.308,142.619 105.276,130.361C105.276,130.361 103.444,135 83.824,138.699C61.702,142.871 34.396,142.376 18.201,139.707C18.201,139.707 21.531,142.448 38.563,143.555L38.568,143.555Z" fill="#000000"/>
</svg>
