<svg width="122" height="120" viewBox="0 0 122 120" fill="none" xmlns="http://www.w3.org/2000/svg" xmlns:xlink="http://www.w3.org/1999/xlink">
<path d="M109.392,86.352C94.578,106.086 62.946,99.426 42.66,100.38C42.66,100.38 39.066,100.584 35.454,101.178C35.454,101.178 36.822,100.596 38.568,99.99C52.812,95.064 59.544,94.074 68.202,89.628C84.462,81.3 100.65,63.15 103.944,44.298C97.752,62.43 78.924,78.036 61.782,84.372C50.052,88.704 28.83,92.916 28.824,92.916C28.536,92.768 28.25,92.616 27.966,92.46C13.536,85.44 13.116,54.18 39.33,44.106C50.826,39.69 61.812,42.114 74.238,39.156C87.486,36.006 102.834,26.076 109.068,13.092C116.058,33.84 124.458,66.288 109.392,86.352L109.392,86.352ZM109.644,6.672C107.968,10.69 105.823,14.497 103.254,18.012C97.669,12.256 90.985,7.68 83.598,4.556C76.211,1.432 68.272,-0.176 60.252,-0.174C27.114,-0.174 0.162,26.778 0.162,59.91C0.158,68.175 1.865,76.351 5.174,83.924C8.484,91.497 13.324,98.303 19.392,103.914L20.712,105.078C19.75,104.114 19.21,102.808 19.211,101.446C19.212,100.084 19.753,98.779 20.717,97.816C21.68,96.854 22.986,96.313 24.348,96.313C25.71,96.314 27.016,96.855 27.979,97.818C28.942,98.781 29.483,100.086 29.483,101.448C29.483,102.81 28.943,104.116 27.98,105.08C27.018,106.043 25.712,106.584 24.35,106.585C22.988,106.586 21.682,106.046 20.718,105.084L21.612,105.876C32.415,115.009 46.107,120.014 60.252,120C91.92,120 117.93,95.352 120.156,64.248C121.8,49.014 117.3,29.67 109.644,6.672Z" fill="#000000"/>
</svg>
