<svg width="128" height="126" viewBox="0 0 128 126" fill="none" xmlns="http://www.w3.org/2000/svg" xmlns:xlink="http://www.w3.org/1999/xlink">
<path d="M0.162,0L0.162,126L126.162,126L126.162,0L0.162,0ZM68.731,98.269C68.731,110.531 61.531,116.128 51.04,116.128C41.562,116.128 36.078,111.234 33.265,105.3L42.912,99.478C44.768,102.769 46.456,105.553 50.534,105.553C54.415,105.553 56.89,104.034 56.89,98.1L56.89,57.853L68.731,57.853L68.731,98.269L68.731,98.269ZM96.743,116.128C85.747,116.128 78.631,110.897 75.172,104.034L84.818,98.466C87.35,102.6 90.668,105.666 96.49,105.666C101.384,105.666 104.534,103.219 104.534,99.816C104.534,95.766 101.328,94.331 95.9,91.941L92.947,90.675C84.397,87.047 78.743,82.463 78.743,72.816C78.743,63.928 85.522,57.178 96.068,57.178C103.606,57.178 109.006,59.794 112.887,66.656L103.662,72.562C101.637,68.934 99.443,67.5 96.04,67.5C92.581,67.5 90.387,69.694 90.387,72.562C90.387,76.106 92.581,77.541 97.672,79.763L100.625,81.028C110.693,85.331 116.347,89.747 116.347,99.647C116.347,110.278 107.965,116.128 96.743,116.128L96.743,116.128Z" fill="#000000"/>
</svg>
