<svg width="38" height="36" viewBox="0 0 38 36" fill="none" xmlns="http://www.w3.org/2000/svg" xmlns:xlink="http://www.w3.org/1999/xlink">
<path d="M25.044,2.118C25.093,1.961 25.11,1.796 25.094,1.632C25.079,1.469 25.031,1.31 24.954,1.165C24.877,1.02 24.773,0.891 24.646,0.787C24.52,0.682 24.374,0.603 24.217,0.555C24.06,0.507 23.895,0.49 23.732,0.506C23.568,0.521 23.409,0.569 23.264,0.645C23.119,0.722 22.991,0.827 22.886,0.953C22.781,1.08 22.703,1.226 22.654,1.383L12.654,33.883C12.557,34.2 12.589,34.542 12.745,34.835C12.9,35.128 13.165,35.348 13.482,35.445C13.799,35.543 14.142,35.51 14.435,35.355C14.728,35.2 14.947,34.935 15.044,34.618L25.044,2.118L25.044,2.118ZM10.984,8.365C11.101,8.481 11.193,8.619 11.256,8.771C11.319,8.923 11.352,9.086 11.352,9.25C11.352,9.415 11.319,9.577 11.256,9.729C11.193,9.881 11.101,10.019 10.984,10.135L3.117,18L10.984,25.865C11.219,26.1 11.351,26.418 11.351,26.75C11.351,27.082 11.219,27.401 10.984,27.635C10.75,27.87 10.431,28.002 10.099,28.002C9.767,28.002 9.449,27.87 9.214,27.635L0.464,18.885C0.348,18.769 0.256,18.631 0.193,18.479C0.13,18.327 0.097,18.165 0.097,18C0.097,17.836 0.13,17.673 0.193,17.521C0.256,17.369 0.348,17.231 0.464,17.115L9.214,8.365C9.331,8.249 9.468,8.156 9.62,8.093C9.772,8.03 9.935,7.998 10.099,7.998C10.264,7.998 10.427,8.03 10.578,8.093C10.73,8.156 10.868,8.249 10.984,8.365L10.984,8.365ZM26.714,8.365C26.598,8.481 26.506,8.619 26.443,8.771C26.38,8.923 26.347,9.086 26.347,9.25C26.347,9.415 26.38,9.577 26.443,9.729C26.506,9.881 26.598,10.019 26.714,10.135L34.582,18L26.714,25.865C26.598,25.981 26.506,26.119 26.443,26.271C26.38,26.423 26.348,26.586 26.348,26.75C26.348,26.915 26.38,27.077 26.443,27.229C26.506,27.381 26.598,27.519 26.714,27.635C26.831,27.751 26.969,27.844 27.12,27.907C27.272,27.969 27.435,28.002 27.599,28.002C27.764,28.002 27.927,27.969 28.078,27.907C28.23,27.844 28.368,27.751 28.484,27.635L37.234,18.885C37.351,18.769 37.443,18.631 37.506,18.479C37.569,18.327 37.602,18.165 37.602,18C37.602,17.836 37.569,17.673 37.506,17.521C37.443,17.369 37.351,17.231 37.234,17.115L28.484,8.365C28.368,8.249 28.23,8.156 28.079,8.093C27.927,8.03 27.764,7.998 27.599,7.998C27.435,7.998 27.272,8.03 27.12,8.093C26.968,8.156 26.831,8.249 26.714,8.365L26.714,8.365Z" fill="#FFFFFF"/>
</svg>
