<svg width="134" height="136" viewBox="0 0 134 136" fill="none" xmlns="http://www.w3.org/2000/svg" xmlns:xlink="http://www.w3.org/1999/xlink">
<path d="M131.473,61.373L72.982,2.541C71.363,0.914 69.168,0 66.879,0C64.59,0 62.395,0.914 60.776,2.541L48.614,14.761L64.024,30.258C72.118,27.508 79.781,35.302 77.002,43.396L91.856,58.333C102.094,54.783 110.155,67.657 102.465,75.384C94.542,83.351 81.465,74.521 85.715,64.153L71.852,50.229L71.852,86.88C79.419,90.651 78.51,99.467 74.568,103.423C72.642,105.358 70.03,106.446 67.307,106.446C64.584,106.446 61.972,105.358 60.046,103.423C54.791,98.129 56.735,89.313 63.411,86.579L63.411,49.583C57.19,47.023 56.053,40.337 57.836,36.048L42.644,20.753L2.528,61.1C0.909,62.728 0,64.935 0,67.237C0,69.539 0.909,71.747 2.528,73.375L61.036,132.207C62.655,133.834 64.849,134.748 67.138,134.748C69.426,134.748 71.621,133.834 73.24,132.207L131.473,73.648C133.091,72.02 134.001,69.813 134.001,67.511C134.001,65.209 133.091,63.001 131.473,61.373L131.473,61.373Z" fill="#6E3B3B"/>
</svg>
