<svg width="70" height="70" viewBox="0 0 70 70" fill="none" xmlns="http://www.w3.org/2000/svg" xmlns:xlink="http://www.w3.org/1999/xlink">
<path d="M33.969,-0.039C14.648,-0.047 -1,15.594 -1,34.899C-1,50.164 8.789,63.141 22.422,67.906C24.258,68.367 23.977,67.063 23.977,66.172L23.977,60.117C13.375,61.359 12.945,54.344 12.234,53.172C10.797,50.719 7.398,50.094 8.414,48.922C10.828,47.68 13.289,49.234 16.141,53.445C18.203,56.5 22.227,55.984 24.266,55.477C24.711,53.641 25.664,52 26.977,50.727C15.992,48.758 11.414,42.055 11.414,34.086C11.414,30.219 12.688,26.664 15.188,23.797C13.594,19.07 15.336,15.023 15.57,14.422C20.109,14.016 24.828,17.672 25.195,17.961C27.773,17.266 30.719,16.898 34.016,16.898C37.328,16.898 40.281,17.281 42.883,17.984C43.766,17.312 48.141,14.172 52.359,14.555C52.586,15.156 54.289,19.109 52.789,23.774C55.32,26.649 56.609,30.234 56.609,34.109C56.609,42.094 52,48.805 40.984,50.742C41.928,51.67 42.677,52.777 43.188,53.997C43.699,55.218 43.962,56.528 43.961,57.852L43.961,66.641C44.023,67.344 43.961,68.039 45.133,68.039C58.969,63.375 68.93,50.305 68.93,34.906C68.93,15.594 53.273,-0.039 33.969,-0.039L33.969,-0.039Z" fill="#2A2835"/>
</svg>
