<svg width="126" height="126" viewBox="0 0 126 126" fill="none" xmlns="http://www.w3.org/2000/svg" xmlns:xlink="http://www.w3.org/1999/xlink">
<path d="M0,-1L0,125L126,125L126,-1L0,-1ZM68.569,97.269C68.569,109.531 61.369,115.128 50.878,115.128C41.4,115.128 35.916,110.234 33.103,104.3L42.75,98.478C44.606,101.769 46.294,104.553 50.372,104.553C54.253,104.553 56.728,103.034 56.728,97.1L56.728,56.853L68.569,56.853L68.569,97.269L68.569,97.269ZM96.581,115.128C85.584,115.128 78.469,109.897 75.009,103.034L84.656,97.466C87.188,101.6 90.506,104.666 96.328,104.666C101.222,104.666 104.372,102.219 104.372,98.816C104.372,94.766 101.166,93.331 95.737,90.941L92.784,89.675C84.234,86.047 78.581,81.463 78.581,71.816C78.581,62.928 85.359,56.178 95.906,56.178C103.444,56.178 108.844,58.794 112.725,65.656L103.5,71.562C101.475,67.934 99.281,66.5 95.878,66.5C92.419,66.5 90.225,68.694 90.225,71.562C90.225,75.106 92.419,76.541 97.509,78.763L100.463,80.028C110.531,84.331 116.184,88.747 116.184,98.647C116.184,109.278 107.803,115.128 96.581,115.128L96.581,115.128Z" fill="#2A2835"/>
</svg>
