<svg width="56" height="56" viewBox="0 0 56 56" fill="none" xmlns="http://www.w3.org/2000/svg" xmlns:xlink="http://www.w3.org/1999/xlink">
<path d="M27.975,0.769C12.519,0.762 0,13.275 0,28.719C0,40.931 7.831,51.312 18.738,55.125C20.206,55.494 19.981,54.45 19.981,53.737L19.981,48.894C11.5,49.887 11.156,44.275 10.587,43.337C9.438,41.375 6.719,40.875 7.531,39.937C9.462,38.944 11.431,40.187 13.712,43.556C15.363,46 18.581,45.587 20.213,45.181C20.569,43.712 21.331,42.4 22.381,41.381C13.594,39.806 9.931,34.444 9.931,28.069C9.931,24.975 10.95,22.131 12.95,19.837C11.675,16.056 13.069,12.819 13.256,12.337C16.887,12.012 20.663,14.937 20.956,15.169C23.019,14.612 25.375,14.319 28.013,14.319C30.663,14.319 33.025,14.625 35.106,15.187C35.813,14.65 39.313,12.137 42.688,12.444C42.869,12.925 44.231,16.087 43.031,19.819C45.056,22.119 46.088,24.987 46.088,28.087C46.088,34.475 42.4,39.844 33.588,41.394C34.342,42.136 34.942,43.021 35.351,43.998C35.759,44.974 35.97,46.022 35.969,47.081L35.969,54.112C36.019,54.675 35.969,55.231 36.906,55.231C47.975,51.5 55.944,41.044 55.944,28.725C55.944,13.275 43.419,0.769 27.975,0.769L27.975,0.769Z" fill="#000000"/>
</svg>
