<svg width="126" height="126" viewBox="0 0 126 126" fill="none" xmlns="http://www.w3.org/2000/svg" xmlns:xlink="http://www.w3.org/1999/xlink">
<path d="M0,0L0,126L126,126L126,0L0,0ZM68.569,98.269C68.569,110.531 61.369,116.128 50.878,116.128C41.4,116.128 35.916,111.234 33.103,105.3L42.75,99.478C44.606,102.769 46.294,105.553 50.372,105.553C54.253,105.553 56.728,104.034 56.728,98.1L56.728,57.853L68.569,57.853L68.569,98.269L68.569,98.269ZM96.581,116.128C85.584,116.128 78.469,110.897 75.009,104.034L84.656,98.466C87.188,102.6 90.506,105.666 96.328,105.666C101.222,105.666 104.372,103.219 104.372,99.816C104.372,95.766 101.166,94.331 95.737,91.941L92.784,90.675C84.234,87.047 78.581,82.463 78.581,72.816C78.581,63.928 85.359,57.178 95.906,57.178C103.444,57.178 108.844,59.794 112.725,66.656L103.5,72.562C101.475,68.934 99.281,67.5 95.878,67.5C92.419,67.5 90.225,69.694 90.225,72.562C90.225,76.106 92.419,77.541 97.509,79.763L100.463,81.028C110.531,85.331 116.184,89.747 116.184,99.647C116.184,110.278 107.803,116.128 96.581,116.128L96.581,116.128Z" fill="#6E3B3B"/>
</svg>
