<svg width="122" height="120" viewBox="0 0 122 120" fill="none" xmlns="http://www.w3.org/2000/svg" xmlns:xlink="http://www.w3.org/1999/xlink">
<path d="M109.23,86.352C94.416,106.086 62.784,99.426 42.498,100.38C42.498,100.38 38.904,100.584 35.292,101.178C35.292,101.178 36.66,100.596 38.406,99.99C52.65,95.064 59.382,94.074 68.04,89.628C84.3,81.3 100.488,63.15 103.782,44.298C97.59,62.43 78.762,78.036 61.62,84.372C49.89,88.704 28.668,92.916 28.662,92.916C28.374,92.768 28.088,92.616 27.804,92.46C13.374,85.44 12.954,54.18 39.168,44.106C50.664,39.69 61.65,42.114 74.076,39.156C87.324,36.006 102.672,26.076 108.906,13.092C115.896,33.84 124.296,66.288 109.23,86.352L109.23,86.352ZM109.482,6.672C107.806,10.69 105.661,14.497 103.092,18.012C97.507,12.256 90.823,7.68 83.436,4.556C76.049,1.432 68.11,-0.176 60.09,-0.174C26.952,-0.174 0,26.778 0,59.91C-0.004,68.175 1.703,76.351 5.012,83.924C8.322,91.497 13.162,98.303 19.23,103.914L20.55,105.078C19.588,104.114 19.048,102.808 19.049,101.446C19.05,100.084 19.591,98.779 20.555,97.816C21.518,96.854 22.824,96.313 24.186,96.313C25.548,96.314 26.853,96.855 27.816,97.818C28.779,98.781 29.32,100.086 29.321,101.448C29.321,102.81 28.78,104.116 27.818,105.08C26.855,106.043 25.55,106.584 24.188,106.585C22.826,106.586 21.52,106.046 20.556,105.084L21.45,105.876C32.252,115.009 45.944,120.014 60.09,120C91.758,120 117.768,95.352 119.994,64.248C121.638,49.014 117.138,29.67 109.482,6.672Z" fill="#F2F4F3"/>
</svg>
