<svg width="1548" height="54" viewBox="0 0 1548 54" fill="none" xmlns="http://www.w3.org/2000/svg" xmlns:xlink="http://www.w3.org/1999/xlink">
<path d="M33.586,27.141C45.706,27.141 58.403,26.859 70.523,26.576C75.717,26.576 80.334,26.293 85.529,26.293C107.46,25.728 129.391,25.162 151.322,24.597C177.871,24.031 203.842,23.183 230.39,22.618C267.904,21.487 305.418,20.639 342.932,19.508C351.59,19.225 360.246,19.225 368.904,18.942C390.836,18.377 412.766,17.812 434.698,17.529C456.63,16.963 478.56,16.398 500.492,16.115C509.148,15.832 517.806,15.55 526.464,15.55C561.092,14.984 596.296,14.419 630.926,13.853C652.28,13.571 673.634,13.288 695.564,12.723C704.222,12.723 712.302,12.44 720.96,12.44C754.434,12.157 788.484,11.874 821.958,11.592C855.432,11.309 888.33,11.026 921.804,10.743C930.46,10.743 939.118,10.743 948.352,10.743C970.284,10.743 991.638,10.743 1013.568,10.743C1047.62,10.743 1081.094,10.743 1115.146,10.461C1126.11,10.461 1137.076,10.461 1148.042,10.461C1171.128,10.461 1194.214,10.461 1217.298,10.461C1219.03,10.461 1221.338,10.461 1223.07,10.461C1171.128,10.743 1118.608,11.026 1066.666,11.592C1044.734,11.874 1023.38,11.874 1001.448,12.157C992.214,12.157 982.404,12.157 973.17,12.44C941.426,12.723 910.26,13.288 878.518,13.571C842.158,14.136 805.798,14.419 769.438,14.984C763.09,14.984 757.318,15.267 750.97,15.267C731.348,15.832 712.302,16.115 692.68,16.681C653.434,17.529 614.188,18.377 574.942,19.225C569.172,19.225 563.4,19.508 557.628,19.791C538.582,20.356 518.96,21.204 499.914,21.77C465.286,22.901 431.236,24.031 396.606,25.162C387.372,25.445 377.562,26.01 368.326,26.293C346.396,27.141 324.464,27.99 302.532,29.12C274.83,30.251 246.55,31.382 218.848,32.513C180.179,34.209 140.934,35.906 102.266,37.602C93.031,37.885 83.797,38.45 73.986,38.733C57.249,39.581 40.512,40.429 23.775,41.277C22.043,41.277 20.312,41.843 20.312,42.974C20.312,43.822 22.043,44.67 23.775,44.67C30.123,44.67 35.895,44.953 42.243,44.953C41.089,46.366 40.512,47.215 40.512,48.063C40.512,51.173 45.706,54 52.632,54C100.534,52.586 147.86,50.89 195.762,49.759C237.316,48.911 278.87,47.78 320.424,46.932C366.018,45.801 412.19,44.67 457.784,43.822C472.212,43.539 486.64,43.257 501.068,42.691C505.108,42.691 509.148,42.408 513.766,42.408C587.64,41.56 661.514,40.429 735.388,39.581C774.632,39.016 814.456,38.45 853.702,38.168C868.13,37.885 881.98,37.885 896.41,37.602C972.014,37.037 1047.62,36.471 1123.226,35.906C1155.546,35.623 1187.864,35.34 1220.184,35.058C1247.888,34.775 1275.59,34.775 1303.292,34.209C1326.378,33.927 1348.886,33.361 1371.972,33.079C1383.516,32.796 1395.058,32.796 1406.024,32.513C1431.994,31.665 1457.966,30.817 1483.938,29.969C1482.206,31.099 1482.206,32.796 1482.784,33.927C1483.36,35.34 1485.092,36.471 1487.978,37.037C1490.286,37.602 1493.748,38.168 1496.058,37.602C1501.828,36.471 1507.6,35.34 1512.794,34.209C1512.794,34.209 1512.794,34.209 1512.218,34.209C1512.794,34.209 1512.794,33.927 1513.372,33.927C1513.948,33.927 1514.526,33.644 1514.526,33.644L1513.948,33.644C1516.834,33.079 1519.72,32.513 1523.182,31.665C1526.068,31.099 1529.532,30.251 1532.418,29.686C1535.88,28.838 1538.766,27.99 1542.228,27.141C1545.692,26.293 1548,24.031 1548,22.052C1548,20.921 1547.422,20.073 1546.268,18.942C1545.114,17.812 1542.228,16.398 1539.342,16.115C1536.458,15.832 1533.572,15.55 1530.686,15.55C1530.108,15.55 1529.532,15.55 1528.954,15.55C1527.222,15.55 1524.914,15.55 1523.182,15.832C1518.566,16.115 1514.526,16.398 1509.908,16.398C1506.446,16.398 1502.984,16.681 1498.944,16.681C1489.132,16.963 1479.898,17.246 1470.086,17.812C1467.778,17.812 1464.892,18.094 1462.584,18.094C1463.738,17.529 1464.314,16.963 1464.314,16.398C1464.892,15.832 1464.892,15.267 1464.892,14.702C1464.892,14.419 1464.892,13.853 1465.468,13.571C1465.468,13.005 1465.468,12.44 1464.892,12.157C1464.892,12.157 1465.468,12.157 1465.468,11.874C1467.2,11.309 1468.932,10.743 1470.086,9.613C1471.24,8.764 1471.818,7.633 1471.818,6.503C1471.818,5.372 1471.24,4.524 1470.086,3.393C1469.508,3.11 1468.932,2.544 1468.354,2.262C1466.624,1.414 1464.892,1.131 1463.16,0.848C1459.698,0.283 1455.658,0 1451.618,0C1448.154,0 1445.27,0 1441.806,0C1437.19,0 1432.572,0 1427.954,0C1421.606,0 1414.68,0 1408.332,0C1391.018,0 1373.704,0 1356.39,0C1340.23,0 1323.492,0 1307.332,0C1292.328,0 1277.898,0 1262.894,0C1203.448,0 1144.58,0.283 1085.134,0.565C1040.694,0.848 996.254,1.131 951.814,1.131C932.192,1.131 911.992,1.414 892.37,1.696C847.93,2.262 803.49,2.544 759.05,3.11C746.354,3.11 733.656,3.393 720.96,3.393C713.456,3.393 706.53,3.675 699.028,3.675C655.166,4.524 611.302,5.372 567.44,6.22C554.166,6.503 540.892,6.785 527.04,7.068C519.538,7.068 512.034,7.351 504.532,7.633C460.67,8.764 417.384,9.895 373.522,11.026C351.012,11.592 328.504,12.157 305.996,13.005C267.328,14.136 228.66,15.267 190.568,16.681C157.094,17.812 123.62,18.66 90.146,19.508C84.951,19.791 79.757,19.791 73.986,20.073C65.329,20.356 56.672,20.356 48.014,20.639C40.512,21.77 32.432,21.77 24.929,21.77C24.352,20.639 22.043,19.791 20.312,20.073C15.117,20.073 10.5,20.356 5.306,20.639C2.998,20.921 0.689,21.487 0.112,22.618C-0.465,24.031 1.266,25.445 3.575,25.728C5.883,26.01 8.192,26.293 10.5,26.576C12.809,26.859 14.54,26.859 16.849,26.859C22.62,27.141 27.815,27.141 33.586,27.141ZM1384.092,18.094C1391.018,18.094 1398.52,18.094 1405.446,18.094C1406.024,18.942 1407.178,19.508 1408.332,20.073C1405.446,20.073 1402.56,20.356 1400.252,20.356C1395.058,20.356 1389.864,20.639 1384.67,20.639C1361.584,20.921 1339.076,21.487 1315.99,21.77C1305.602,22.052 1295.212,22.335 1284.824,22.335C1268.664,22.335 1251.928,22.618 1235.768,22.618C1198.254,22.901 1161.316,23.183 1123.802,23.466C1051.082,24.031 978.94,24.597 906.22,25.162C854.278,25.445 802.336,26.293 750.394,27.141C672.48,28.272 593.988,29.12 516.074,30.251C500.492,30.534 484.91,30.817 469.326,31.382C424.886,32.513 380.446,33.361 336.008,34.492C292.722,35.623 248.858,36.471 205.574,37.602C201.534,37.602 197.494,37.885 193.454,37.885C204.996,37.319 217.116,37.037 228.66,36.471C269.636,35.058 310.612,33.361 351.59,31.948C366.018,31.382 380.446,30.817 394.298,30.251C401.8,29.969 409.304,29.686 416.23,29.686C459.514,28.555 502.224,27.141 544.932,26.01C553.012,25.728 561.668,25.445 569.748,25.162C581.868,24.88 593.988,24.597 605.532,24.597C649.394,23.749 693.256,22.901 737.118,22.052C746.93,21.77 756.742,21.77 765.976,21.487C768.284,21.487 771.17,21.487 773.478,21.487C780.404,21.487 787.33,21.487 793.678,21.204C837.542,20.639 881.98,20.356 925.844,19.791C946.044,19.508 966.244,19.225 986.444,19.225C1051.66,18.942 1117.454,18.66 1182.67,18.377C1250.774,18.377 1317.722,18.094 1384.092,18.094Z" fill="#BAE8E8"/>
</svg>
