<svg width="528" height="98" viewBox="0 0 528 98" fill="none" xmlns="http://www.w3.org/2000/svg" xmlns:xlink="http://www.w3.org/1999/xlink">
<path d="M121.616,77.139C113.211,67.276 99.881,46.121 93.487,35.827C87.093,25.532 62.119,48.591 62.119,48.591C43.032,62.652 24.087,81.527 14.726,91.383C11.714,94.859 6.447,95.235 2.971,92.223C-0.504,89.211 -0.88,83.943 2.132,80.468C12.46,67.41 35.109,40.382 56.954,23.542C69.852,13.6 82.979,7.723 93.487,7.311C99.164,7.109 104.809,9.37 110.292,13.879C118.534,20.656 126.928,35.47 136.27,49.235C139.578,54.109 142.969,58.872 146.84,62.647C149.796,65.532 152.841,68.035 156.612,68.665C165.318,70.151 172.461,65.883 179.252,60.056C191.36,49.669 202.238,34.598 213.808,22.844C224.764,11.71 236.47,3.369 249.686,1.433C262.16,-0.632 271.054,3.816 278.412,11.85C285.056,19.103 290.084,30.541 296.026,41.979C301.406,52.338 307.51,63.206 320.578,65.892C330.946,68.182 339.504,64.97 347.336,59.727C361.238,50.423 373.144,35.402 385.94,23.405C397.492,12.574 409.78,4.023 423.596,1.022C430.198,-0.414 438.174,1.819 446.282,9.225C454.316,16.563 464.282,31.017 479.632,38.032C487.694,41.716 497.442,42.907 509.45,38.984C516.294,36.703 523.702,40.407 525.982,47.25C528.264,54.093 524.56,61.501 517.716,63.782C498.062,70.463 482.038,68.201 468.716,62.312C452.806,55.278 440.984,42.343 431.79,33.065C421.396,22.574 407,41.281 398.772,49.702C387.198,61.551 375.76,74.432 362.894,83.011C348.79,92.417 333.11,97.163 314.498,92.886C304.974,90.575 297.34,86.223 291.118,80.428C278.26,68.451 271.958,49.914 264.718,35.827C261.786,30.122 259.656,24.44 253.36,25.315C241.17,27.318 232.056,38.892 222.482,50.579C210.612,65.071 198.784,80.486 185.041,88.948C175.235,94.985 164.479,97.773 152.39,96.116C140.633,94.451 130.297,87.328 121.616,77.139Z" fill="#2C698D"/>
</svg>
