<svg width="46" height="26" viewBox="0 0 46 26" fill="none" xmlns="http://www.w3.org/2000/svg" xmlns:xlink="http://www.w3.org/1999/xlink">
<path d="M22.387,19.498C21.508,20.88 20.664,22.232 18.774,23.546C17.762,24.255 15.435,25.64 12.126,25.64C5.814,25.64 0.719,21.051 0.719,12.982C0.719,5.931 5.511,0.36 12.261,0.36C14.995,0.36 17.424,1.306 19.213,2.724C20.868,4.04 21.643,5.356 22.319,6.538L17.595,8.898C17.257,8.123 16.85,7.313 15.806,6.436C14.657,5.524 13.511,5.255 12.53,5.255C8.683,5.255 6.657,8.833 6.657,12.814C6.657,18.047 9.326,20.644 12.53,20.644C15.635,20.644 16.886,18.484 17.694,17.102L22.387,19.498L22.387,19.498ZM38.936,1.102L45.281,1.102L37.012,24.931L30.939,24.931L22.772,1.102L29.117,1.102L34.045,18.047L38.936,1.102Z" fill="#272643"/>
</svg>
