<svg width="136" height="136" viewBox="0 0 136 136" fill="none" xmlns="http://www.w3.org/2000/svg" xmlns:xlink="http://www.w3.org/1999/xlink">
<path d="M131.635,61.373L73.145,2.541C71.525,0.914 69.33,0 67.041,0C64.752,0 62.557,0.914 60.938,2.541L48.776,14.761L64.186,30.258C72.28,27.508 79.943,35.302 77.165,43.396L92.018,58.333C102.257,54.783 110.318,67.657 102.628,75.384C94.704,83.351 81.627,74.521 85.878,64.153L72.014,50.229L72.014,86.88C79.581,90.651 78.672,99.467 74.73,103.423C72.804,105.358 70.192,106.446 67.469,106.446C64.746,106.446 62.134,105.358 60.208,103.423C54.953,98.129 56.897,89.313 63.573,86.579L63.573,49.583C57.352,47.023 56.215,40.337 57.998,36.048L42.806,20.753L2.69,61.1C1.071,62.728 0.162,64.935 0.162,67.237C0.162,69.539 1.071,71.747 2.69,73.375L61.198,132.207C62.817,133.834 65.012,134.748 67.3,134.748C69.588,134.748 71.783,133.834 73.402,132.207L131.635,73.648C133.253,72.02 134.163,69.813 134.163,67.511C134.163,65.209 133.253,63.001 131.635,61.373L131.635,61.373Z" fill="#000000"/>
</svg>
