<svg width="132" height="134" viewBox="0 0 132 134" fill="none" xmlns="http://www.w3.org/2000/svg" xmlns:xlink="http://www.w3.org/1999/xlink">
<path d="M0,20.664L30.86,20.664L30.86,31.79L0,31.79L0,20.664ZM0,0L30.86,0L30.86,11.126L0,11.126L0,0ZM55.368,41.168L0,41.168L0,52.295L53.293,52.295C59.128,52.295 72.742,52.453 77.8,62.467L77.8,56.269C75.336,46.413 68.075,41.168 55.367,41.168L55.368,41.168ZM55.497,61.832L0,61.832L0,72.958L53.293,72.958C66.259,72.958 74.428,73.594 77.8,75.819L77.8,70.892C75.206,63.103 64.314,61.832 55.497,61.832L55.497,61.832ZM55.368,114.285L0,114.285L0,103.159L53.293,103.159C59.128,103.159 72.742,103 77.8,92.986L77.8,99.185C75.336,109.04 68.075,114.285 55.367,114.285L55.368,114.285ZM55.497,93.622L0,93.622L0,82.495L53.293,82.495C66.259,82.495 74.428,81.859 77.8,79.634L77.8,84.562C75.206,92.35 64.314,93.622 55.497,93.622L55.497,93.622ZM91.285,133.518L132,133.518L132,126.683L92.452,126.683C88.95,126.683 80.653,126.524 77.67,120.643L77.67,124.458C79.096,130.339 83.505,133.518 91.285,133.518L91.285,133.518ZM91.155,120.961L131.871,120.961L131.871,114.126L92.452,114.126C84.542,114.126 79.615,113.808 77.67,112.378L77.67,115.398C79.225,120.166 85.838,120.961 91.155,120.961L91.155,120.961Z" fill="#F2F4F3"/>
</svg>
