<svg width="100" height="118" viewBox="0 0 100 118" fill="none" xmlns="http://www.w3.org/2000/svg" xmlns:xlink="http://www.w3.org/1999/xlink">
<path d="M49.878,70.306C47.864,71.232 45.657,72.438 41.239,74.862C39.564,75.804 37.814,76.747 36.185,77.634C36.072,77.521 35.955,77.379 35.841,77.262C27.102,67.924 10.938,61.328 11.625,48.787C11.881,44.218 13.451,32.225 42.667,17.661C66.712,5.81 85.844,9.093 89.148,16.375C93.897,26.756 78.893,46.073 54.061,48.875C51.313,49.432 48.475,49.365 45.756,48.678C43.037,47.99 40.507,46.701 38.354,44.905C37.039,43.477 36.842,43.393 36.357,43.678C35.557,44.097 36.072,45.391 36.357,46.132C37.304,47.847 38.585,49.354 40.125,50.566C41.665,51.777 43.432,52.667 45.322,53.184C55.094,55.296 65.282,54.287 74.45,50.298C89.5,44.474 101.25,28.28 97.808,14.705C94.353,0.94 71.506,-3.599 49.891,4.081C36.354,8.643 23.847,15.824 13.082,25.215C1.173,36.354 -0.711,46.035 0.059,50.089C2.831,64.481 22.672,73.849 30.628,80.788C30.209,81.018 29.858,81.206 29.543,81.386C25.574,83.359 10.44,91.269 6.667,99.635C2.383,109.116 7.354,115.912 10.637,116.825C15.584,118.01 20.778,117.621 25.494,115.711C30.209,113.801 34.21,110.466 36.939,106.172C39.255,102.611 40.678,98.544 41.086,94.315C41.493,90.087 40.874,85.822 39.279,81.885C40.22,81.134 41.223,80.466 42.278,79.887C44.304,78.69 46.235,77.509 47.948,76.596C53.812,73.849 60.211,72.435 66.687,72.454C80.279,74.054 82.963,82.534 82.448,86.106C82.207,87.373 81.698,88.574 80.954,89.628C80.21,90.682 79.249,91.564 78.135,92.215C77.193,92.814 76.879,93.015 76.963,93.442C77.076,94.07 77.532,94.041 78.332,93.928C80.374,93.282 82.173,92.034 83.493,90.348C84.813,88.661 85.592,86.614 85.727,84.477C86.146,76.102 78.16,66.914 64.023,66.998C59.79,67.005 55.6,67.84 51.687,69.456C51.059,69.716 50.449,69.995 49.857,70.294L49.878,70.306ZM29.673,103.132C25.159,108.044 18.878,109.899 16.164,108.329C13.233,106.654 14.393,99.388 19.933,94.192C23.214,91.235 26.761,88.587 30.528,86.282C31.185,85.863 32.156,85.31 33.325,84.607L33.639,84.435L34.326,84.016C35.314,87.329 35.404,90.845 34.586,94.204C33.769,97.563 32.073,100.644 29.673,103.132L29.673,103.132Z" fill="#000000"/>
</svg>
