<svg width="108" height="144" viewBox="0 0 108 144" fill="none" xmlns="http://www.w3.org/2000/svg" xmlns:xlink="http://www.w3.org/1999/xlink">
<path d="M35.113,111.353C35.113,111.353 29.605,114.561 39.024,115.637C50.436,116.951 56.272,116.766 68.836,114.372C68.836,114.372 72.135,116.46 76.756,118.265C48.564,130.338 12.96,117.54 35.109,111.353L35.113,111.353ZM31.662,95.603C31.662,95.603 25.474,100.17 34.897,101.129C47.115,102.393 56.718,102.515 73.381,99.306C73.381,99.306 75.681,101.628 79.317,102.911C45.238,112.869 7.267,103.685 31.666,95.603L31.662,95.603ZM60.7,68.864C67.635,76.856 58.869,84.051 58.869,84.051C58.869,84.051 76.495,74.93 68.409,63.545C60.844,52.902 55.03,47.633 86.431,29.417C86.431,29.417 37.143,41.724 60.696,68.868L60.7,68.864ZM97.969,123.026C97.969,123.026 102.051,126.374 93.492,128.979C77.224,133.898 25.78,135.374 11.484,129.164C6.354,126.936 15.984,123.822 19.008,123.188C22.171,122.486 23.976,122.63 23.976,122.63C18.256,118.598 -12.96,130.527 8.113,133.947C65.605,143.276 112.896,129.753 97.969,123.026L97.969,123.026ZM37.759,79.268C37.759,79.268 11.583,85.478 28.476,87.728C35.626,88.686 49.855,88.479 63.121,87.354C73.944,86.436 84.825,84.492 84.825,84.492C84.825,84.492 81.004,86.13 78.237,88.034C51.655,95.018 0.31,91.76 15.097,84.614C27.589,78.588 37.759,79.268 37.759,79.268L37.759,79.268ZM84.703,105.516C111.703,91.454 99.211,77.976 90.517,79.808C88.38,80.226 87.421,80.631 87.421,80.631C87.421,80.631 88.195,79.385 89.721,78.849C106.969,72.779 120.235,96.728 84.163,106.223C84.163,106.2 84.591,105.849 84.703,105.521L84.703,105.516ZM68.413,0C68.413,0 83.371,14.954 54.211,37.967C30.847,56.435 48.888,66.96 54.211,78.984C40.572,66.677 30.564,55.854 37.269,45.774C47.133,30.938 74.439,23.765 68.413,0ZM40.405,143.555C66.33,145.193 106.146,142.619 107.113,130.361C107.113,130.361 105.282,135 85.662,138.699C63.54,142.871 36.234,142.376 20.038,139.707C20.038,139.707 23.368,142.448 40.401,143.555L40.405,143.555Z" fill="#4592AF"/>
</svg>
