<svg width="134" height="134" viewBox="0 0 134 134" fill="none" xmlns="http://www.w3.org/2000/svg" xmlns:xlink="http://www.w3.org/1999/xlink">
<path d="M0.162,20.664L31.022,20.664L31.022,31.79L0.162,31.79L0.162,20.664ZM0.162,0L31.022,0L31.022,11.126L0.162,11.126L0.162,0ZM55.53,41.168L0.162,41.168L0.162,52.295L53.455,52.295C59.29,52.295 72.905,52.453 77.962,62.467L77.962,56.269C75.498,46.413 68.237,41.168 55.529,41.168L55.53,41.168ZM55.659,61.832L0.162,61.832L0.162,72.958L53.455,72.958C66.422,72.958 74.591,73.594 77.962,75.819L77.962,70.892C75.368,63.103 64.477,61.832 55.659,61.832L55.659,61.832ZM55.53,114.285L0.162,114.285L0.162,103.159L53.455,103.159C59.29,103.159 72.905,103 77.962,92.986L77.962,99.185C75.498,109.04 68.237,114.285 55.529,114.285L55.53,114.285ZM55.659,93.622L0.162,93.622L0.162,82.495L53.455,82.495C66.422,82.495 74.591,81.859 77.962,79.634L77.962,84.562C75.368,92.35 64.477,93.622 55.659,93.622L55.659,93.622ZM91.447,133.518L132.162,133.518L132.162,126.683L92.614,126.683C89.113,126.683 80.815,126.524 77.832,120.643L77.832,124.458C79.259,130.339 83.667,133.518 91.447,133.518L91.447,133.518ZM91.317,120.961L132.033,120.961L132.033,114.126L92.614,114.126C84.704,114.126 79.777,113.808 77.832,112.378L77.832,115.398C79.387,120.166 86,120.961 91.317,120.961L91.317,120.961Z" fill="#000000"/>
</svg>
