<svg width="38" height="36" viewBox="0 0 38 36" fill="none" xmlns="http://www.w3.org/2000/svg" xmlns:xlink="http://www.w3.org/1999/xlink">
<path d="M25.354,2.313C25.403,2.155 25.42,1.989 25.404,1.824C25.389,1.66 25.341,1.5 25.263,1.354C25.186,1.208 25.081,1.079 24.953,0.973C24.826,0.868 24.679,0.789 24.521,0.74C24.363,0.692 24.197,0.675 24.033,0.69C23.868,0.706 23.709,0.754 23.562,0.831C23.416,0.908 23.287,1.014 23.182,1.141C23.076,1.268 22.997,1.415 22.949,1.573L12.884,34.284C12.786,34.603 12.818,34.948 12.974,35.243C13.131,35.537 13.398,35.758 13.717,35.856C14.036,35.954 14.38,35.922 14.675,35.766C14.97,35.609 15.191,35.342 15.289,35.023L25.354,2.313L25.354,2.313ZM11.203,8.601C11.32,8.718 11.413,8.856 11.476,9.009C11.54,9.162 11.573,9.326 11.573,9.492C11.573,9.657 11.54,9.821 11.476,9.974C11.413,10.127 11.32,10.265 11.203,10.382L3.284,18.298L11.203,26.214C11.439,26.45 11.572,26.771 11.572,27.105C11.572,27.439 11.439,27.759 11.203,27.996C10.967,28.232 10.646,28.365 10.312,28.365C9.978,28.365 9.658,28.232 9.421,27.996L0.615,19.189C0.498,19.072 0.405,18.933 0.341,18.78C0.278,18.628 0.245,18.464 0.245,18.298C0.245,18.133 0.278,17.969 0.341,17.816C0.405,17.663 0.498,17.524 0.615,17.407L9.421,8.601C9.538,8.484 9.677,8.391 9.83,8.327C9.983,8.264 10.147,8.231 10.312,8.231C10.478,8.231 10.642,8.264 10.794,8.327C10.947,8.391 11.086,8.484 11.203,8.601L11.203,8.601ZM27.035,8.601C26.918,8.718 26.825,8.856 26.761,9.009C26.698,9.162 26.665,9.326 26.665,9.492C26.665,9.657 26.698,9.821 26.761,9.974C26.825,10.127 26.918,10.265 27.035,10.382L34.953,18.298L27.035,26.214C26.918,26.331 26.825,26.47 26.762,26.623C26.699,26.776 26.666,26.94 26.666,27.105C26.666,27.27 26.699,27.434 26.762,27.587C26.825,27.74 26.918,27.879 27.035,27.996C27.152,28.113 27.291,28.205 27.444,28.269C27.596,28.332 27.76,28.365 27.926,28.365C28.091,28.365 28.255,28.332 28.408,28.269C28.561,28.205 28.699,28.113 28.816,27.996L37.623,19.189C37.74,19.072 37.833,18.933 37.897,18.78C37.96,18.628 37.993,18.464 37.993,18.298C37.993,18.133 37.96,17.969 37.897,17.816C37.833,17.663 37.74,17.524 37.623,17.407L28.816,8.601C28.7,8.484 28.561,8.391 28.408,8.327C28.255,8.264 28.091,8.231 27.926,8.231C27.76,8.231 27.596,8.264 27.444,8.327C27.291,8.391 27.152,8.484 27.035,8.601L27.035,8.601Z" fill="#FFFFFF"/>
</svg>
