<svg width="66" height="38" viewBox="0 0 66 38" fill="none" xmlns="http://www.w3.org/2000/svg" xmlns:xlink="http://www.w3.org/1999/xlink">
<path d="M31.094,27.606C29.794,29.649 28.547,31.648 25.752,33.59C24.257,34.637 20.816,36.685 15.925,36.685C6.594,36.685 -0.938,29.901 -0.938,17.974C-0.938,7.55 6.147,-0.685 16.124,-0.685C20.167,-0.685 23.758,0.713 26.402,2.809C28.848,4.755 29.993,6.701 30.993,8.447L24.01,11.937C23.51,10.791 22.908,9.593 21.365,8.297C19.667,6.948 17.973,6.55 16.522,6.55C10.835,6.55 7.841,11.84 7.841,17.726C7.841,25.461 11.786,29.3 16.522,29.3C21.113,29.3 22.961,26.106 24.156,24.063L31.094,27.606L31.094,27.606ZM55.557,0.412L64.938,0.412L52.714,35.637L43.736,35.637L31.663,0.412L41.043,0.412L48.327,25.461L55.557,0.412Z" fill="#2A2835"/>
</svg>
