<svg width="64" height="64" viewBox="0 0 64 64" fill="none" xmlns="http://www.w3.org/2000/svg" xmlns:xlink="http://www.w3.org/1999/xlink">
<path d="M60.75,0.75L3.25,0.75C1.867,0.75 0.75,1.867 0.75,3.25L0.75,60.75C0.75,62.133 1.867,63.25 3.25,63.25L60.75,63.25C62.133,63.25 63.25,62.133 63.25,60.75L63.25,3.25C63.25,1.867 62.133,0.75 60.75,0.75ZM19.289,54.008L10.016,54.008L10.016,24.18L19.289,24.18L19.289,54.008ZM14.656,20.102C13.593,20.102 12.554,19.786 11.67,19.196C10.786,18.605 10.097,17.766 9.69,16.783C9.284,15.801 9.177,14.721 9.385,13.678C9.592,12.635 10.104,11.678 10.856,10.926C11.607,10.174 12.565,9.662 13.608,9.455C14.65,9.247 15.731,9.354 16.713,9.761C17.695,10.168 18.535,10.856 19.125,11.74C19.716,12.624 20.031,13.663 20.031,14.727C20.023,17.695 17.617,20.102 14.656,20.102ZM54.008,54.008L44.742,54.008L44.742,39.5C44.742,36.039 44.68,31.594 39.922,31.594C35.102,31.594 34.359,35.359 34.359,39.25L34.359,54.008L25.102,54.008L25.102,24.18L33.992,24.18L33.992,28.258L34.117,28.258C35.352,25.914 38.375,23.438 42.891,23.438C52.281,23.438 54.008,29.617 54.008,37.648L54.008,54.008L54.008,54.008Z" fill="#2A2835"/>
</svg>
