<svg width="134" height="136" viewBox="0 0 134 136" fill="none" xmlns="http://www.w3.org/2000/svg" xmlns:xlink="http://www.w3.org/1999/xlink">
<path d="M131.473,60.999L72.982,2.167C71.363,0.54 69.168,-0.374 66.879,-0.374C64.59,-0.374 62.395,0.54 60.776,2.167L48.614,14.387L64.024,29.884C72.118,27.134 79.781,34.928 77.002,43.022L91.856,57.959C102.094,54.409 110.155,67.283 102.465,75.01C94.542,82.977 81.465,74.147 85.715,63.779L71.852,49.855L71.852,86.506C79.419,90.277 78.51,99.093 74.568,103.049C72.642,104.984 70.03,106.072 67.307,106.072C64.584,106.072 61.972,104.984 60.046,103.049C54.791,97.755 56.735,88.939 63.411,86.205L63.411,49.209C57.19,46.649 56.053,39.963 57.836,35.674L42.644,20.379L2.528,60.726C0.909,62.354 0,64.561 0,66.863C0,69.165 0.909,71.373 2.528,73.001L61.036,131.833C62.655,133.46 64.849,134.374 67.138,134.374C69.426,134.374 71.621,133.46 73.24,131.833L131.473,73.274C133.091,71.646 134.001,69.439 134.001,67.137C134.001,64.835 133.091,62.627 131.473,60.999L131.473,60.999Z" fill="#A3E1DE"/>
</svg>
