<svg width="118" height="134" viewBox="0 0 118 134" fill="none" xmlns="http://www.w3.org/2000/svg" xmlns:xlink="http://www.w3.org/1999/xlink">
<path d="M106.974,119.612L117.541,0L0,0L0.138,1.552L10.55,119.629L10.639,120.611L58.326,134L59.077,134L106.875,120.6L106.963,119.617L106.974,119.612ZM58.873,26.124L93.026,26.124L91.999,38.184L58.304,53.326L58.867,56.051L90.486,56.051L86.845,98.211L58.751,106.083L30.668,98.222L28.901,78.033L40.462,78.033L41.39,88.267L41.478,89.261L58.519,93.839L59.254,93.839L76.107,89.104L76.19,88.116L77.781,69.211L77.908,67.67L27.934,67.67L26.884,55.537L61.734,40.457L61.182,37.721L25.387,37.721L24.366,26.108L58.834,26.108L58.873,26.124Z" fill="#4592AF"/>
</svg>
