<svg width="38" height="36" viewBox="0 0 38 36" fill="none" xmlns="http://www.w3.org/2000/svg" xmlns:xlink="http://www.w3.org/1999/xlink">
<path d="M25.354,2.117C25.402,1.961 25.419,1.796 25.404,1.632C25.388,1.469 25.34,1.31 25.263,1.165C25.186,1.02 25.08,0.891 24.953,0.787C24.826,0.682 24.679,0.603 24.521,0.555C24.363,0.507 24.197,0.49 24.032,0.505C23.867,0.521 23.708,0.568 23.562,0.645C23.415,0.722 23.286,0.827 23.181,0.953C23.075,1.08 22.996,1.226 22.947,1.382L12.879,33.883C12.78,34.199 12.813,34.542 12.969,34.835C13.126,35.128 13.393,35.348 13.712,35.445C14.031,35.543 14.376,35.51 14.671,35.355C14.966,35.2 15.187,34.934 15.285,34.618L25.354,2.117L25.354,2.117ZM11.197,8.365C11.314,8.481 11.407,8.619 11.471,8.771C11.534,8.923 11.567,9.086 11.567,9.25C11.567,9.414 11.534,9.577 11.471,9.729C11.407,9.881 11.314,10.019 11.197,10.135L3.275,18L11.197,25.865C11.433,26.1 11.566,26.418 11.566,26.75C11.566,27.082 11.433,27.4 11.197,27.635C10.961,27.87 10.64,28.002 10.306,28.002C9.972,28.002 9.651,27.87 9.415,27.635L0.605,18.885C0.487,18.769 0.394,18.631 0.331,18.479C0.268,18.327 0.235,18.164 0.235,18C0.235,17.836 0.268,17.673 0.331,17.521C0.394,17.369 0.487,17.231 0.605,17.115L9.415,8.365C9.532,8.249 9.671,8.156 9.824,8.093C9.977,8.03 10.14,7.998 10.306,7.998C10.472,7.998 10.635,8.03 10.788,8.093C10.941,8.156 11.08,8.249 11.197,8.365L11.197,8.365ZM27.035,8.365C26.918,8.481 26.825,8.619 26.762,8.771C26.698,8.923 26.666,9.086 26.666,9.25C26.666,9.414 26.698,9.577 26.762,9.729C26.825,9.881 26.918,10.019 27.035,10.135L34.957,18L27.035,25.865C26.918,25.981 26.826,26.119 26.762,26.271C26.699,26.423 26.666,26.586 26.666,26.75C26.666,26.914 26.699,27.077 26.762,27.229C26.826,27.381 26.918,27.519 27.035,27.635C27.152,27.751 27.291,27.843 27.444,27.906C27.597,27.969 27.761,28.002 27.926,28.002C28.092,28.002 28.256,27.969 28.409,27.906C28.562,27.843 28.701,27.751 28.818,27.635L37.628,18.885C37.745,18.769 37.838,18.631 37.902,18.479C37.965,18.327 37.998,18.164 37.998,18C37.998,17.836 37.965,17.673 37.902,17.521C37.838,17.369 37.745,17.231 37.628,17.115L28.818,8.365C28.701,8.249 28.562,8.156 28.409,8.093C28.256,8.03 28.092,7.998 27.926,7.998C27.761,7.998 27.597,8.03 27.444,8.093C27.291,8.156 27.152,8.249 27.035,8.365L27.035,8.365Z" fill="#FFFFFF"/>
</svg>
