<svg width="108" height="144" viewBox="0 0 108 144" fill="none" xmlns="http://www.w3.org/2000/svg" xmlns:xlink="http://www.w3.org/1999/xlink">
<path d="M35.114,111.353C35.114,111.353 29.606,114.561 39.024,115.637C50.436,116.951 56.273,116.766 68.837,114.372C68.837,114.372 72.135,116.46 76.757,118.265C48.564,130.338 12.96,117.54 35.109,111.353L35.114,111.353ZM31.662,95.603C31.662,95.603 25.475,100.17 34.898,101.129C47.115,102.393 56.718,102.515 73.382,99.306C73.382,99.306 75.681,101.628 79.317,102.911C45.239,112.869 7.268,103.685 31.667,95.603L31.662,95.603ZM60.701,68.864C67.635,76.856 58.869,84.051 58.869,84.051C58.869,84.051 76.496,74.93 68.409,63.545C60.845,52.902 55.031,47.633 86.432,29.417C86.432,29.417 37.143,41.724 60.696,68.868L60.701,68.864ZM97.97,123.026C97.97,123.026 102.051,126.374 93.492,128.979C77.225,133.898 25.781,135.374 11.484,129.164C6.354,126.936 15.984,123.822 19.008,123.188C22.172,122.486 23.976,122.63 23.976,122.63C18.257,118.598 -12.96,130.527 8.114,133.947C65.606,143.276 112.896,129.753 97.97,123.026L97.97,123.026ZM37.76,79.268C37.76,79.268 11.583,85.478 28.476,87.728C35.627,88.686 49.856,88.479 63.122,87.354C73.944,86.436 84.825,84.492 84.825,84.492C84.825,84.492 81.005,86.13 78.237,88.034C51.656,95.018 0.311,91.76 15.098,84.614C27.59,78.588 37.76,79.268 37.76,79.268L37.76,79.268ZM84.704,105.516C111.704,91.454 99.212,77.976 90.518,79.808C88.38,80.226 87.422,80.631 87.422,80.631C87.422,80.631 88.196,79.385 89.721,78.849C106.97,72.779 120.236,96.728 84.164,106.223C84.164,106.2 84.591,105.849 84.704,105.521L84.704,105.516ZM68.414,0C68.414,0 83.372,14.954 54.212,37.967C30.848,56.435 48.888,66.96 54.212,78.984C40.572,66.677 30.564,55.854 37.269,45.774C47.133,30.938 74.439,23.765 68.414,0ZM40.406,143.555C66.33,145.193 106.146,142.619 107.114,130.361C107.114,130.361 105.282,135 85.662,138.699C63.54,142.871 36.234,142.376 20.039,139.707C20.039,139.707 23.369,142.448 40.401,143.555L40.406,143.555Z" fill="#F2F4F3"/>
</svg>
