<svg width="62" height="36" viewBox="0 0 62 36" fill="none" xmlns="http://www.w3.org/2000/svg" xmlns:xlink="http://www.w3.org/1999/xlink">
<path d="M29.147,27.041C27.924,28.964 26.75,30.845 24.12,32.673C22.713,33.659 19.474,35.586 14.871,35.586C6.089,35.586 -1,29.201 -1,17.975C-1,8.165 5.668,0.415 15.058,0.415C18.862,0.415 22.243,1.73 24.732,3.703C27.033,5.534 28.111,7.366 29.052,9.01L22.479,12.294C22.009,11.215 21.443,10.088 19.99,8.868C18.392,7.599 16.798,7.224 15.433,7.224C10.08,7.224 7.262,12.202 7.262,17.742C7.262,25.022 10.975,28.635 15.433,28.635C19.753,28.635 21.493,25.63 22.617,23.707L29.147,27.041L29.147,27.041ZM52.172,1.447L61,1.447L49.495,34.599L41.046,34.599L29.683,1.447L38.511,1.447L45.366,25.022L52.172,1.447Z" fill="#D9BEA5"/>
</svg>
